<?xml version="1.0" standalone="no"?>
<!DOCTYPE svg PUBLIC "-//W3C//DTD SVG 1.1//EN" "http://www.w3.org/Graphics/SVG/1.1/DTD/svg11.dtd" >
<svg xmlns="http://www.w3.org/2000/svg" xmlns:xlink="http://www.w3.org/1999/xlink" version="1.1">
<metadata>
Created by FontForge 20170104 at Fri Nov 25 21:46:25 2011
 By myTaste
Copyright (c) 2011 by AndrijType. All rights reserved.
</metadata>
<defs>
<font id="BanderaPro-Italic" horiz-adv-x="596" >
  <font-face 
    font-family="Bandera Pro"
    font-weight="400"
    font-style="italic"
    font-stretch="normal"
    units-per-em="1000"
    panose-1="2 6 5 4 4 2 0 2 0 4"
    ascent="750"
    descent="-250"
    x-height="500"
    cap-height="650"
    bbox="-134 -297 1830 944"
    underline-thickness="30"
    underline-position="-120"
    slope="-10"
    stemh="54"
    stemv="84"
    unicode-range="U+0020-FB06"
  />
<missing-glyph horiz-adv-x="614" 
d="M519 440l-47 56l60 53l49 -55zM173 440l-46 54l63 56l46 -54zM121 91l-47 56l61 53l49 -55zM463 91l-45 54l64 56l46 -54zM109 290l9 61h182l29 187h65l-29 -187h180l-9 -61h-180l-29 -188h-65l29 188h-182z" />
    <glyph glyph-name="arrowleft" unicode="&#x3c;&#x2d;&#x2d;" horiz-adv-x="724" 
d="M91 278l333 232l29 -44l-235 -161l471 2l-8 -58l-471 1l185 -160l-41 -44z" />
    <glyph glyph-name="arrowright" unicode="&#x2d;&#x2d;&#x3e;" horiz-adv-x="703" 
d="M62 249l8 58l471 -2l-184 161l42 44l261 -232l-333 -232l-29 44l233 160z" />
    <glyph glyph-name="ff" unicode="ff" horiz-adv-x="669" 
d="M242 563l-10 -63h234c0 79 12 137 33 177c-34 12 -79 25 -110 25c-101 0 -131 -39 -147 -139zM718 614l4 59c-11 11 -33 30 -64 30c-65 0 -114 -43 -115 -203h171l-9 -63h-171l-106 -687h-79l107 687h-234l-73 -472c-25 -161 -117 -229 -192 -229c-69 0 -85 18 -85 18
l30 64s22 -10 56 -10c43 0 93 51 110 157l74 472h-59l4 60l65 3l11 71c19.3574 124.945 70 192 217 192c46 0 117 -23 156 -37c31 26 69 37 111 37c36 0 69 -19 88 -32l10 23h47l-16 -140h-58z" />
    <glyph glyph-name="fi" unicode="fi" horiz-adv-x="615" 
d="M428 440l4 60h143l-62 -399c-1 -38 12 -42 24 -42c16 0 48 2 48 2l-4 -56s-51 -11 -99 -11c-34 0 -55 12 -55 56c0 8 0 18 2 29l56 358zM83 437l4 60l65 3l11 71c19.3574 124.945 70 192 217 192c40 0 100 -18 140 -32l6 23h57l-18 -148h-57l5 67c-35 12 -89 29 -124 29
c-101 0 -131 -39 -147 -139l-10 -63h168l-8 -63h-170l-73 -472c-25 -161 -117 -229 -192 -229c-69 0 -85 18 -85 18l30 64s22 -10 56 -10c43 0 93 51 110 157l74 472h-59z" />
    <glyph glyph-name="fl" unicode="fl" horiz-adv-x="618" 
d="M83 437l4 60l65 3l11 71c19.3574 124.945 70 192 217 192c45 0 113 -22 153 -36l4 23h81l-101 -652c-2 -35 11 -39 24 -39c16 0 47 2 47 2l-3 -56s-51 -11 -99 -11c-34 0 -55 12 -55 56c0 8 0 18 2 29l91 590c-32 11 -96 33 -135 33c-101 0 -131 -39 -147 -139l-10 -63
h168l-8 -63h-170l-73 -472c-25 -161 -117 -229 -192 -229c-69 0 -85 18 -85 18l30 64s22 -10 56 -10c43 0 93 51 110 157l74 472h-59z" />
    <glyph glyph-name="ffi" unicode="ffi" horiz-adv-x="977" 
d="M791 440l4 60h143l-62 -399c-1 -38 12 -42 24 -42c16 0 48 2 48 2l-4 -56s-51 -11 -99 -11c-34 0 -55 12 -55 56c0 8 0 18 2 29l56 358zM91 437l4 60l65 3l11 71c19.3574 124.945 70 192 217 192c66 0 185 -48 185 -48l-14 -36c32 55 87 84 184 84c39 0 99 -18 140 -32
l5 23h58l-19 -148h-56l5 66c-35 12 -90 30 -124 30c-102 0 -131 -39 -147 -139l-10 -63h168l-8 -63h-170l-74 -472c-25.2129 -160.814 -116 -229 -191 -229c-69 0 -86 18 -86 18l30 64s22 -10 57 -10c43 0 93 51 110 156v1l74 472h-60l5 60l65 3l11 71c5 35 13 65 25 91
c-9 3 -104 40 -154 40c-101 0 -131 -39 -147 -139l-10 -63h168l-8 -63h-170l-73 -472c-25 -161 -117 -229 -192 -229c-69 0 -85 18 -85 18l30 64s22 -10 56 -10c43 0 93 51 110 157l74 472h-59z" />
    <glyph glyph-name="ffl" unicode="ffl" horiz-adv-x="980" 
d="M91 437l4 60l65 3l11 71c19.3574 124.945 70 192 217 192c69 0 161 -41 192 -55c34 36 85 55 163 55c44 0 114 -23 153 -37l4 24h80l-97 -624l-3 -17c-4 -45 10 -50 23 -50c17 0 48 2 48 2l-3 -56s-51 -11 -100 -11c-33 0 -55 12 -55 55c0 9 1 19 3 30l91 589
c-31 12 -96 34 -135 34c-102 0 -131 -39 -147 -139l-10 -63h168l-8 -63h-170l-74 -472c-25.2129 -160.814 -116 -229 -191 -229c-69 0 -86 18 -86 18l30 64s22 -10 57 -10c43 0 93 51 110 157l74 472h-60l5 60l65 3l11 71c5.11035 32.9834 13 63 24 88
c-34 15 -102 43 -153 43c-101 0 -131 -39 -147 -139l-10 -63h168l-8 -63h-170l-73 -472c-25 -161 -117 -229 -192 -229c-69 0 -85 18 -85 18l30 64s22 -10 56 -10c43 0 93 51 110 157l74 472h-59z" />
    <glyph glyph-name="ft" unicode="ft" horiz-adv-x="678" 
d="M617 61l-7 -54s-35 -21 -111 -21c-68 0 -101 31 -101 101c0 14 1 30 4 47l46 303h-228l-106 -687h-79l107 687h-59l4 60l65 3c0 202 84 263 171 263c37 0 67 -20 85 -36l11 27h47l-16 -133h-57l3 51c-8 10 -29 31 -63 31c-56 0 -103 -43 -104 -203h229l40 158h65
l-25 -158h151l-10 -63h-151l-44 -285c-2 -14 -3 -28 -3 -39c0 -42 15 -62 53 -62c47 0 83 10 83 10z" />
    <glyph glyph-name="tt" unicode="tt" horiz-adv-x="672" 
d="M223 437l-44 -285c-2 -14 -3 -27 -3 -38c0 -40 15 -57 53 -57c47 0 82 10 82 10l-6 -54s-35 -21 -110 -21c-68 0 -102 27 -102 96c0 14 1 29 4 46l46 303h-59l4 60l65 2v1l33 158h72l-25 -158h219l33 158h72l-25 -158h151l-9 -63h-152l-44 -285c-2 -14 -3 -27 -3 -38
c0 -40 15 -57 53 -57c47 0 82 10 82 10l-6 -54s-35 -21 -110 -21c-68 0 -102 27 -102 96c0 14 1 29 4 46l46 303h-219z" />
    <glyph glyph-name="afii10056_afii10056" unicode="&#x407;&#x407;" horiz-adv-x="660" 
d="M437 594l4 56h245l-9 -60l-78 -3l-82 -528l78 -3l-8 -56h-238l5 60l80 3l82 528zM104 594l4 56h245l-9 -60l-78 -3l-82 -528l78 -3l-8 -56h-238l5 60l80 3l82 528zM469 750c-14 16 -11 43 8 59c9 6 19 10 30 10c10 0 21 -4 28 -10c15 -16 11 -43 -8 -59
c-9 -7 -21 -10 -31 -10c-11 0 -20 3 -27 10zM635 750c-15 16 -11 43 8 59c9 6 20 10 30 10s20 -4 27 -10c16 -16 12 -43 -8 -59c-9 -7 -20 -10 -30 -10s-20 3 -27 10zM132 750c-15 16 -11 43 8 59c8 6 19 10 30 10s21 -4 28 -10c15 -16 11 -43 -8 -59
c-10 -7 -21 -10 -31 -10s-20 3 -27 10zM297 750c-14 16 -11 43 8 59c9 6 20 10 31 10s20 -4 28 -10c14 -16 11 -43 -8 -59c-9 -7 -20 -10 -31 -10s-21 3 -28 10z" />
    <glyph glyph-name="quoteright_afii10104" unicode="&#x27;&#x457;" horiz-adv-x="335" 
d="M149 440l4 60h143l-62 -399c-1 -38 12 -42 24 -42c16 0 48 2 48 2l-4 -56s-51 -11 -99 -11c-34 0 -55 12 -55 56c0 8 0 18 2 29l56 358zM320 614c-14 16 -10 45 10 61c8 6 19 10 30 10c10 0 20 -4 28 -10c15 -16 11 -45 -8 -61c-9 -7 -20 -10 -31 -10s-22 3 -29 10z
M71 492l-25 26c57 39 109 108 120 155c-9 1 -16 4 -22 10c-15 16 -11 43 8 59c9 7 21 10 32 10s21 -3 29 -10l4 -6c1 0 1 -1 1 -2c3 -5 5 -11 5 -17c4 -60 -75 -176 -152 -225z" />
    <glyph glyph-name="afii10104_afii10104" unicode="&#x457;&#x457;" horiz-adv-x="530" 
d="M343 440l4 60h143l-62 -399c-1 -38 12 -42 24 -42c16 0 48 2 48 2l-4 -56s-51 -11 -99 -11c-34 0 -55 12 -55 56c0 8 0 18 2 29l56 358zM73 440l4 60h143l-62 -399c-1 -38 12 -42 24 -42c16 0 48 2 48 2l-4 -56s-51 -11 -99 -11c-34 0 -55 12 -55 56c0 8 0 18 2 29
l56 358zM366 614c-14 16 -10 45 9 61c8 6 19 10 30 10s21 -4 29 -10c15 -16 11 -45 -8 -61c-10 -7 -21 -10 -32 -10s-21 3 -28 10zM513 614c-14 16 -10 45 9 61c8 6 19 10 30 10s21 -4 29 -10c15 -16 11 -45 -9 -61c-9 -7 -20 -10 -31 -10s-21 3 -28 10zM71 614
c-15 16 -11 45 8 61c9 6 20 10 31 10s21 -4 29 -10c14 -16 10 -45 -9 -61c-9 -7 -20 -10 -31 -10s-22 3 -28 10zM218 614c-15 16 -11 45 8 61c8 6 20 10 31 10s21 -4 28 -10c15 -16 11 -45 -8 -61c-10 -7 -21 -10 -32 -10s-21 3 -27 10z" />
    <glyph glyph-name="afii10103_afii10104" unicode="&#x456;&#x457;" horiz-adv-x="530" 
d="M343 440l4 60h143l-62 -399c-1 -38 12 -42 24 -42c16 0 48 2 48 2l-4 -56s-51 -11 -99 -11c-34 0 -55 12 -55 56c0 8 0 18 2 29l56 358zM242 679c6 -7 9 -17 9 -27c0 -15 -6 -32 -19 -43c-10 -7 -23 -10 -36 -10s-26 3 -34 11c-7 7 -10 17 -10 27
c0 15 7.02637 31.9648 20 42c9.01855 6.97559 23 11 36 11s26 -4 34 -11zM73 440l4 60h143l-62 -399c-1 -38 12 -42 24 -42c16 0 48 2 48 2l-4 -56s-51 -11 -99 -11c-34 0 -55 12 -55 56c0 8 0 18 2 29l56 358zM365 614c-15 16 -11 45 8 61c9 6 20 10 31 10s22 -4 29 -10
c14 -16 10 -45 -9 -61c-9 -7 -20 -10 -31 -10s-22 3 -28 10zM526 614c-14 16 -10 45 9 61c9 6 20 10 31 10s21 -4 29 -10c14 -16 10 -45 -9 -61c-9 -7 -20 -10 -31 -10s-22 3 -29 10z" />
    <glyph glyph-name=".notdef" horiz-adv-x="614" 
d="M519 440l-47 56l60 53l49 -55zM173 440l-46 54l63 56l46 -54zM121 91l-47 56l61 53l49 -55zM463 91l-45 54l64 56l46 -54zM109 290l9 61h182l29 187h65l-29 -187h180l-9 -61h-180l-29 -188h-65l29 188h-182z" />
    <glyph glyph-name="space" unicode=" " horiz-adv-x="269" 
 />
    <glyph glyph-name="exclam" unicode="!" horiz-adv-x="314" 
d="M95 3c-8 8 -11 18 -11 28c0 14 7 30 20 40c11 8 24 12 37 12s25 -4 34 -12c7 -7 11 -17 11 -27c0 -15 -7 -30 -21 -41c-11 -8 -24 -12 -37 -12s-25 4 -33 12zM128 212l59 447l16 91h84l-15 -91l-78 -447h-66z" />
    <glyph glyph-name="quotedbl" unicode="&#x22;" horiz-adv-x="338" 
d="M251 522l34 226h74l-51 -226h-57zM90 522l34 226h74l-51 -226h-57z" />
    <glyph glyph-name="numbersign" unicode="#" horiz-adv-x="550" 
d="M264 378l-43 -108h102l42 108h-101zM83 378l8 53h144l54 137l46 -12l-50 -125h100l51 129l46 -13l-46 -116h95l-9 -53h-106l-43 -108h133l-8 -52h-145l-54 -138l-45 13l48 125h-101l-51 -129l-45 12l46 117h-92l8 52h104l43 108h-131z" />
    <glyph glyph-name="dollar" unicode="$" horiz-adv-x="477" 
d="M173 -50l12 102c-90 3 -138 26 -138 26l11 127l51 3l-6 -82c25 -8 64 -17 111 -17c102 0 147 52 147 102c0 106 -257 72 -257 224c0 88 70 137 160 144l20 121h60l-15 -125c36 -8 65 -26 84 -40l14 35h42l-16 -137h-50l-2 49c-15 14 -51 41 -105 41
c-62 0 -110 -30 -110 -80c0 -108 260 -72 260 -218c0 -81 -56 -158 -196 -171l-17 -104h-60z" />
    <glyph glyph-name="percent" unicode="%" horiz-adv-x="921" 
d="M662 43c82 0 139 62 139 160c0 62 -34 103 -97 103c-83 0 -138 -61 -138 -161c0 -61 33 -102 96 -102zM654 -14c-101 0 -155 62 -155 155c0 129 84 222 213 222c99 0 155 -63 155 -158c0 -127 -82 -219 -213 -219zM257 343c82 0 139 62 139 160c0 62 -34 103 -97 103
c-83 0 -138 -61 -138 -161c0 -61 33 -102 96 -102zM249 286c-101 0 -155 62 -155 155c0 129 84 222 213 222c99 0 155 -63 155 -158c0 -127 -82 -219 -213 -219zM235 12l424 629l60 -10l-424 -629z" />
    <glyph glyph-name="ampersand" unicode="&#x26;" horiz-adv-x="692" 
d="M420 134c0 0 12 87 30 169h-155c-75 -1 -162 -38 -162 -135c0 -61 38 -119 137 -119c96 0 137 57 150 83v2zM425 509l6 61c-11 12 -35 30 -76 30c-88 0 -142 -51 -142 -133c0 -66 48 -105 95 -107h156l42 140h48l-22 -140h149l-8 -57h-150l-26 -165c-2 -11 -3 -22 -3 -31
c0 -44 22 -59 60 -59c42 0 77 8 77 8l-8 -56s-30 -14 -98 -14c-56 0 -93 18 -105 65c-34 -33 -87 -65 -174 -65c-141 0 -197 80 -197 170c0 107 84 161 166 182c-42 26 -79 72 -79 137c0 112 82 188 203 188c51 0 87 -22 106 -40l13 31h46l-21 -145h-58z" />
    <glyph glyph-name="quotesingle" unicode="'" horiz-adv-x="177" 
d="M90 522l34 226h74l-51 -226h-57z" />
    <glyph glyph-name="parenleft" unicode="(" horiz-adv-x="351" 
d="M248 -158l-62 -25s-84 102 -84 315c0 42 3.11816 88.9814 11 140c47.7178 308.889 213 460 213 460l57 -25s-146.868 -158.177 -190 -435c-7.7959 -50.0322 -11 -97 -11 -139c0 -189 66 -291 66 -291z" />
    <glyph glyph-name="parenright" unicode=")" horiz-adv-x="350" 
d="M126 707l65 25s83 -101 83 -314c0 -43 -3.03809 -89.9941 -11 -141c-48.2295 -308.964 -214 -460 -214 -460l-57 25s146.868 158.177 190 435c7.7959 50.0322 11 96 11 138c0 190 -67 292 -67 292z" />
    <glyph glyph-name="asterisk" unicode="*" horiz-adv-x="450" 
d="M73 527l33 70l151 -74l9 181h75l-47 -180l174 73l13 -70l-179 -38l97 -135l-66 -44l-66 154l-113 -154l-54 44l140 133z" />
    <glyph glyph-name="plus" unicode="+" horiz-adv-x="466" 
d="M47 247l4 61h168l26 167h64l-26 -167h162l-8 -61h-163l-25 -167h-65l26 167h-163z" />
    <glyph glyph-name="comma" unicode="," horiz-adv-x="257" 
d="M30 -163l-36 26c55 46 87 112 89 156c-6 2 -11 5 -15 9c-15 16 -11 43 9 59c9 7 21 10 32 10s21 -3 29 -10l2 -3c8 -10 11 -24 11 -40c0 -62 -51 -162 -121 -207z" />
    <glyph glyph-name="hyphen" unicode="-" horiz-adv-x="339" 
d="M47 247l5 61h266l-9 -61h-262z" />
    <glyph glyph-name="period" unicode="." horiz-adv-x="275" 
d="M72 3c-8 8 -11 18 -11 28c0 14 7 30 20 40c11 8 24 12 37 12s25 -4 34 -12c7 -7 11 -17 11 -27c0 -15 -7 -30 -21 -41c-11 -8 -24 -12 -37 -12s-25 4 -33 12z" />
    <glyph glyph-name="slash" unicode="/" horiz-adv-x="478" 
d="M-75 -250l589 1000h75l-588 -1000h-76z" />
    <glyph glyph-name="zero" unicode="0" horiz-adv-x="645" 
d="M517 334c6 36 9 68 9 97c0 115 -47 170 -140 170c-135 0 -225 -109 -225 -358c0 -121 47 -195 138 -195c115 0 190 104 218 286zM603 334c-31 -208 -137 -348 -312 -348c-146 0 -214 108 -214 267c0 238 100 410 318 410c146 0 216 -84 216 -234c0 -29 -3 -61 -8 -95z
" />
    <glyph glyph-name="one" unicode="1" horiz-adv-x="423" 
d="M136 521l-13 58l177 71h67l-92 -591l58 -3l-12 -56h-224l5 60l93 2l81 516z" />
    <glyph glyph-name="two" unicode="2" horiz-adv-x="547" 
d="M113 498l27 156h47l2 -40c35 21 93 49 163 49c116 0 169 -58 169 -148c0 -173 -258 -361 -392 -447h284l20 77l56 -4l-25 -141h-445l10 67c4 1 403 256 403 440c0 58 -32 90 -116 90c-66 0 -113 -31 -133 -46l-12 -53h-58z" />
    <glyph glyph-name="three" unicode="3" horiz-adv-x="547" 
d="M118 502l26 152l64 -4h326l-6 -47l-234 -229c6 0 14 1 21 1c108 0 179 -59 179 -154c0 -142 -116 -235 -288 -235c-117 0 -170 30 -170 30l14 125l55 4l-4 -81c23 -7 57 -14 108 -14c130 0 203 72 203 166c0 60 -44 102 -127 102c-39 0 -67 -19 -71 -22l-31 39l245 248
h-236l-18 -81h-56z" />
    <glyph glyph-name="four" unicode="4" horiz-adv-x="567" 
d="M35 173l3 50c75 103 175 272 249 436l75 -9c-73 -159 -163 -308 -236 -416h246l37 231l23 90h69l-49 -321h81l-6 -56l-85 -5l-18 -118l58 -3l-10 -52h-200l4 56l68 3l18 114h-327z" />
    <glyph glyph-name="five" unicode="5" horiz-adv-x="535" 
d="M36 16l14 125l55 3l-4 -80c21 -7 54 -14 105 -14c123 0 201 81 201 176c0 66 -54 116 -146 116c-59 0 -96 -20 -102 -25l-40 5l83 328h267l11 36l56 -4l-19 -103l-69 4h-195l-51 -192c22 5 47 9 74 9c133 0 213 -64 213 -166c0 -149 -121 -248 -286 -248
c-125 0 -167 30 -167 30z" />
    <glyph glyph-name="six" unicode="6" horiz-adv-x="594" 
d="M329 359c-98 0 -151 -58 -167 -81c-3 -10 -6.91406 -23.0146 -10 -41c-2.91895 -17.0137 -4 -33 -4 -48c0 -86 42 -145 136 -145c110 0 164.941 95.0098 178 177c11.9463 75.0088 -26 138 -133 138zM467 509l3 54c-16 15 -47 38 -94 38c-100 0 -175 -82 -210 -247
c41 29 100 59 180 59c127 0 201 -57 201 -157c0 -11 -1.02441 -22.9961 -3 -36c-18.2256 -119.966 -111 -234 -268 -234c-136 0 -208 87 -208 223c0 56 14 99 18 114c51 231 159 340 285 340c52 0 89 -25 111 -45l14 36h47l-18 -145h-58z" />
    <glyph glyph-name="seven" unicode="7" horiz-adv-x="483" 
d="M83 498l28 156l63 -4h358l-9 -66c-115 -154 -256 -384 -335 -584h-92c80 200 216 415 333 579h-272l-18 -81h-56z" />
    <glyph glyph-name="eight" unicode="8" horiz-adv-x="577" 
d="M197 474c0 -89 81 -111 120 -116c43 6 156 33 156 157c0 62 -40 94 -119 94c-102 0 -157 -49 -157 -135zM433 189c0 90 -88 111 -130 116c-45 -6 -167 -33 -167 -159c0 -71 48 -106 128 -106c103 0 169 52 169 149zM558 519c0 -110 -86 -161 -159 -185
c55 -17 122 -55 122 -145c0 -140 -106 -203 -264 -203c-129 0 -210 47 -210 153c0 115 94 170 172 195c-49 19 -105 58 -105 141c0 120 99 188 247 188c122 0 197 -52 197 -144z" />
    <glyph glyph-name="nine" unicode="9" horiz-adv-x="594" 
d="M303 278c94 0 147 52 164 73c7 20 22 75 22 123c0 82 -39 131 -131 131c-124 0 -187 -102 -187 -192c0 -65 38 -135 132 -135zM71 6l16 134l56 4l-5 -86c24 -6 57 -10 100 -10c108 0 197 86 230 246c-28 -28 -85 -70 -182 -70c-128 0 -197 79 -197 185
c0 132 103 254 277 254c134 0 203 -69 203 -201c0 -55 -17 -121 -20 -135c-46 -228 -166 -341 -315 -341c-104 0 -163 20 -163 20z" />
    <glyph glyph-name="colon" unicode=":" horiz-adv-x="277" 
d="M72 3c-8 8 -11 18 -11 28c0 14 7 30 20 40c11 8 24 12 37 12s25 -4 34 -12c7 -7 11 -17 11 -27c0 -15 -7 -30 -21 -41c-11 -8 -24 -12 -37 -12s-25 4 -33 12zM131 382c-8 8 -11 18 -11 28c0 14 7 30 20 40c11 8 24 12 37 12s25 -4 34 -12c7 -7 11 -17 11 -27
c0 -15 -7 -30 -21 -41c-11 -8 -24 -12 -37 -12s-25 4 -33 12z" />
    <glyph glyph-name="semicolon" unicode=";" horiz-adv-x="275" 
d="M131 382c-8 8 -11 18 -11 28c0 14 7 30 20 40c11 8 24 12 37 12s25 -4 34 -12c7 -7 11 -17 11 -27c0 -15 -7 -30 -21 -41c-11 -8 -24 -12 -37 -12s-25 4 -33 12zM41 -163l-36 26c55 46 87 112 89 156c-6 2 -11 5 -15 9c-15 16 -11 43 9 59c9 7 21 10 32 10s21 -3 29 -10
l2 -3c8 -10 11 -24 11 -40c0 -62 -51 -162 -121 -207z" />
    <glyph glyph-name="less" unicode="&#x3c;" horiz-adv-x="423" 
d="M89 318l309 199l30 -38l-257 -161l207 -162l-41 -38z" />
    <glyph glyph-name="equal" unicode="=" horiz-adv-x="538" 
d="M62 346l4 61h466l-8 -61h-462zM32 148l4 61h466l-8 -61h-462z" />
    <glyph glyph-name="greater" unicode="&#x3e;" horiz-adv-x="423" 
d="M83 479l41 38l249 -199l-309 -200l-31 38l257 162z" />
    <glyph glyph-name="question" unicode="?" horiz-adv-x="471" 
d="M101 3c-8 8 -11 18 -11 28c0 14 7 30 20 40c11 8 24 12 37 12s25 -4 34 -12c7 -7 11 -17 11 -27c0 -15 -7 -30 -21 -41c-11 -8 -24 -12 -37 -12s-25 4 -33 12zM107 602l26 152h47l2 -36c31 20 80 45 138 45c108 0 165 -62 165 -142c0 -235 -311 -163 -295 -411l-47 -4
c-1 14 -2 27 -2 39c0 236 263 186 263 361c0 47 -31 93 -117 93c-56 0 -93 -25 -110 -40l-13 -57h-57z" />
    <glyph glyph-name="at" unicode="@" horiz-adv-x="959" 
d="M462 34c73 0 110 52 120 71l32 203c-4 15 -22 53 -95 53c-109 0 -172 -74 -172 -200c0 -79 42 -127 115 -127zM724 -81l15 -51s-84 -102 -294 -102c-248 0 -388 141 -388 358c0 316 175 510 513 510c223 0 352 -111 352 -293c0 -249 -123 -354 -250 -354
c-53 0 -89 12 -95 51c-24 -24 -66 -52 -135 -52c-98 0 -161 61 -161 173c0 151 97 249 238 249c56 0 91 -19 112 -40l19 26h35l-48 -307c-6 -41 14 -53 46 -53c70 0 174 66 174 300c0 155 -103 243 -290 243c-273 0 -437 -144 -437 -441c0 -194 125 -310 321 -310
c179 0 273 93 273 93z" />
    <glyph glyph-name="A" unicode="A" horiz-adv-x="694" 
d="M404 582l-174 -327h245zM-38 0l5 60l80 3l316 587h111l134 -591l76 -3l-8 -56h-227l7 48l67 2l-36 150h-287l-80 -148l68 -2l-7 -50h-219z" />
    <glyph glyph-name="B" unicode="B" horiz-adv-x="626" 
d="M222 363h152c45 0 130 41 130 142c0 62 -48 84 -131 84h-116zM370 308h-156l-38 -246h116c147 0 202 62 202 156c0 64 -47 90 -124 90zM104 594l4 56h278c136 0 199 -51 199 -132c0 -84 -56 -139 -111 -171c64 -19 101 -63 101 -127c0 -121 -78 -220 -287 -220h-272l5 60
l80 3l82 528z" />
    <glyph glyph-name="C" unicode="C" horiz-adv-x="659" 
d="M562 429l12 121c-18 13 -67 45 -139 45c-154 0 -279 -109 -279 -316c0 -144 97 -225 225 -225c137 0 211 95 211 95l34 -45s-80 -118 -255 -118c-180 0 -301 114 -301 294c0 228 154 383 357 383c75 0 130 -33 158 -55l19 46h51l-30 -225h-63z" />
    <glyph glyph-name="D" unicode="D" horiz-adv-x="743" 
d="M405 582h-140l-80 -514h147c180 0 298 111 298 320c0 132 -86 194 -225 194zM104 594l4 56h306c188 0 303 -86 303 -258c0 -239 -146 -392 -395 -392h-306l5 60l80 3l82 528z" />
    <glyph glyph-name="E" unicode="E" 
d="M511 505l6 80h-251l-35 -226l293 1l-9 -63h-294l-36 -232h280l22 90l61 -4l-27 -151h-505l5 60l80 3l82 528l-79 3l4 56h415l73 4l-9 -69l-10 -80h-66z" />
    <glyph glyph-name="F" unicode="F" horiz-adv-x="546" 
d="M521 505l6 80h-261l-36 -228h281l-9 -63h-282l-36 -235l98 -3l-12 -56h-254l5 60l80 3l82 528l-79 3l4 56h425l73 4l-19 -149h-66z" />
    <glyph glyph-name="G" unicode="G" horiz-adv-x="716" 
d="M567 459l9 93c-15 13 -57 43 -134 43c-183 0 -286 -107 -286 -313c0 -142 82 -228 205 -228c139 0 180 82 187 101l16 101h-154l8 55h226l-48 -311h-50l-1 62c-36 -39 -99 -76 -207 -76c-167 0 -269 116 -269 285c0 244 147 392 369 392c69 0 121 -30 150 -52l16 43h50
l-24 -195h-63z" />
    <glyph glyph-name="H" unicode="H" horiz-adv-x="760" 
d="M537 590l4 60h245l-9 -60l-78 -3l-81 -528l77 -3l-7 -56h-238l4 60l80 3l35 228h-349l-36 -229l78 -2l-8 -60h-238l5 60l80 3l82 528l-79 3l4 56h245l-9 -60l-78 -3l-36 -233h349l36 233z" />
    <glyph glyph-name="I" unicode="I" horiz-adv-x="327" 
d="M104 594l4 56h245l-9 -60l-78 -3l-82 -528l78 -3l-8 -56h-238l5 60l80 3l82 528z" />
    <glyph glyph-name="J" unicode="J" horiz-adv-x="445" 
d="M226 594l4 56h244l-8 -60l-65 -3l-61 -400c-25 -161 -107 -201 -207 -201c-94 0 -135 23 -135 23l13 139l60 4l-8 -92c16 -5 37 -10 70 -10c47 0 105 23 123 137l63 404z" />
    <glyph glyph-name="K" unicode="K" horiz-adv-x="706" 
d="M104 594l4 56h237l-8 -52l-70 -3l-45 -289l101 62l241 230l-44 2l7 50h227l-9 -60l-106 -3l-255 -245l199 -281l105 -1l-8 -60h-155l-34 34l-179 254l-103 -64l-25 -162l78 -2l-8 -60h-238l5 60l80 3l82 528z" />
    <glyph glyph-name="L" unicode="L" horiz-adv-x="555" 
d="M104 594l4 56h245l-9 -60l-78 -3l-81 -522h272l22 94l62 -4l-28 -155h-497l5 60l80 3l82 528z" />
    <glyph glyph-name="M" unicode="M" horiz-adv-x="993" 
d="M104 594l5 56h192l179 -564h1l354 564h184l-8 -60l-79 -3l-80 -525l78 -2l-9 -60h-227l4 52l72 3l76 481h-1l-339 -536h-81l-170 536h-1l-77 -483l71 -3l-7 -50h-225l5 60l80 3l82 528z" />
    <glyph glyph-name="N" unicode="N" horiz-adv-x="781" 
d="M550 -6l-300 537h-1v-31l-71 -439l79 -4l-8 -57h-233l5 60l80 3l82 528l-79 3l4 56h172l297 -545l1 24l72 460l-79 4l4 57h240l-9 -60l-77 -3l-92 -593h-87z" />
    <glyph glyph-name="O" unicode="O" horiz-adv-x="754" 
d="M353 54c150 0 256 113 282 280c4 22 5 43 5 63c0 127 -73 198 -201 198c-173 0 -283 -117 -283 -315c0 -133 70 -226 197 -226zM722 334c-32.5459 -206.914 -174 -348 -379 -348c-176 0 -273 120 -273 291c0 238 146 386 378 386c179 0 280 -95 280 -258
c0 -22 -2.06641 -45.9893 -6 -71z" />
    <glyph glyph-name="P" unicode="P" horiz-adv-x="575" 
d="M345 588h-85l-47 -302h82c101 0 198 53 198 188c0 83 -58 114 -148 114zM104 594l4 56h260c133 0 213 -49 213 -162c0 -185 -150 -261 -278 -261h-99l-27 -172l92 -3l-7 -52h-246l5 60l80 3l82 528z" />
    <glyph glyph-name="Q" unicode="Q" horiz-adv-x="753" 
d="M353 54c173 0 288 144 288 334c0 131 -74 207 -202 207c-173 0 -283 -118 -283 -315c0 -132 70 -226 197 -226zM603 -134c-24 -8 -48 -12 -72 -12c-85 0 -170 48 -212 133c-161 10 -249 126 -249 290c0 238 146 386 378 386c179 0 280 -98 280 -267
c0 -213 -127 -379 -327 -406c37 -42 87 -71 145 -71c19 0 38 3 58 10z" />
    <glyph glyph-name="R" unicode="R" horiz-adv-x="623" 
d="M345 588h-85l-45 -293h94c108 0 185 56 185 184c0 76 -52 109 -149 109zM104 594l4 56h260c135 0 214 -52 214 -160c0 -130 -78 -211 -171 -243l110 -186l98 -1l-9 -60h-145l-28 33l-112 199h-120l-28 -177l71 -3l-7 -52h-225l5 60l80 5l82 526z" />
    <glyph glyph-name="S" unicode="S" horiz-adv-x="574" 
d="M479 501l4 57c-14 14 -49 43 -113 43c-102 0 -163 -46 -163 -123c0 -139 317 -103 317 -284c0 -124 -99 -208 -266 -208c-143 0 -211 40 -211 40l19 143l58 4l-5 -101c30 -11 77 -24 139 -24c122 0 182 62 182 133c0 133 -317 97 -317 288c0 120 97 194 239 194
c63 0 108 -31 132 -53l19 44h51l-19 -153h-66z" />
    <glyph glyph-name="T" unicode="T" horiz-adv-x="536" 
d="M524 497l5 88h-159l-81 -523l78 -2l-8 -60h-238l4 60l80 3l80 522h-156l-22 -88h-60l26 157l72 -4h388l73 4l-20 -157h-62z" />
    <glyph glyph-name="U" unicode="U" horiz-adv-x="735" 
d="M532 593l5 57h242l-8 -56l-78 -3l-57 -369c-20 -126 -116 -236 -300 -236c-163 0 -232 86 -232 193c0 14 2 28 4 43l57 369l-79 3l4 56h244l-7 -56l-78 -3l-55 -352c-2 -13 -3 -25 -3 -37c0 -82 49 -143 156 -143c124 0 194 80 210 180l54 350z" />
    <glyph glyph-name="V" unicode="V" horiz-adv-x="664" 
d="M524 593l4 57h227l-7 -56l-74 -3l-315 -591h-110l-131 591l-76 3l5 56h230l-8 -56l-66 -3l112 -529h1l275 527z" />
    <glyph glyph-name="W" unicode="W" horiz-adv-x="1015" 
d="M662 0l-94 547l-266 -547h-89l-97 591l-74 3l5 56h229l-7 -56l-67 -3l74 -498l263 557h88l94 -556l223 495l-70 4l4 57h228l-7 -56l-72 -3l-276 -591h-89z" />
    <glyph glyph-name="X" unicode="X" horiz-adv-x="689" 
d="M513 593l8 57h230l-8 -60l-98 -2l-230 -261l156 -266l99 -1l-8 -60h-238l7 56l43 1l-119 211l-185 -209l44 -1l-8 -58h-234l5 60l101 2l236 262l-152 267l-95 3l4 56h238l-7 -56l-44 -2l117 -209l182 208z" />
    <glyph glyph-name="Y" unicode="Y" horiz-adv-x="632" 
d="M30 594l5 56h242l-8 -56l-53 -2l129 -252l205 251l-49 2l8 57h226l-9 -60l-92 -2l-259 -318l-33 -208l78 -2l-9 -60h-238l5 60l80 3l32 206l-168 322z" />
    <glyph glyph-name="Z" unicode="Z" horiz-adv-x="602" 
d="M98 505l23 137l1 8l1 4l72 -4h429l-8 -57l-486 -528h341l22 90l61 -4l-27 -151h-513l8 57l486 528h-328l-17 -80h-65z" />
    <glyph glyph-name="bracketleft" unicode="[" horiz-adv-x="381" 
d="M59 -76l119 777h270l-8 -57h-199l-102 -662h198l-9 -58h-269z" />
    <glyph glyph-name="backslash" unicode="\" horiz-adv-x="478" 
d="M341 -250l-280 1000h75l280 -1000h-75z" />
    <glyph glyph-name="bracketright" unicode="]" horiz-adv-x="381" 
d="M82 643l7 58h270l-119 -777h-270l8 58h200l102 661h-198z" />
    <glyph glyph-name="asciicircum" unicode="^" horiz-adv-x="385" 
d="M88 520l180 167l129 -167l-39 -32l-100 134l-143 -134z" />
    <glyph glyph-name="underscore" unicode="_" horiz-adv-x="716" 
d="M-14 -153l4 61h644l-9 -61h-639z" />
    <glyph glyph-name="grave" unicode="`" horiz-adv-x="236" 
d="M215 577l-58 -5l-93 139l78 9z" />
    <glyph glyph-name="a" unicode="a" horiz-adv-x="598" 
d="M269 48c92 0 142 67 147 74l44 284c-3 5 -36 47 -117 47c-148 0 -216 -94 -216 -253c0 -97 53 -152 142 -152zM553 500l-57 -374c-1.98145 -13.0029 -3 -24 -3 -33c0 -31 12 -34 23 -34c16 0 48 2 48 2l-4 -56s-51 -11 -99 -11c-38 0 -56 15 -50 67
c-5 -6 -59 -75 -175 -75c-117 0 -191 85 -191 215c0 180 102 313 284 313c106 0 142 -51 142 -51l19 37h63z" />
    <glyph glyph-name="b" unicode="b" horiz-adv-x="587" 
d="M343 452c-94 0 -140 -62 -145 -70l-45 -290c6 -8 36 -45 117 -45c155 0 218 133 218 270c0 95 -54 135 -145 135zM107 690l4 60h144l-47 -305h1s51 69 167 69c119 0 195 -68 195 -196c0 -173 -103 -332 -284 -332c-97 0 -139 42 -148 52l-17 -38h-64l106 687z" />
    <glyph glyph-name="c" unicode="c" horiz-adv-x="483" 
d="M408 335l6 78c-11 16 -38 42 -99 42c-124 0 -186 -73 -186 -242c0 -109 71 -168 157 -168c91 0 129 60 129 60l41 -28s-45 -91 -184 -91c-132 0 -227 85 -227 223c0 191 90 305 255 305c63 0 104 -27 126 -47l14 37h52l-22 -169h-62z" />
    <glyph glyph-name="d" unicode="d" horiz-adv-x="593" 
d="M269 48c90 0 140 60 147 69l44 291c-8 10 -43 45 -117 45c-148 0 -216 -94 -216 -253c0 -97 53 -152 142 -152zM445 690l5 60h142l-96 -624c-2 -13 -3 -24 -3 -33c0 -31 12 -34 23 -34c16 0 48 2 48 2l-4 -56s-51 -11 -99 -11c-37 0 -55 14 -50 65c0 0 -53 -73 -175 -73
c-117 0 -191 85 -191 215c0 179 98 313 280 313c105 0 142 -48 142 -48h2l34 221z" />
    <glyph glyph-name="e" unicode="e" horiz-adv-x="513" 
d="M320 455c-100 0 -170 -70 -190 -182c222 0 304 20 304 96c0 50 -39 86 -114 86zM425 113l42 -30s-53 -97 -201 -97c-129 0 -221 76 -221 215c0 173 116 313 283 313c107 0 178 -56 178 -141c0 -118 -112 -150 -382 -150v-21c0 -101 66 -155 153 -155c104 0 148 66 148 66
z" />
    <glyph glyph-name="f" unicode="f" horiz-adv-x="354" 
d="M404 614l4 59c-11 11 -33 30 -64 30c-65 0 -114 -43 -115 -203h171l-9 -63h-171l-106 -687h-79l107 687h-59l4 60l65 3c0 202 80 263 181 263c36 0 69 -19 88 -32l10 23h47l-16 -140h-58z" />
    <glyph glyph-name="g" unicode="g" horiz-adv-x="588" 
d="M278 45c73 0 120 35 132 44l46 297c-3 7 -32 68 -123 68c-120 0 -203 -70 -203 -243c0 -101 43 -166 148 -166zM401 33c-3 -2 -59 -47 -159 -47c-131 0 -195 91 -195 223c0 192 116 305 270 305c121 0 149 -72 149 -72l17 58h70l-71 -466c7 -199 -115 -298 -266 -298
c-123 0 -174 40 -174 40l18 127l54 3l-7 -90c26 -12 63 -23 114 -23c112 0 185 78 180 236v4z" />
    <glyph glyph-name="h" unicode="h" horiz-adv-x="590" 
d="M413 79l42 265c11.4258 72.0938 -29 102 -108 102c-94 0 -148 -51 -148 -51l-61 -395h-80l106 687l-56 3l3 60h143l-46 -293h2c1 0 59 57 174 57c98 0 156 -37 156 -121c0 -11 -1.08594 -21.9863 -3 -34l-40 -251c-4 -44 10 -49 23 -49c17 0 48 2 48 2l-3 -56
s-51 -11 -100 -11c-34 0 -54 12 -54 56c0 8 0 18 2 29z" />
    <glyph glyph-name="i" unicode="i" horiz-adv-x="259" 
d="M242 679c6 -7 9 -17 9 -27c0 -15 -6 -32 -19 -43c-10 -7 -23 -10 -36 -10s-26 3 -34 11c-7 7 -10 17 -10 27c0 15 7.02637 31.9648 20 42c9.01855 6.97559 23 11 36 11s26 -4 34 -11zM73 440l4 60h143l-62 -399c-1 -38 12 -42 24 -42c16 0 48 2 48 2l-4 -56
s-51 -11 -99 -11c-34 0 -55 12 -55 56c0 8 0 18 2 29l56 358z" />
    <glyph glyph-name="j" unicode="j" horiz-adv-x="260" 
d="M248 679c6 -7 9 -17 9 -27c0 -15 -6 -32 -19 -43c-10 -7 -23 -10 -36 -10s-26 3 -34 11c-7 7 -10 17 -10 27c0 15 7.02637 31.9648 20 42c9.01855 6.97559 23 11 36 11s26 -4 34 -11zM-130 -246l26 64s22 -10 57 -10c42 0 93 51 110 157l73 472l-56 3l5 60h141l-83 -535
c-25 -161 -116 -229 -192 -229c-68 0 -81 18 -81 18z" />
    <glyph glyph-name="k" unicode="k" horiz-adv-x="539" 
d="M351 456c-66 0 -128 -59 -157 -91l-23 -149c84 6 271 32 271 158c0 53 -34 82 -91 82zM417 -6c-45 0 -91 79 -146 186c-48 -10 -89 -14 -108 -15l-25 -165h-80l106 687l-56 3l3 60h143l-48 -308c40 34 100 72 169 72c92 0 146 -46 146 -125c0 -101 -83 -157 -170 -187
c46 -86 83 -142 106 -143c16 0 51 2 51 2l-3 -56s-40 -11 -88 -11z" />
    <glyph glyph-name="l" unicode="l" horiz-adv-x="255" 
d="M107 690l5 60h143l-101 -649c-1 -37 11 -42 24 -42c16 0 48 2 48 2l-4 -56s-51 -11 -99 -11c-34 0 -55 12 -55 56c0 8 0 18 2 29l94 608z" />
    <glyph glyph-name="m" unicode="m" horiz-adv-x="836" 
d="M660 79l44 280c11 71 -16 88 -75 88c-72 0 -122 -41 -134 -51c0 -7 -1 -16 -2 -24l-57 -372h-81l56 359c10.9209 70.0127 -15 88 -72 88c-74 0 -126 -42 -136 -51l-61 -396h-80l67 437l-57 3l5 60h133l-1 -50c7 8 65 64 164 64c64 0 103 -19 117 -62c13 12 74 62 176 62
c81 0 123 -28 123 -103c0 -12 -1 -25 -3 -40l-42 -273c-2 -35 11 -39 23 -39c16 0 48 2 48 2l-4 -56s-51 -11 -99 -11c-34 0 -54 12 -54 56c0 8 0 18 2 29z" />
    <glyph glyph-name="n" unicode="n" horiz-adv-x="595" 
d="M417 79c0 0 41 258 42 265c12 72 -28 102 -107 102c-92 0 -145 -48 -149 -51l-61 -395h-80l67 437l-57 3l5 60h133l1 -44c11 11 67 58 178 58c97 0 155 -35 155 -120c0 -11 -1 -23 -3 -35l-40 -257c-1 -39 12 -43 24 -43c16 0 48 2 48 2l-4 -56s-51 -11 -99 -11
c-40 0 -63 17 -53 85z" />
    <glyph glyph-name="o" unicode="o" horiz-adv-x="566" 
d="M264 45c131 0 201 100 201 260c0 93 -44 150 -137 150c-131 0 -201 -94 -201 -256c0 -94 44 -154 137 -154zM255 -14c-140 0 -210 85 -210 216c0 187 102 312 291 312c141 0 212 -79 212 -209c0 -186 -109 -319 -293 -319z" />
    <glyph glyph-name="p" unicode="p" horiz-adv-x="588" 
d="M347 452c-97 0 -148 -72 -148 -72l-44 -288c6 -8 41 -45 117 -45c146 0 219 114 219 272c0 96 -54 133 -144 133zM72 440l5 60h133l-3 -60c9 11 64 74 176 74c118 0 190 -68 190 -194c0 -175 -102 -334 -282 -334c-106 0 -144 48 -144 48h-1l-44 -284h-80l107 687z" />
    <glyph glyph-name="q" unicode="q" horiz-adv-x="589" 
d="M269 48c91 0 137 57 146 69l45 289c-5 6 -37 47 -116 47c-149 0 -216 -91 -216 -254c0 -99 52 -151 141 -151zM370 -171l36 230h-1s-51 -73 -168 -73c-118 0 -192 85 -192 215c0 180 104 313 285 313c93 0 135 -44 141 -50l20 36h63l-100 -648c-1 -38 12 -43 23 -43
c16 0 48 2 48 2l-4 -56s-51 -11 -99 -11c-34 0 -54 12 -54 56c0 8 0 18 2 29z" />
    <glyph glyph-name="r" unicode="r" horiz-adv-x="419" 
d="M364 348l2 99c-12 1 -23 2 -35 2c-80 0 -124 -66 -132 -80l-57 -369h-80l67 437l-65 3l5 60h133l-4 -76h1s50 90 158 90c43 0 81 -14 81 -14l-18 -152h-56z" />
    <glyph glyph-name="s" unicode="s" horiz-adv-x="477" 
d="M393 367l-2 49c-15 14 -51 41 -105 41c-62 0 -110 -30 -110 -80c0 -108 260 -72 260 -218c0 -89 -67 -173 -240 -173c-104 0 -159 26 -159 26l11 127l51 3l-6 -82c25 -8 64 -17 111 -17c102 0 147 52 147 102c0 106 -257 72 -257 224c0 96 83 145 184 145
c55 0 99 -26 125 -45l14 35h42l-16 -137h-50z" />
    <glyph glyph-name="t" unicode="t" horiz-adv-x="367" 
d="M78 437l4 60l65 2v1l33 158h72l-25 -158h151l-9 -63h-152l-44 -285c-2 -14 -3 -27 -3 -38c0 -40 15 -57 53 -57c47 0 82 10 82 10l-6 -54s-35 -21 -110 -21c-68 0 -102 27 -102 96c0 14 1 29 4 46l46 303h-59z" />
    <glyph glyph-name="u" unicode="u" horiz-adv-x="592" 
d="M406 440l4 60h144l-62 -395c-3 -42 10 -46 23 -46c16 0 47 2 47 2l-3 -56s-51 -11 -100 -11c-33 0 -50 11 -49 53h-2s-58 -61 -181 -61c-98 0 -154 52 -154 140c0 11 1 23 3 35l42 276l-56 3l5 60h142l-51 -324c-11 -72 27 -121 106 -121c95 0 148 50 148 50l51 332z" />
    <glyph glyph-name="v" unicode="v" horiz-adv-x="509" 
d="M398 443l5 57h149c-35 -136 -151 -319 -296 -500h-75l-98 437l-68 3l5 60h139l87 -417h1c79 103 168 242 213 354z" />
    <glyph glyph-name="w" unicode="w" horiz-adv-x="763" 
d="M13 440l5 60h131l45 -405h1l186 405h77l77 -405h2c71 100 139 232 176 341l-65 7l4 57h149c-31 -136 -113 -319 -250 -500h-78l-66 401l-194 -401h-83l-55 437z" />
    <glyph glyph-name="x" unicode="x" horiz-adv-x="560" 
d="M401 447l1 53h150l-6 -38c-2 -8 -108 -133 -195 -220c55 -95 116 -183 141 -183c16 0 59 2 59 2l-3 -56s-48 -11 -96 -11c-43 0 -114 104 -175 223h-3c-41 -39 -107 -105 -151 -155l45 -4l-9 -58h-145l6 38c5 11 141 151 219 225l-105 174l-86 3l2 60h139l119 -212h2
c42 41 105 104 143 154z" />
    <glyph glyph-name="y" unicode="y" horiz-adv-x="521" 
d="M17 440l4 60h136l115 -420h1c69 105 145 239 191 357l-60 6l5 57h139l-3 -39c-43 -126 -154 -307 -254 -456c-16 -138 -85 -269 -222 -269c-73 0 -103 24 -103 24l18 143l54 3l-7 -106c13 -4 27 -7 43 -7c94 0 122 100 137 210l-125 434z" />
    <glyph glyph-name="z" unicode="z" horiz-adv-x="488" 
d="M87 359l25 149l64 -8h308l-4 -54l-337 -370c71 -7 142 -21 221 -26l23 100l57 -4l-27 -159c-127 0 -222 27 -327 31l-43 -32l-40 48l375 405h-220l-18 -80h-57z" />
    <glyph glyph-name="braceleft" unicode="{" horiz-adv-x="429" 
d="M344 -107l-8 -57c-138 0 -183 44 -183 115c0 91 63 163 63 228c0 49 -54 81 -94 81l9 61l1 3c45 0 124 40 124 123c0 36 -6 83 -6 122c0 105 34 179 226 179l-8 -57c-129 0 -151 -59 -151 -138c0 -39 6 -84 6 -122c0 -62 -38 -111 -89 -140c33 -22 54 -55 54 -91
c0 -76 -63 -143 -63 -224c0 -52 32 -83 119 -83z" />
    <glyph glyph-name="bar" unicode="|" horiz-adv-x="333" 
d="M61 -250l155 1000h74l-155 -1000h-74z" />
    <glyph glyph-name="braceright" unicode="}" horiz-adv-x="428" 
d="M-8 -164l9 57c128 0 150 59 150 138c0 39 -5 84 -5 122c0 61 37 110 88 139c-33 22 -54 55 -54 92c0 76 63 143 63 224c0 52 -32 83 -118 83l8 57c138 0 182 -44 182 -115c0 -91 -63 -163 -63 -228c0 -49 55 -81 94 -81l-6 -37l-3 -27c-46 0 -124 -40 -124 -123
c0 -36 5 -83 5 -122c0 -105 -34 -179 -226 -179z" />
    <glyph glyph-name="asciitilde" unicode="~" horiz-adv-x="659" 
d="M85 293l-33 38s62 95 190 95c144 0 148 -89 271 -89c73 0 109 43 109 43l28 -35s-55 -87 -169 -87c-133 0 -138 86 -270 86c-84 0 -126 -51 -126 -51z" />
    <glyph glyph-name="nbspace" unicode="&#xa0;" horiz-adv-x="340" 
 />
    <glyph glyph-name="exclamdown" unicode="&#xa1;" horiz-adv-x="314" 
d="M157 428c-8 8 -11 18 -11 28c0 14 7 30 20 40c11 8 24 12 37 12s25 -4 34 -12c7 -7 11 -17 11 -27c0 -15 -7 -30 -21 -41c-11 -8 -24 -12 -37 -12s-25 4 -33 12zM44 -250l14 91l80 447h65l-61 -447l-13 -91h-85z" />
    <glyph glyph-name="cent" unicode="&#xa2;" horiz-adv-x="483" 
d="M211 -50l13 108c-103 20 -173 99 -173 218c0 183 82 295 234 304l20 120h61l-16 -124c39 -9 65 -27 82 -42l14 37h52l-22 -169h-62l6 78c-11 16 -38 42 -99 42c-124 0 -186 -73 -186 -242c0 -109 71 -168 157 -168c91 0 129 60 129 60l41 -28s-43 -87 -174 -91l-16 -103
h-61z" />
    <glyph glyph-name="sterling" unicode="&#xa3;" horiz-adv-x="584" 
d="M493 509l3 53c-12 12 -42 35 -91 35c-69 0 -118 -40 -129 -118c-8 -47 -12 -96 -17 -143h256l-7 -63h-256c-10 -81 -26 -155 -68 -206h296l20 78l56 -4l-26 -141h-507l10 67h44c69 40 86 116 94 206l-106 2l5 61h105c3 47 5.13281 96.9795 13 147
c17.293 109.954 91 180 201 180c56 0 96 -26 118 -45l14 36h46l-16 -145h-58z" />
    <glyph glyph-name="currency" unicode="&#xa4;" horiz-adv-x="623" 
d="M310 183c83 0 146 60 146 154c0 68 -41 108 -104 108c-85 0 -147 -60 -147 -153c0 -68 39 -109 105 -109zM66 53l-25 37l133 110c-14 24 -22 53 -22 87c0 57 21 107 55 143l-96 109l37 37l91 -118c34 24 75 37 120 37c41 0 76 -14 102 -37l132 117l25 -37l-133 -110
c15 -24 23 -53 23 -87c0 -58 -21 -107 -55 -144l95 -108l-36 -37l-91 117c-34 -23 -75 -36 -118 -36s-79 14 -105 38z" />
    <glyph glyph-name="yen" unicode="&#xa5;" horiz-adv-x="632" 
d="M30 594l5 56h242l-8 -56l-53 -2l129 -252l205 251l-49 2l8 57h226l-9 -60l-92 -2l-202 -248h117l-7 -47h-149l-18 -23l-10 -64h164l-6 -47h-166l-15 -97l78 -2l-9 -60h-238l5 60l80 3l15 96h-164l3 47h168l10 63l-13 24h-149l3 47h122l-131 251z" />
    <glyph glyph-name="brokenbar" unicode="&#xa6;" horiz-adv-x="333" 
d="M153 350l63 400h74l-63 -400h-74zM61 -250l62 400h74l-62 -400h-74z" />
    <glyph glyph-name="section" unicode="&#xa7;" horiz-adv-x="559" 
d="M162 305c0 -87 145 -91 230 -139c31 14 64 41 64 96c0 81 -146 86 -234 137c-30 -13 -60 -39 -60 -94zM461 513l3 54c-13 12 -46 37 -97 37c-102 0 -125 -66 -125 -104c0 -114 285 -76 285 -231c0 -72 -55 -114 -95 -136c12 -15 20 -34 20 -58c0 -79 -38 -168 -232 -168
c-126 0 -168 24 -168 24l18 149l58 4l-4 -111c24 -4 55 -7 97 -7c125 0 145 60 145 101c0 110 -274 69 -274 230c0 72 51 113 89 134c-15 18 -25 41 -25 70c0 72 54 162 195 162c57 0 102 -26 126 -43l16 34h47l-18 -141h-61z" />
    <glyph glyph-name="dieresis" unicode="&#xa8;" horiz-adv-x="428" 
d="M122 614c-15 16 -10 45 8 61c9 6 20 10 31 10s22 -4 29 -10c15 -16 11 -45 -8 -61c-9 -7 -21 -10 -32 -10s-21 3 -28 10zM298 614c-14 16 -11 45 9 61c9 6 20 10 31 10s21 -4 29 -10c13 -16 10 -45 -9 -61c-9 -7 -21 -10 -32 -10s-21 3 -28 10z" />
    <glyph glyph-name="copyright" unicode="&#xa9;" horiz-adv-x="841" 
d="M519 367l4 56c-7 11 -26 30 -65 30c-76 0 -132 -49 -132 -147c0 -73 47 -120 112 -120c68 0 108 49 108 49l18 -35s-46 -63 -135 -63c-92 0 -159 65 -159 167c0 122 78 196 184 196c43 0 68 -19 80 -33l13 29l38 -1l-16 -128h-50zM403 31c175 0 289 103 318 288
c3 21 5 42 5 61c0 148 -96 238 -251 238c-201 0 -321 -135 -321 -346c0 -149 96 -241 249 -241zM98 272c0 237 143 391 383 391c190 0 300 -109 300 -280c0 -22 -1 -45 -5 -68c-32 -208 -166 -329 -379 -329c-188 0 -299 114 -299 286z" />
    <glyph glyph-name="ordfeminine" unicode="&#xaa;" horiz-adv-x="445" 
d="M223 354c71 0 104 54 109 62l13 83c-97 -7 -203 -21 -203 -92c0 -35 27 -53 81 -53zM331 320l-4 53c-8 -12 -50 -63 -136 -63c-82 0 -122 32 -122 86c0 114 181 134 282 140l3 19c8 53 -14 78 -80 78c-73 0 -118 -38 -118 -38l-20 34s45 51 155 51c91 0 137 -30 137 -98
c0 -9 -1 -19 -3 -30l-36 -232h-58z" />
    <glyph glyph-name="guillemotleft" unicode="&#xab;" horiz-adv-x="555" 
d="M434 74l-144 176l197 171l28 -37l-152 -135l109 -137zM248 74l-144 176l197 171l28 -37l-152 -135l109 -137z" />
    <glyph glyph-name="logicalnot" unicode="&#xac;" horiz-adv-x="511" 
d="M75 287l9 61h389l-8 -61h-1l-24 -166h-65l25 166h-325z" />
    <glyph glyph-name="uni00AD" unicode="&#xad;" horiz-adv-x="353" 
d="M54 247l5 61h266l-9 -61h-262z" />
    <glyph glyph-name="registered" unicode="&#xae;" horiz-adv-x="709" 
d="M416 577h-52l-20 -127h51c50 0 96 21 96 79c0 34 -26 48 -75 48zM449 294l-52 125h-58l-19 -125h-44l49 317h95c77 0 119 -22 119 -76c0 -63 -39 -98 -94 -111l54 -130h-50zM635 453c3 20 5 39 5 57c0 129 -81 205 -215 205c-180 0 -275 -129 -275 -313
c0 -131 80 -207 214 -207c154 0 246 94 271 258zM690 453c-27.2207 -182.967 -145 -303 -332 -303c-165 0 -263 99 -263 251c0 210 129 356 336 356c162 0 264 -95 264 -246c0 -19 -2.02441 -37.9961 -5 -58z" />
    <glyph glyph-name="macron" unicode="&#xaf;" horiz-adv-x="453" 
d="M187 633l6 42h213l-7 -42h-212z" />
    <glyph glyph-name="degree" unicode="&#xb0;" horiz-adv-x="470" 
d="M273 442c82 0 139 62 139 160c0 62 -34 103 -97 103c-83 0 -138 -61 -138 -161c0 -61 33 -102 96 -102zM265 385c-101 0 -155 62 -155 155c0 129 84 222 213 222c99 0 155 -63 155 -158c0 -127 -82 -219 -213 -219z" />
    <glyph glyph-name="plusminus" unicode="&#xb1;" horiz-adv-x="538" 
d="M32 144l4 61h466l-8 -61h-462zM122 495l4 61h168l26 167h64l-26 -167h162l-8 -61h-163l-25 -167h-65l26 167h-163z" />
    <glyph glyph-name="twosuperior" unicode="&#xb2;" horiz-adv-x="463" 
d="M129 624l22 129h43l3 -35c27 19 70 43 125 43c96 0 139 -55 139 -128c0 -131 -191 -271 -301 -340h208l16 60l51 -4l-21 -119h-358l9 61c4 2 314 198 314 335c0 47 -25 75 -87 75c-50 0 -86 -27 -101 -40l-9 -37h-53z" />
    <glyph glyph-name="threesuperior" unicode="&#xb3;" horiz-adv-x="462" 
d="M70 243l12 104l50 3l-3 -64c18 -6 41 -10 77 -10c100 0 159 51 159 122c0 47 -31 81 -92 81c-32 0 -53 -14 -58 -17l-1 -1l-30 36l193 192h-177l-15 -64h-51l22 128l59 -3h256l-6 -43l-179 -175h11c84 0 139 -52 139 -129c0 -117 -99 -185 -235 -185
c-92 0 -131 25 -131 25z" />
    <glyph glyph-name="acute" unicode="&#xb4;" horiz-adv-x="236" 
d="M173 572l-56 4l116 143l77 -8z" />
    <glyph glyph-name="uni00B5" unicode="&#xb5;" horiz-adv-x="602" 
d="M416 440l4 60h144l-62 -395c-3 -42 10 -46 23 -46c16 0 47 2 47 2l-3 -56s-51 -11 -100 -11c-33 0 -50 11 -49 53h-2s-58 -61 -181 -61c-38 0 -70 8 -94 22l-40 -258h-81l61 388c1 8 1 15 3 23l42 276l-56 3l5 60h142l-34 -217l-11 -69l-8 -49c-5 -66 33 -110 108 -110
c95 0 148 50 148 50l51 332z" />
    <glyph glyph-name="paragraph" unicode="&#xb6;" horiz-adv-x="712" 
d="M480 0l90 581h-110l-91 -581h-80l39 244c-153 0 -237 57 -237 179c0 155 90 227 314 227h324l-9 -69h-68l-90 -581h-82z" />
    <glyph glyph-name="periodcentered" unicode="&#xb7;" horiz-adv-x="275" 
d="M117 303c-8 8 -11 18 -11 28c0 14 7 30 20 40c11 8 24 12 37 12s25 -4 34 -12c7 -7 11 -17 11 -27c0 -15 -7 -30 -21 -41c-11 -8 -24 -12 -37 -12s-25 4 -33 12z" />
    <glyph glyph-name="cedilla" unicode="&#xb8;" horiz-adv-x="266" 
d="M-24 -214l19 31s28 -30 79 -30c56 0 80 26 80 64c1 52 -91 53 -91 59l25 87h42l-18 -65c-1 -5 97 -12 97 -79c0 -61 -43 -104 -129 -104c-73 0 -104 37 -104 37z" />
    <glyph glyph-name="onesuperior" unicode="&#xb9;" horiz-adv-x="463" 
d="M178 624l-14 53l156 73h62l-71 -463l93 -2l-11 -55h-268l4 55l109 5l60 389z" />
    <glyph glyph-name="ordmasculine" unicode="&#xba;" horiz-adv-x="482" 
d="M159 460c0 -66 34 -105 106 -105c98 0 151 63 151 175c0 65 -35 103 -107 103c-99 0 -150 -61 -150 -173zM85 462c0 129 77 218 231 218c116 0 173 -59 173 -152c0 -131 -82 -218 -230 -218c-118 0 -174 58 -174 152z" />
    <glyph glyph-name="guillemotright" unicode="&#xbb;" horiz-adv-x="553" 
d="M272 74l-29 37l152 134l-109 137l38 39l143 -177zM84 74l-29 37l152 134l-109 137l38 39l143 -177z" />
    <glyph glyph-name="onequarter" unicode="&#xbc;" horiz-adv-x="902" 
d="M429 -122l2 45c56 80 134 212 189 340l68 -8c-55 -124 -122 -237 -177 -321h175l26 161l23 84h62l-38 -245h62l-7 -52l-64 -4l-14 -89l45 -3l-8 -51h-166l4 51l51 2l15 90h-248zM283 24l435 561l46 -27l-435 -562zM178 624l-14 53l156 73h62l-71 -463l93 -2l-11 -55h-268
l4 55l109 5l60 389z" />
    <glyph glyph-name="onehalf" unicode="&#xbd;" horiz-adv-x="965" 
d="M553 129l22 129h43l3 -35c27 19 70 43 125 43c96 0 139 -55 139 -128c0 -131 -191 -270 -301 -340h208l16 60l51 -4l-21 -119h-358l9 61c4 2 314 198 314 335c0 47 -25 75 -87 75c-50 0 -86 -27 -101 -40l-9 -37h-53zM283 24l435 561l46 -27l-435 -562zM178 624l-14 53
l156 73h62l-71 -463l93 -2l-11 -55h-268l4 55l109 5l60 389z" />
    <glyph glyph-name="threequarters" unicode="&#xbe;" horiz-adv-x="895" 
d="M422 -122l2 45c56 80 134 212 189 340l68 -8c-55 -124 -122 -237 -177 -321h175l26 161l23 84h62l-38 -245h62l-7 -52l-64 -4l-14 -89l45 -3l-8 -51h-166l4 51l51 2l15 90h-248zM276 24l435 561l46 -27l-435 -562zM70 243l12 104l50 3l-3 -64c18 -6 41 -10 77 -10
c100 0 159 51 159 122c0 47 -31 81 -92 81c-32 0 -53 -14 -58 -17l-1 -1l-30 36l193 192h-177l-15 -64h-51l22 128l59 -3h256l-6 -43l-179 -175h11c84 0 139 -52 139 -129c0 -117 -99 -185 -235 -185c-92 0 -131 25 -131 25z" />
    <glyph glyph-name="questiondown" unicode="&#xbf;" horiz-adv-x="471" 
d="M306 428c-8 8 -11 18 -11 28c0 14 7 30 20 40c11 8 24 12 37 12s25 -4 34 -12c7 -7 11 -17 11 -27c0 -15 -7 -30 -21 -41c-11 -8 -24 -12 -37 -12s-25 4 -33 12zM370 -93l-26 -152s-46 -19 -133 -19c-141 0 -208 63 -208 142c0 235 311 159 295 407l47 4
c2 -14 2 -28 2 -40c0 -235 -262 -181 -262 -356c0 -47 33 -93 131 -93c27 0 54 5 75 10l22 101z" />
    <glyph glyph-name="Agrave" unicode="&#xc0;" horiz-adv-x="694" 
d="M465 712l-58 -5l-93 139l78 9zM404 582l-174 -327h245zM-38 0l5 60l80 3l316 587h111l134 -591l76 -3l-8 -56h-227l7 48l67 2l-36 150h-287l-80 -148l68 -2l-7 -50h-219z" />
    <glyph glyph-name="Aacute" unicode="&#xc1;" horiz-adv-x="694" 
d="M441 707l-56 4l116 143l77 -8zM404 582l-174 -327h245zM-38 0l5 60l80 3l316 587h111l134 -591l76 -3l-8 -56h-227l7 48l67 2l-36 150h-287l-80 -148l68 -2l-7 -50h-219z" />
    <glyph glyph-name="Acircumflex" unicode="&#xc2;" horiz-adv-x="694" 
d="M301 729l-19 48l148 101h44l117 -101l-33 -48l-114 95zM404 582l-174 -327h245zM-38 0l5 60l80 3l316 587h111l134 -591l76 -3l-8 -56h-227l7 48l67 2l-36 150h-287l-80 -148l68 -2l-7 -50h-219z" />
    <glyph glyph-name="Atilde" unicode="&#xc3;" horiz-adv-x="694" 
d="M270 743l-3 47s29 47 100 47c73 0 114 -51 173 -51c43 0 68 21 68 21l4 -42s-19 -38 -86 -38c-68 0 -111 49 -173 49c-46 0 -83 -33 -83 -33zM404 582l-174 -327h245zM-38 0l5 60l80 3l316 587h111l134 -591l76 -3l-8 -56h-227l7 48l67 2l-36 150h-287l-80 -148l68 -2
l-7 -50h-219z" />
    <glyph glyph-name="Adieresis" unicode="&#xc4;" horiz-adv-x="694" 
d="M315 749c-15 16 -10 45 8 61c9 6 20 10 31 10s22 -4 29 -10c15 -16 11 -45 -8 -61c-9 -7 -21 -10 -32 -10s-21 3 -28 10zM491 749c-14 16 -11 45 9 61c9 6 20 10 31 10s21 -4 29 -10c13 -16 10 -45 -9 -61c-9 -7 -21 -10 -32 -10s-21 3 -28 10zM404 582l-174 -327h245z
M-38 0l5 60l80 3l316 587h111l134 -591l76 -3l-8 -56h-227l7 48l67 2l-36 150h-287l-80 -148l68 -2l-7 -50h-219z" />
    <glyph glyph-name="Aring" unicode="&#xc5;" horiz-adv-x="694" 
d="M434 758c40 0 74 32 74 78c0 34 -22 57 -52 57c-40 0 -76 -32 -76 -79c0 -34 23 -56 54 -56zM429 722c-53 0 -87 35 -87 87c0 70 54 120 118 120c51 0 87 -37 87 -89c0 -69 -53 -118 -118 -118zM404 582l-174 -327h245zM-38 0l5 60l80 3l316 587h111l134 -591l76 -3
l-8 -56h-227l7 48l67 2l-36 150h-287l-80 -148l68 -2l-7 -50h-219z" />
    <glyph glyph-name="AE" unicode="&#xc6;" horiz-adv-x="909" 
d="M242 255h207l52 330h-7zM830 505l6 80h-252l-35 -226l294 1l-10 -63h-294l-36 -232h281l21 90l61 -4l-26 -151h-505l2 45l80 2l24 153h-242l-120 -152l59 -2l-6 -46h-227l5 60l95 3l424 527l-80 3l4 57h489l73 4l-19 -149h-66z" />
    <glyph glyph-name="Ccedilla" unicode="&#xc7;" horiz-adv-x="659" 
d="M197 -214l19 31s28 -30 79 -30c56 0 80 26 80 64c1 52 -91 53 -91 59l23 82c-144 23 -237 130 -237 288c0 228 154 383 357 383c75 0 130 -33 158 -55l19 46h51l-30 -225h-63l12 121c-18 13 -67 45 -139 45c-154 0 -279 -109 -279 -316c0 -144 97 -225 225 -225
c137 0 211 95 211 95l34 -45s-80 -118 -255 -118c-8 0 -16 0 -23 1l-15 -55c-1 -5 97 -12 97 -79c0 -61 -43 -104 -129 -104c-73 0 -104 37 -104 37z" />
    <glyph glyph-name="Egrave" unicode="&#xc8;" 
d="M442 712l-58 -5l-93 139l78 9zM511 505l6 80h-251l-35 -226l293 1l-9 -63h-294l-36 -232h280l22 90l61 -4l-27 -151h-505l5 60l80 3l82 528l-79 3l4 56h415l73 4l-9 -69l-10 -80h-66z" />
    <glyph glyph-name="Eacute" unicode="&#xc9;" 
d="M416 707l-56 4l116 143l77 -8zM511 505l6 80h-251l-35 -226l293 1l-9 -63h-294l-36 -232h280l22 90l61 -4l-27 -151h-505l5 60l80 3l82 528l-79 3l4 56h415l73 4l-9 -69l-10 -80h-66z" />
    <glyph glyph-name="Ecircumflex" unicode="&#xca;" 
d="M277 729l-19 48l148 101h44l117 -101l-33 -48l-114 95zM511 505l6 80h-251l-35 -226l293 1l-9 -63h-294l-36 -232h280l22 90l61 -4l-27 -151h-505l5 60l80 3l82 528l-79 3l4 56h415l73 4l-9 -69l-10 -80h-66z" />
    <glyph glyph-name="Edieresis" unicode="&#xcb;" 
d="M290 749c-15 16 -10 45 8 61c9 6 20 10 31 10s22 -4 29 -10c15 -16 11 -45 -8 -61c-9 -7 -21 -10 -32 -10s-21 3 -28 10zM466 749c-14 16 -11 45 9 61c9 6 20 10 31 10s21 -4 29 -10c13 -16 10 -45 -9 -61c-9 -7 -21 -10 -32 -10s-21 3 -28 10zM511 505l6 80h-251
l-35 -226l293 1l-9 -63h-294l-36 -232h280l22 90l61 -4l-27 -151h-505l5 60l80 3l82 528l-79 3l4 56h415l73 4l-9 -69l-10 -80h-66z" />
    <glyph glyph-name="Igrave" unicode="&#xcc;" horiz-adv-x="327" 
d="M280 712l-58 -5l-93 139l78 9zM104 594l4 56h245l-9 -60l-78 -3l-82 -528l78 -3l-8 -56h-238l5 60l80 3l82 528z" />
    <glyph glyph-name="Iacute" unicode="&#xcd;" horiz-adv-x="327" 
d="M255 707l-56 4l116 143l77 -8zM104 594l4 56h245l-9 -60l-78 -3l-82 -528l78 -3l-8 -56h-238l5 60l80 3l82 528z" />
    <glyph glyph-name="Icircumflex" unicode="&#xce;" horiz-adv-x="327" 
d="M115 729l-19 48l148 101h44l117 -101l-33 -48l-114 95zM104 594l4 56h245l-9 -60l-78 -3l-82 -528l78 -3l-8 -56h-238l5 60l80 3l82 528z" />
    <glyph glyph-name="Idieresis" unicode="&#xcf;" horiz-adv-x="327" 
d="M129 749c-15 16 -10 45 8 61c9 6 20 10 31 10s22 -4 29 -10c15 -16 11 -45 -8 -61c-9 -7 -21 -10 -32 -10s-21 3 -28 10zM305 749c-14 16 -11 45 9 61c9 6 20 10 31 10s21 -4 29 -10c13 -16 10 -45 -9 -61c-9 -7 -21 -10 -32 -10s-21 3 -28 10zM104 594l4 56h245l-9 -60
l-78 -3l-82 -528l78 -3l-8 -56h-238l5 60l80 3l82 528z" />
    <glyph glyph-name="Eth" unicode="&#xd0;" horiz-adv-x="743" 
d="M405 582h-140l-36 -232h209l-8 -54h-210l-35 -228h147c180 0 298 111 298 320c0 132 -86 194 -225 194zM44 296l4 54h97l38 241l-79 3l4 56h306c188 0 303 -86 303 -258c0 -239 -146 -392 -395 -392h-306l5 60l80 3l36 233h-93z" />
    <glyph glyph-name="Ntilde" unicode="&#xd1;" horiz-adv-x="781" 
d="M322 743l-3 47s29 47 100 47c73 0 114 -51 173 -51c43 0 68 21 68 21l4 -42s-19 -38 -86 -38c-68 0 -111 49 -173 49c-46 0 -83 -33 -83 -33zM550 -6l-300 537h-1v-31l-71 -439l79 -4l-8 -57h-233l5 60l80 3l82 528l-79 3l4 56h172l297 -545l1 24l72 460l-79 4l4 57h240
l-9 -60l-77 -3l-92 -593h-87z" />
    <glyph glyph-name="Ograve" unicode="&#xd2;" horiz-adv-x="754" 
d="M495 712l-58 -5l-93 139l78 9zM353 54c150 0 256 113 282 280c4 22 5 43 5 63c0 127 -73 198 -201 198c-173 0 -283 -117 -283 -315c0 -133 70 -226 197 -226zM722 334c-32.5459 -206.914 -174 -348 -379 -348c-176 0 -273 120 -273 291c0 238 146 386 378 386
c179 0 280 -95 280 -258c0 -22 -2.06641 -45.9893 -6 -71z" />
    <glyph glyph-name="Oacute" unicode="&#xd3;" horiz-adv-x="754" 
d="M469 707l-56 4l116 143l77 -8zM353 54c150 0 256 113 282 280c4 22 5 43 5 63c0 127 -73 198 -201 198c-173 0 -283 -117 -283 -315c0 -133 70 -226 197 -226zM722 334c-32.5459 -206.914 -174 -348 -379 -348c-176 0 -273 120 -273 291c0 238 146 386 378 386
c179 0 280 -95 280 -258c0 -22 -2.06641 -45.9893 -6 -71z" />
    <glyph glyph-name="Ocircumflex" unicode="&#xd4;" horiz-adv-x="754" 
d="M329 729l-19 48l148 101h44l117 -101l-33 -48l-114 95zM353 54c150 0 256 113 282 280c4 22 5 43 5 63c0 127 -73 198 -201 198c-173 0 -283 -117 -283 -315c0 -133 70 -226 197 -226zM722 334c-32.5459 -206.914 -174 -348 -379 -348c-176 0 -273 120 -273 291
c0 238 146 386 378 386c179 0 280 -95 280 -258c0 -22 -2.06641 -45.9893 -6 -71z" />
    <glyph glyph-name="Otilde" unicode="&#xd5;" horiz-adv-x="754" 
d="M299 743l-3 47s29 47 100 47c73 0 114 -51 173 -51c43 0 68 21 68 21l4 -42s-19 -38 -86 -38c-68 0 -111 49 -173 49c-46 0 -83 -33 -83 -33zM353 54c150 0 256 113 282 280c4 22 5 43 5 63c0 127 -73 198 -201 198c-173 0 -283 -117 -283 -315c0 -133 70 -226 197 -226z
M722 334c-32.5459 -206.914 -174 -348 -379 -348c-176 0 -273 120 -273 291c0 238 146 386 378 386c179 0 280 -95 280 -258c0 -22 -2.06641 -45.9893 -6 -71z" />
    <glyph glyph-name="Odieresis" unicode="&#xd6;" horiz-adv-x="754" 
d="M344 749c-15 16 -10 45 8 61c9 6 20 10 31 10s22 -4 29 -10c15 -16 11 -45 -8 -61c-9 -7 -21 -10 -32 -10s-21 3 -28 10zM520 749c-14 16 -11 45 9 61c9 6 20 10 31 10s21 -4 29 -10c13 -16 10 -45 -9 -61c-9 -7 -21 -10 -32 -10s-21 3 -28 10zM353 54
c150 0 256 113 282 280c4 22 5 43 5 63c0 127 -73 198 -201 198c-173 0 -283 -117 -283 -315c0 -133 70 -226 197 -226zM722 334c-32.5459 -206.914 -174 -348 -379 -348c-176 0 -273 120 -273 291c0 238 146 386 378 386c179 0 280 -95 280 -258
c0 -22 -2.06641 -45.9893 -6 -71z" />
    <glyph glyph-name="multiply" unicode="&#xd7;" horiz-adv-x="402" 
d="M41 204l133 116l-97 117l52 48l99 -118l135 118l38 -48l-134 -118l97 -115l-52 -49l-98 117l-133 -117z" />
    <glyph glyph-name="Oslash" unicode="&#xd8;" horiz-adv-x="754" 
d="M353 54c150 0 256 113 282 280c4 22 5 43 5 63c0 74 -25 129 -71 162l-296 -491c24 -9 50 -14 80 -14zM243 84l296 492c-28 12 -62 19 -100 19c-173 0 -283 -117 -283 -315c0 -88 30 -158 87 -196zM722 334c-32.5459 -206.914 -174 -348 -379 -348c-40 0 -76 7 -108 18
l-60 -105l-36 6c22 39 43 76 65 112c-88 47 -134 141 -134 260c0 238 146 386 378 386c50 0 94 -8 132 -22l55 87l36 -6l-60 -95c76 -42 117 -118 117 -222c0 -22 -2.06641 -45.9893 -6 -71z" />
    <glyph glyph-name="Ugrave" unicode="&#xd9;" horiz-adv-x="735" 
d="M502 712l-58 -5l-93 139l78 9zM532 593l5 57h242l-8 -56l-78 -3l-57 -369c-20 -126 -116 -236 -300 -236c-163 0 -232 86 -232 193c0 14 2 28 4 43l57 369l-79 3l4 56h244l-7 -56l-78 -3l-55 -352c-2 -13 -3 -25 -3 -37c0 -82 49 -143 156 -143c124 0 194 80 210 180
l54 350z" />
    <glyph glyph-name="Uacute" unicode="&#xda;" horiz-adv-x="735" 
d="M442 707l-56 4l116 143l77 -8zM532 593l5 57h242l-8 -56l-78 -3l-57 -369c-20 -126 -116 -236 -300 -236c-163 0 -232 86 -232 193c0 14 2 28 4 43l57 369l-79 3l4 56h244l-7 -56l-78 -3l-55 -352c-2 -13 -3 -25 -3 -37c0 -82 49 -143 156 -143c124 0 194 80 210 180
l54 350z" />
    <glyph glyph-name="Ucircumflex" unicode="&#xdb;" horiz-adv-x="735" 
d="M317 729l-19 48l148 101h44l117 -101l-33 -48l-114 95zM532 593l5 57h242l-8 -56l-78 -3l-57 -369c-20 -126 -116 -236 -300 -236c-163 0 -232 86 -232 193c0 14 2 28 4 43l57 369l-79 3l4 56h244l-7 -56l-78 -3l-55 -352c-2 -13 -3 -25 -3 -37c0 -82 49 -143 156 -143
c124 0 194 80 210 180l54 350z" />
    <glyph glyph-name="Udieresis" unicode="&#xdc;" horiz-adv-x="735" 
d="M331 749c-15 16 -10 45 8 61c9 6 20 10 31 10s22 -4 29 -10c15 -16 11 -45 -8 -61c-9 -7 -21 -10 -32 -10s-21 3 -28 10zM507 749c-14 16 -11 45 9 61c9 6 20 10 31 10s21 -4 29 -10c13 -16 10 -45 -9 -61c-9 -7 -21 -10 -32 -10s-21 3 -28 10zM532 593l5 57h242l-8 -56
l-78 -3l-57 -369c-20 -126 -116 -236 -300 -236c-163 0 -232 86 -232 193c0 14 2 28 4 43l57 369l-79 3l4 56h244l-7 -56l-78 -3l-55 -352c-2 -13 -3 -25 -3 -37c0 -82 49 -143 156 -143c124 0 194 80 210 180l54 350z" />
    <glyph glyph-name="Yacute" unicode="&#xdd;" horiz-adv-x="632" 
d="M429 707l-56 4l116 143l77 -8zM30 594l5 56h242l-8 -56l-53 -2l129 -252l205 251l-49 2l8 57h226l-9 -60l-92 -2l-259 -318l-33 -208l78 -2l-9 -60h-238l5 60l80 3l32 206l-168 322z" />
    <glyph glyph-name="Thorn" unicode="&#xde;" horiz-adv-x="584" 
d="M334 471h-92l-47 -304h90c103 0 194 56 194 191c0 82 -55 113 -145 113zM104 594l4 56h162l-18 -114h98c134 0 213 -53 213 -169c0 -190 -150 -263 -279 -263h-99l-16 -104h-153l5 60l80 3l82 528z" />
    <glyph glyph-name="germandbls" unicode="&#xdf;" horiz-adv-x="625" 
d="M-129 -246l30 64s22 -10 56 -10c43 0 94 51 111 157l91 592c23 144 110 202 240 202c108 0 171 -34 171 -119c0 -87 -64 -134 -122 -160c98 -24 149 -85 149 -189c0 -190 -102 -305 -261 -305c-106 0 -128 32 -128 32l19 50s24 -21 95 -21c115 0 192 88 192 241
c0 104 -59 147 -194 147v1l7 60s162 10 162 128c0 54 -37 74 -101 74c-83 0 -132 -45 -148 -141l-92 -592c-25.0195 -160.997 -117 -229 -192 -229c-69 0 -85 18 -85 18z" />
    <glyph glyph-name="agrave" unicode="&#xe0;" horiz-adv-x="598" 
d="M379 577l-58 -5l-93 139l78 9zM269 48c92 0 142 67 147 74l44 284c-3 5 -36 47 -117 47c-148 0 -216 -94 -216 -253c0 -97 53 -152 142 -152zM553 500l-57 -374c-1.98145 -13.0029 -3 -24 -3 -33c0 -31 12 -34 23 -34c16 0 48 2 48 2l-4 -56s-51 -11 -99 -11
c-38 0 -56 15 -50 67c-5 -6 -59 -75 -175 -75c-117 0 -191 85 -191 215c0 180 102 313 284 313c106 0 142 -51 142 -51l19 37h63z" />
    <glyph glyph-name="aacute" unicode="&#xe1;" horiz-adv-x="598" 
d="M355 572l-56 4l116 143l77 -8zM269 48c92 0 142 67 147 74l44 284c-3 5 -36 47 -117 47c-148 0 -216 -94 -216 -253c0 -97 53 -152 142 -152zM553 500l-57 -374c-1.98145 -13.0029 -3 -24 -3 -33c0 -31 12 -34 23 -34c16 0 48 2 48 2l-4 -56s-51 -11 -99 -11
c-38 0 -56 15 -50 67c-5 -6 -59 -75 -175 -75c-117 0 -191 85 -191 215c0 180 102 313 284 313c106 0 142 -51 142 -51l19 37h63z" />
    <glyph glyph-name="acircumflex" unicode="&#xe2;" horiz-adv-x="598" 
d="M214 594l-19 48l148 101h44l117 -101l-33 -48l-114 95zM269 48c92 0 142 67 147 74l44 284c-3 5 -36 47 -117 47c-148 0 -216 -94 -216 -253c0 -97 53 -152 142 -152zM553 500l-57 -374c-1.98145 -13.0029 -3 -24 -3 -33c0 -31 12 -34 23 -34c16 0 48 2 48 2l-4 -56
s-51 -11 -99 -11c-38 0 -56 15 -50 67c-5 -6 -59 -75 -175 -75c-117 0 -191 85 -191 215c0 180 102 313 284 313c106 0 142 -51 142 -51l19 37h63z" />
    <glyph glyph-name="atilde" unicode="&#xe3;" horiz-adv-x="598" 
d="M184 608l-3 47s29 47 100 47c73 0 114 -51 173 -51c43 0 68 21 68 21l4 -42s-19 -38 -86 -38c-68 0 -111 49 -173 49c-46 0 -83 -33 -83 -33zM269 48c92 0 142 67 147 74l44 284c-3 5 -36 47 -117 47c-148 0 -216 -94 -216 -253c0 -97 53 -152 142 -152zM553 500
l-57 -374c-1.98145 -13.0029 -3 -24 -3 -33c0 -31 12 -34 23 -34c16 0 48 2 48 2l-4 -56s-51 -11 -99 -11c-38 0 -56 15 -50 67c-5 -6 -59 -75 -175 -75c-117 0 -191 85 -191 215c0 180 102 313 284 313c106 0 142 -51 142 -51l19 37h63z" />
    <glyph glyph-name="adieresis" unicode="&#xe4;" horiz-adv-x="598" 
d="M404 614c-14 16 -11 45 9 61c9 6 20 10 31 10s21 -4 29 -10c13 -16 10 -45 -9 -61c-9 -7 -21 -10 -32 -10s-21 3 -28 10zM228 614c-15 16 -10 45 8 61c9 6 20 10 31 10s22 -4 29 -10c15 -16 11 -45 -8 -61c-9 -7 -21 -10 -32 -10s-21 3 -28 10zM269 48
c92 0 142 67 147 74l44 284c-3 5 -36 47 -117 47c-148 0 -216 -94 -216 -253c0 -97 53 -152 142 -152zM553 500l-57 -374c-1.98145 -13.0029 -3 -24 -3 -33c0 -31 12 -34 23 -34c16 0 48 2 48 2l-4 -56s-51 -11 -99 -11c-38 0 -56 15 -50 67c-5 -6 -59 -75 -175 -75
c-117 0 -191 85 -191 215c0 180 102 313 284 313c106 0 142 -51 142 -51l19 37h63z" />
    <glyph glyph-name="aring" unicode="&#xe5;" horiz-adv-x="598" 
d="M347 623c40 0 74 32 74 78c0 34 -22 57 -52 57c-40 0 -76 -32 -76 -79c0 -34 23 -56 54 -56zM342 587c-53 0 -87 35 -87 87c0 70 54 120 118 120c51 0 87 -37 87 -89c0 -69 -53 -118 -118 -118zM269 48c92 0 142 67 147 74l44 284c-3 5 -36 47 -117 47
c-148 0 -216 -94 -216 -253c0 -97 53 -152 142 -152zM553 500l-57 -374c-1.98145 -13.0029 -3 -24 -3 -33c0 -31 12 -34 23 -34c16 0 48 2 48 2l-4 -56s-51 -11 -99 -11c-38 0 -56 15 -50 67c-5 -6 -59 -75 -175 -75c-117 0 -191 85 -191 215c0 180 102 313 284 313
c106 0 142 -51 142 -51l19 37h63z" />
    <glyph glyph-name="ae" unicode="&#xe6;" horiz-adv-x="834" 
d="M210 42c99 0 141 106 155 158v1c0 15 1 30 3 45c-131 -6 -261 -14 -261 -120c0 -50 33 -84 103 -84zM640 455c-100 0 -170 -70 -190 -182c222 0 304 20 304 96c0 50 -39 86 -114 86zM745 113l42 -30s-53 -97 -201 -97c-98 0 -174 44 -206 125c-30 -59 -89 -125 -198 -125
c-102 0 -159 52 -159 128c0 163 226 174 354 183l5 34c2 15 4 29 4 41c0 58 -29 82 -95 82c-60 0 -102 -35 -115 -47l-10 -47h-57l23 144h47l2 -31c28 18 73 41 128 41c76 0 123 -28 137 -90c50 56 119 90 202 90c107 0 178 -56 178 -141c0 -118 -112 -150 -382 -150v-21
c0 -101 66 -155 153 -155c104 0 148 66 148 66z" />
    <glyph glyph-name="ccedilla" unicode="&#xe7;" horiz-adv-x="483" 
d="M111 -214l19 31s28 -30 79 -30c56 0 80 26 80 64c1 52 -91 53 -91 59l23 81c-105 19 -176 98 -176 218c0 191 90 305 255 305c63 0 104 -27 126 -47l14 37h52l-22 -169h-62l6 78c-11 16 -38 42 -99 42c-124 0 -186 -73 -186 -242c0 -109 71 -168 157 -168
c91 0 129 60 129 60l41 -28s-45 -91 -184 -91h-10l-15 -54c-1 -5 97 -12 97 -79c0 -61 -43 -104 -129 -104c-73 0 -104 37 -104 37z" />
    <glyph glyph-name="egrave" unicode="&#xe8;" horiz-adv-x="513" 
d="M377 577l-58 -5l-93 139l78 9zM320 455c-100 0 -170 -70 -190 -182c222 0 304 20 304 96c0 50 -39 86 -114 86zM425 113l42 -30s-53 -97 -201 -97c-129 0 -221 76 -221 215c0 173 116 313 283 313c107 0 178 -56 178 -141c0 -118 -112 -150 -382 -150v-21
c0 -101 66 -155 153 -155c104 0 148 66 148 66z" />
    <glyph glyph-name="eacute" unicode="&#xe9;" horiz-adv-x="513" 
d="M352 572l-56 4l116 143l77 -8zM320 455c-100 0 -170 -70 -190 -182c222 0 304 20 304 96c0 50 -39 86 -114 86zM425 113l42 -30s-53 -97 -201 -97c-129 0 -221 76 -221 215c0 173 116 313 283 313c107 0 178 -56 178 -141c0 -118 -112 -150 -382 -150v-21
c0 -101 66 -155 153 -155c104 0 148 66 148 66z" />
    <glyph glyph-name="ecircumflex" unicode="&#xea;" horiz-adv-x="513" 
d="M213 594l-19 48l148 101h44l117 -101l-33 -48l-114 95zM320 455c-100 0 -170 -70 -190 -182c222 0 304 20 304 96c0 50 -39 86 -114 86zM425 113l42 -30s-53 -97 -201 -97c-129 0 -221 76 -221 215c0 173 116 313 283 313c107 0 178 -56 178 -141
c0 -118 -112 -150 -382 -150v-21c0 -101 66 -155 153 -155c104 0 148 66 148 66z" />
    <glyph glyph-name="edieresis" unicode="&#xeb;" horiz-adv-x="513" 
d="M225 614c-15 16 -10 45 8 61c9 6 20 10 31 10s22 -4 29 -10c15 -16 11 -45 -8 -61c-9 -7 -21 -10 -32 -10s-21 3 -28 10zM401 614c-14 16 -11 45 9 61c9 6 20 10 31 10s21 -4 29 -10c13 -16 10 -45 -9 -61c-9 -7 -21 -10 -32 -10s-21 3 -28 10zM320 455
c-100 0 -170 -70 -190 -182c222 0 304 20 304 96c0 50 -39 86 -114 86zM425 113l42 -30s-53 -97 -201 -97c-129 0 -221 76 -221 215c0 173 116 313 283 313c107 0 178 -56 178 -141c0 -118 -112 -150 -382 -150v-21c0 -101 66 -155 153 -155c104 0 148 66 148 66z" />
    <glyph glyph-name="igrave" unicode="&#xec;" horiz-adv-x="259" 
d="M230 577l-58 -5l-93 139l78 9zM73 440l4 60h143l-62 -399c-1 -38 12 -42 24 -42c16 0 48 2 48 2l-4 -56s-51 -11 -99 -11c-34 0 -55 12 -55 56c0 8 0 18 2 29l56 358z" />
    <glyph glyph-name="iacute" unicode="&#xed;" horiz-adv-x="259" 
d="M205 572l-56 4l116 143l77 -8zM73 440l4 60h143l-62 -399c-1 -38 12 -42 24 -42c16 0 48 2 48 2l-4 -56s-51 -11 -99 -11c-34 0 -55 12 -55 56c0 8 0 18 2 29l56 358z" />
    <glyph glyph-name="icircumflex" unicode="&#xee;" horiz-adv-x="259" 
d="M65 594l-19 48l148 101h44l117 -101l-33 -48l-114 95zM73 440l4 60h143l-62 -399c-1 -38 12 -42 24 -42c16 0 48 2 48 2l-4 -56s-51 -11 -99 -11c-34 0 -55 12 -55 56c0 8 0 18 2 29l56 358z" />
    <glyph glyph-name="idieresis" unicode="&#xef;" horiz-adv-x="259" 
d="M78 614c-15 16 -10 45 8 61c9 6 20 10 31 10s22 -4 29 -10c15 -16 11 -45 -8 -61c-9 -7 -21 -10 -32 -10s-21 3 -28 10zM254 614c-14 16 -11 45 9 61c9 6 20 10 31 10s21 -4 29 -10c13 -16 10 -45 -9 -61c-9 -7 -21 -10 -32 -10s-21 3 -28 10zM73 440l4 60h143l-62 -399
c-1 -38 12 -42 24 -42c16 0 48 2 48 2l-4 -56s-51 -11 -99 -11c-34 0 -55 12 -55 56c0 8 0 18 2 29l56 358z" />
    <glyph glyph-name="eth" unicode="&#xf0;" horiz-adv-x="552" 
d="M264 45c107 0 197 106 197 269c0 85 -56 141 -142 141c-106 0 -193 -81 -193 -248c0 -94 54 -162 138 -162zM266 584l-11 30l117 56c-17 14 -34 27 -52 39l39 38c24 -14 48 -30 69 -49l94 45l11 -31l-80 -38c58 -61 98 -148 98 -275c0 -35 -3 -73 -9 -114h-1
c-20 -182 -136 -299 -284 -299c-136 0 -222 99 -211 242c10 183 127 286 276 286c61 0 124 -24 165 -70c-6 89 -40 153 -89 203z" />
    <glyph glyph-name="ntilde" unicode="&#xf1;" horiz-adv-x="595" 
d="M189 608l-3 47s29 47 100 47c73 0 114 -51 173 -51c43 0 68 21 68 21l4 -42s-19 -38 -86 -38c-68 0 -111 49 -173 49c-46 0 -83 -33 -83 -33zM417 79c0 0 41 258 42 265c12 72 -28 102 -107 102c-92 0 -145 -48 -149 -51l-61 -395h-80l67 437l-57 3l5 60h133l1 -44
c11 11 67 58 178 58c97 0 155 -35 155 -120c0 -11 -1 -23 -3 -35l-40 -257c-1 -39 12 -43 24 -43c16 0 48 2 48 2l-4 -56s-51 -11 -99 -11c-40 0 -63 17 -53 85z" />
    <glyph glyph-name="ograve" unicode="&#xf2;" horiz-adv-x="566" 
d="M385 577l-58 -5l-93 139l78 9zM264 45c131 0 201 100 201 260c0 93 -44 150 -137 150c-131 0 -201 -94 -201 -256c0 -94 44 -154 137 -154zM255 -14c-140 0 -210 85 -210 216c0 187 102 312 291 312c141 0 212 -79 212 -209c0 -186 -109 -319 -293 -319z" />
    <glyph glyph-name="oacute" unicode="&#xf3;" horiz-adv-x="566" 
d="M360 572l-56 4l116 143l77 -8zM264 45c131 0 201 100 201 260c0 93 -44 150 -137 150c-131 0 -201 -94 -201 -256c0 -94 44 -154 137 -154zM255 -14c-140 0 -210 85 -210 216c0 187 102 312 291 312c141 0 212 -79 212 -209c0 -186 -109 -319 -293 -319z" />
    <glyph glyph-name="ocircumflex" unicode="&#xf4;" horiz-adv-x="566" 
d="M219 594l-19 48l148 101h44l117 -101l-33 -48l-114 95zM264 45c131 0 201 100 201 260c0 93 -44 150 -137 150c-131 0 -201 -94 -201 -256c0 -94 44 -154 137 -154zM255 -14c-140 0 -210 85 -210 216c0 187 102 312 291 312c141 0 212 -79 212 -209
c0 -186 -109 -319 -293 -319z" />
    <glyph glyph-name="otilde" unicode="&#xf5;" horiz-adv-x="566" 
d="M189 608l-3 47s29 47 100 47c73 0 114 -51 173 -51c43 0 68 21 68 21l4 -42s-19 -38 -86 -38c-68 0 -111 49 -173 49c-46 0 -83 -33 -83 -33zM264 45c131 0 201 100 201 260c0 93 -44 150 -137 150c-131 0 -201 -94 -201 -256c0 -94 44 -154 137 -154zM255 -14
c-140 0 -210 85 -210 216c0 187 102 312 291 312c141 0 212 -79 212 -209c0 -186 -109 -319 -293 -319z" />
    <glyph glyph-name="odieresis" unicode="&#xf6;" horiz-adv-x="566" 
d="M233 614c-15 16 -10 45 8 61c9 6 20 10 31 10s22 -4 29 -10c15 -16 11 -45 -8 -61c-9 -7 -21 -10 -32 -10s-21 3 -28 10zM409 614c-14 16 -11 45 9 61c9 6 20 10 31 10s21 -4 29 -10c13 -16 10 -45 -9 -61c-9 -7 -21 -10 -32 -10s-21 3 -28 10zM264 45
c131 0 201 100 201 260c0 93 -44 150 -137 150c-131 0 -201 -94 -201 -256c0 -94 44 -154 137 -154zM255 -14c-140 0 -210 85 -210 216c0 187 102 312 291 312c141 0 212 -79 212 -209c0 -186 -109 -319 -293 -319z" />
    <glyph glyph-name="divide" unicode="&#xf7;" horiz-adv-x="538" 
d="M44 223l4 61h466l-8 -61h-462zM266 407c-8 8 -11 18 -11 28c0 14 7 30 20 40c11 8 24 12 37 12s25 -4 34 -12c7 -7 11 -17 11 -27c0 -15 -7 -30 -21 -41c-11 -8 -24 -12 -37 -12s-25 4 -33 12zM207 32c-8 8 -11 18 -11 28c0 14 7 30 20 40c11 8 24 12 37 12s25 -4 34 -12
c7 -7 11 -17 11 -27c0 -15 -7 -30 -21 -41c-11 -8 -24 -12 -37 -12s-25 4 -33 12z" />
    <glyph glyph-name="oslash" unicode="&#xf8;" horiz-adv-x="578" 
d="M264 45c131 0 201 100 201 260c0 47 -12 85 -35 111l-218 -363c15 -5 32 -8 52 -8zM127 199c0 -54 14 -97 44 -123l221 367c-18 8 -39 12 -64 12c-131 0 -201 -94 -201 -256zM255 -14c-29 0 -54 4 -77 11l-106 -176l-51 6l113 188c-60 35 -89 101 -89 187
c0 187 102 312 291 312c34 0 64 -5 90 -14l91 150l51 -6l-99 -165c52 -35 79 -95 79 -174c0 -186 -109 -319 -293 -319z" />
    <glyph glyph-name="ugrave" unicode="&#xf9;" horiz-adv-x="592" 
d="M392 577l-58 -5l-93 139l78 9zM406 440l4 60h144l-62 -395c-3 -42 10 -46 23 -46c16 0 47 2 47 2l-3 -56s-51 -11 -100 -11c-33 0 -50 11 -49 53h-2s-58 -61 -181 -61c-98 0 -154 52 -154 140c0 11 1 23 3 35l42 276l-56 3l5 60h142l-51 -324c-11 -72 27 -121 106 -121
c95 0 148 50 148 50l51 332z" />
    <glyph glyph-name="uacute" unicode="&#xfa;" horiz-adv-x="592" 
d="M367 572l-56 4l116 143l77 -8zM406 440l4 60h144l-62 -395c-3 -42 10 -46 23 -46c16 0 47 2 47 2l-3 -56s-51 -11 -100 -11c-33 0 -50 11 -49 53h-2s-58 -61 -181 -61c-98 0 -154 52 -154 140c0 11 1 23 3 35l42 276l-56 3l5 60h142l-51 -324c-11 -72 27 -121 106 -121
c95 0 148 50 148 50l51 332z" />
    <glyph glyph-name="ucircumflex" unicode="&#xfb;" horiz-adv-x="592" 
d="M227 594l-19 48l148 101h44l117 -101l-33 -48l-114 95zM406 440l4 60h144l-62 -395c-3 -42 10 -46 23 -46c16 0 47 2 47 2l-3 -56s-51 -11 -100 -11c-33 0 -50 11 -49 53h-2s-58 -61 -181 -61c-98 0 -154 52 -154 140c0 11 1 23 3 35l42 276l-56 3l5 60h142l-51 -324
c-11 -72 27 -121 106 -121c95 0 148 50 148 50l51 332z" />
    <glyph glyph-name="udieresis" unicode="&#xfc;" horiz-adv-x="592" 
d="M240 614c-15 16 -10 45 8 61c9 6 20 10 31 10s22 -4 29 -10c15 -16 11 -45 -8 -61c-9 -7 -21 -10 -32 -10s-21 3 -28 10zM416 614c-14 16 -11 45 9 61c9 6 20 10 31 10s21 -4 29 -10c13 -16 10 -45 -9 -61c-9 -7 -21 -10 -32 -10s-21 3 -28 10zM406 440l4 60h144
l-62 -395c-3 -42 10 -46 23 -46c16 0 47 2 47 2l-3 -56s-51 -11 -100 -11c-33 0 -50 11 -49 53h-2s-58 -61 -181 -61c-98 0 -154 52 -154 140c0 11 1 23 3 35l42 276l-56 3l5 60h142l-51 -324c-11 -72 27 -121 106 -121c95 0 148 50 148 50l51 332z" />
    <glyph glyph-name="yacute" unicode="&#xfd;" horiz-adv-x="521" 
d="M374 572l-56 4l116 143l77 -8zM17 440l4 60h136l115 -420h1c69 105 145 239 191 357l-60 6l5 57h139l-3 -39c-43 -126 -154 -307 -254 -456c-16 -138 -85 -269 -222 -269c-73 0 -103 24 -103 24l18 143l54 3l-7 -106c13 -4 27 -7 43 -7c94 0 122 100 137 210l-125 434z
" />
    <glyph glyph-name="thorn" unicode="&#xfe;" 
d="M352 452c-94 0 -140 -62 -145 -70l-45 -290c6 -8 36 -45 117 -45c155 0 218 133 218 270c0 95 -54 135 -145 135zM116 690l4 60h144l-47 -305h1s51 69 167 69c119 0 195 -68 195 -196c0 -173 -103 -332 -284 -332c-85 0 -127 31 -143 46l-5 -32l-41 -250h-80l41 250h-1
l106 687z" />
    <glyph glyph-name="ydieresis" unicode="&#xff;" horiz-adv-x="521" 
d="M247 614c-15 16 -10 45 8 61c9 6 20 10 31 10s22 -4 29 -10c15 -16 11 -45 -8 -61c-9 -7 -21 -10 -32 -10s-21 3 -28 10zM423 614c-14 16 -11 45 9 61c9 6 20 10 31 10s21 -4 29 -10c13 -16 10 -45 -9 -61c-9 -7 -21 -10 -32 -10s-21 3 -28 10zM17 440l4 60h136l115 -420
h1c69 105 145 239 191 357l-60 6l5 57h139l-3 -39c-43 -126 -154 -307 -254 -456c-16 -138 -85 -269 -222 -269c-73 0 -103 24 -103 24l18 143l54 3l-7 -106c13 -4 27 -7 43 -7c94 0 122 100 137 210l-125 434z" />
    <glyph glyph-name="Amacron" unicode="&#x100;" horiz-adv-x="694" 
d="M333 768l6 42h213l-7 -42h-212zM404 582l-174 -327h245zM-38 0l5 60l80 3l316 587h111l134 -591l76 -3l-8 -56h-227l7 48l67 2l-36 150h-287l-80 -148l68 -2l-7 -50h-219z" />
    <glyph glyph-name="amacron" unicode="&#x101;" horiz-adv-x="598" 
d="M247 633l6 42h213l-7 -42h-212zM269 48c92 0 142 67 147 74l44 284c-3 5 -36 47 -117 47c-148 0 -216 -94 -216 -253c0 -97 53 -152 142 -152zM553 500l-57 -374c-1.98145 -13.0029 -3 -24 -3 -33c0 -31 12 -34 23 -34c16 0 48 2 48 2l-4 -56s-51 -11 -99 -11
c-38 0 -56 15 -50 67c-5 -6 -59 -75 -175 -75c-117 0 -191 85 -191 215c0 180 102 313 284 313c106 0 142 -51 142 -51l19 37h63z" />
    <glyph glyph-name="Abreve" unicode="&#x102;" horiz-adv-x="694" 
d="M272 821l71 10v-1s6 -59 92 -59c85 0 111 59 111 59v1l67 -10s-35 -102 -186 -102c-150 0 -155 102 -155 102zM404 582l-174 -327h245zM-38 0l5 60l80 3l316 587h111l134 -591l76 -3l-8 -56h-227l7 48l67 2l-36 150h-287l-80 -148l68 -2l-7 -50h-219z" />
    <glyph glyph-name="abreve" unicode="&#x103;" horiz-adv-x="598" 
d="M185 686l71 10v-1s6 -59 92 -59c85 0 111 59 111 59v1l67 -10s-35 -102 -186 -102c-150 0 -155 102 -155 102zM269 48c92 0 142 67 147 74l44 284c-3 5 -36 47 -117 47c-148 0 -216 -94 -216 -253c0 -97 53 -152 142 -152zM553 500l-57 -374
c-1.98145 -13.0029 -3 -24 -3 -33c0 -31 12 -34 23 -34c16 0 48 2 48 2l-4 -56s-51 -11 -99 -11c-38 0 -56 15 -50 67c-5 -6 -59 -75 -175 -75c-117 0 -191 85 -191 215c0 180 102 313 284 313c106 0 142 -51 142 -51l19 37h63z" />
    <glyph glyph-name="Aogonek" unicode="&#x104;" horiz-adv-x="694" 
d="M404 582l-174 -327h245zM611 -208l-6 -42c-81 0 -166 18 -166 100c0 73 66 123 114 150h-104l7 48l67 2l-36 150h-287l-80 -148l68 -2l-7 -50h-219l5 60l80 3l316 587h111l134 -591l76 -3l-8 -56h-53s-125 -48 -125 -145c0 -52 58 -63 113 -63z" />
    <glyph glyph-name="aogonek" unicode="&#x105;" horiz-adv-x="598" 
d="M269 48c92 0 142 67 147 74l44 284c-3 5 -36 47 -117 47c-148 0 -216 -94 -216 -253c0 -97 53 -152 142 -152zM497 -208l-6 -42c-81 0 -166 18 -166 100c0 70 62 120 110 148c-20 6 -29 25 -24 63c-5 -6 -59 -75 -175 -75c-117 0 -191 85 -191 215c0 180 102 313 284 313
c106 0 142 -51 142 -51l19 37h63l-57 -374c-1.98145 -13.0029 -3 -24 -3 -33c0 -31 12 -34 23 -34c16 0 48 2 48 2l-4 -56s-28 -6 -61 -9c-27 -13 -115 -58 -115 -141c0 -52 58 -63 113 -63z" />
    <glyph glyph-name="Cacute" unicode="&#x106;" horiz-adv-x="659" 
d="M475 707l-56 4l116 143l77 -8zM562 429l12 121c-18 13 -67 45 -139 45c-154 0 -279 -109 -279 -316c0 -144 97 -225 225 -225c137 0 211 95 211 95l34 -45s-80 -118 -255 -118c-180 0 -301 114 -301 294c0 228 154 383 357 383c75 0 130 -33 158 -55l19 46h51l-30 -225
h-63z" />
    <glyph glyph-name="cacute" unicode="&#x107;" horiz-adv-x="483" 
d="M373 572l-56 4l116 143l77 -8zM408 335l6 78c-11 16 -38 42 -99 42c-124 0 -186 -73 -186 -242c0 -109 71 -168 157 -168c91 0 129 60 129 60l41 -28s-45 -91 -184 -91c-132 0 -227 85 -227 223c0 191 90 305 255 305c63 0 104 -27 126 -47l14 37h52l-22 -169h-62z" />
    <glyph glyph-name="Ccaron" unicode="&#x10c;" horiz-adv-x="659" 
d="M323 808l32 48l114 -96l144 96l19 -48l-148 -100h-46zM562 429l12 121c-18 13 -67 45 -139 45c-154 0 -279 -109 -279 -316c0 -144 97 -225 225 -225c137 0 211 95 211 95l34 -45s-80 -118 -255 -118c-180 0 -301 114 -301 294c0 228 154 383 357 383
c75 0 130 -33 158 -55l19 46h51l-30 -225h-63z" />
    <glyph glyph-name="ccaron" unicode="&#x10d;" horiz-adv-x="483" 
d="M221 673l32 48l114 -96l144 96l19 -48l-148 -100h-46zM408 335l6 78c-11 16 -38 42 -99 42c-124 0 -186 -73 -186 -242c0 -109 71 -168 157 -168c91 0 129 60 129 60l41 -28s-45 -91 -184 -91c-132 0 -227 85 -227 223c0 191 90 305 255 305c63 0 104 -27 126 -47l14 37
h52l-22 -169h-62z" />
    <glyph glyph-name="Dcaron" unicode="&#x10e;" horiz-adv-x="743" 
d="M268 808l32 48l114 -96l144 96l19 -48l-148 -100h-46zM405 582h-140l-80 -514h147c180 0 298 111 298 320c0 132 -86 194 -225 194zM104 594l4 56h306c188 0 303 -86 303 -258c0 -239 -146 -392 -395 -392h-306l5 60l80 3l82 528z" />
    <glyph glyph-name="dcaron" unicode="&#x10f;" horiz-adv-x="593" 
d="M674 545l-48 7c29 45 60 129 64 182l11 35l54 -7c-13 -66 -49 -167 -81 -217zM269 48c90 0 140 60 147 69l44 291c-8 10 -43 45 -117 45c-148 0 -216 -94 -216 -253c0 -97 53 -152 142 -152zM445 690l5 60h142l-96 -624c-2 -13 -3 -24 -3 -33c0 -31 12 -34 23 -34
c16 0 48 2 48 2l-4 -56s-51 -11 -99 -11c-37 0 -55 14 -50 65c0 0 -53 -73 -175 -73c-117 0 -191 85 -191 215c0 179 98 313 280 313c105 0 142 -48 142 -48h2l34 221z" />
    <glyph glyph-name="Dcroat" unicode="&#x110;" horiz-adv-x="743" 
d="M405 582h-140l-36 -232h209l-8 -54h-210l-35 -228h147c180 0 298 111 298 320c0 132 -86 194 -225 194zM44 296l8 54h93l38 241l-79 3l4 56h306c188 0 303 -86 303 -258c0 -239 -146 -392 -395 -392h-306l5 60l80 3l36 233h-93z" />
    <glyph glyph-name="dcroat" unicode="&#x111;" horiz-adv-x="606" 
d="M269 48c90 0 140 60 147 69l44 291c-8 10 -43 45 -117 45c-148 0 -216 -94 -216 -253c0 -97 53 -152 142 -152zM354 616l8 55h139l12 79h79l-12 -79h73l-7 -48l-71 -7h-4l-75 -490l-2 -14c-6 -48 9 -53 22 -53c16 0 48 2 48 2l-4 -56s-51 -11 -99 -11
c-37 0 -55 14 -50 65c0 0 -53 -73 -175 -73c-117 0 -191 85 -191 215c0 179 98 313 280 313c105 0 142 -48 142 -48h2l23 150h-138z" />
    <glyph glyph-name="Emacron" unicode="&#x112;" 
d="M310 768l6 42h213l-7 -42h-212zM511 505l6 80h-251l-35 -226l293 1l-9 -63h-294l-36 -232h280l22 90l61 -4l-27 -151h-505l5 60l80 3l82 528l-79 3l4 56h415l73 4l-9 -69l-10 -80h-66z" />
    <glyph glyph-name="emacron" unicode="&#x113;" horiz-adv-x="513" 
d="M245 633l6 42h213l-7 -42h-212zM320 455c-100 0 -170 -70 -190 -182c222 0 304 20 304 96c0 50 -39 86 -114 86zM425 113l42 -30s-53 -97 -201 -97c-129 0 -221 76 -221 215c0 173 116 313 283 313c107 0 178 -56 178 -141c0 -118 -112 -150 -382 -150v-21
c0 -101 66 -155 153 -155c104 0 148 66 148 66z" />
    <glyph glyph-name="Edotaccent" unicode="&#x116;" 
d="M454 814c6 -7 9 -17 9 -27c0 -15 -6 -32 -19 -43c-10 -7 -23 -10 -36 -10s-26 3 -34 11c-7 7 -10 17 -10 27c0 15 7.02637 31.9648 20 42c9.01855 6.97559 23 11 36 11s26 -4 34 -11zM511 505l6 80h-251l-35 -226l293 1l-9 -63h-294l-36 -232h280l22 90l61 -4l-27 -151
h-505l5 60l80 3l82 528l-79 3l4 56h415l73 4l-9 -69l-10 -80h-66z" />
    <glyph glyph-name="edotaccent" unicode="&#x117;" horiz-adv-x="513" 
d="M388 679c6 -7 9 -17 9 -27c0 -15 -6 -32 -19 -43c-10 -7 -23 -10 -36 -10s-26 3 -34 11c-7 7 -10 17 -10 27c0 15 7.02637 31.9648 20 42c9.01855 6.97559 23 11 36 11s26 -4 34 -11zM320 455c-100 0 -170 -70 -190 -182c222 0 304 20 304 96c0 50 -39 86 -114 86z
M425 113l42 -30s-53 -97 -201 -97c-129 0 -221 76 -221 215c0 173 116 313 283 313c107 0 178 -56 178 -141c0 -118 -112 -150 -382 -150v-21c0 -101 66 -155 153 -155c104 0 148 66 148 66z" />
    <glyph glyph-name="Eogonek" unicode="&#x118;" 
d="M508 -208l-6 -42c-81 0 -166 18 -166 100c0 73 66 123 114 150h-434l5 60l80 3l82 528l-79 3l4 56h415l73 4l-9 -69l-10 -80h-66l6 80h-251l-35 -226l293 1l-9 -63h-294l-36 -232h280l22 90l61 -4l-27 -151h-1s-125 -48 -125 -145c0 -52 58 -63 113 -63z" />
    <glyph glyph-name="eogonek" unicode="&#x119;" horiz-adv-x="513" 
d="M320 455c-100 0 -170 -70 -190 -182c222 0 304 20 304 96c0 50 -39 86 -114 86zM330 -208l-6 -42c-81 0 -166 18 -166 100c0 62 47 108 92 137c-121 6 -205 81 -205 214c0 173 116 313 283 313c107 0 178 -56 178 -141c0 -118 -112 -150 -382 -150v-21
c0 -101 66 -155 153 -155c104 0 148 66 148 66l42 -30s-40 -71 -144 -91c-34 -17 -106 -62 -106 -137c0 -52 58 -63 113 -63z" />
    <glyph glyph-name="Ecaron" unicode="&#x11a;" 
d="M264 808l32 48l114 -96l144 96l19 -48l-148 -100h-46zM511 505l6 80h-251l-35 -226l293 1l-9 -63h-294l-36 -232h280l22 90l61 -4l-27 -151h-505l5 60l80 3l82 528l-79 3l4 56h415l73 4l-9 -69l-10 -80h-66z" />
    <glyph glyph-name="ecaron" unicode="&#x11b;" horiz-adv-x="513" 
d="M200 673l32 48l114 -96l144 96l19 -48l-148 -100h-46zM320 455c-100 0 -170 -70 -190 -182c222 0 304 20 304 96c0 50 -39 86 -114 86zM425 113l42 -30s-53 -97 -201 -97c-129 0 -221 76 -221 215c0 173 116 313 283 313c107 0 178 -56 178 -141
c0 -118 -112 -150 -382 -150v-21c0 -101 66 -155 153 -155c104 0 148 66 148 66z" />
    <glyph glyph-name="Gbreve" unicode="&#x11e;" horiz-adv-x="716" 
d="M323 821l71 10v-1s6 -59 92 -59c85 0 111 59 111 59v1l67 -10s-35 -102 -186 -102c-150 0 -155 102 -155 102zM567 459l9 93c-15 13 -57 43 -134 43c-183 0 -286 -107 -286 -313c0 -142 82 -228 205 -228c139 0 180 82 187 101l16 101h-154l8 55h226l-48 -311h-50l-1 62
c-36 -39 -99 -76 -207 -76c-167 0 -269 116 -269 285c0 244 147 392 369 392c69 0 121 -30 150 -52l16 43h50l-24 -195h-63z" />
    <glyph glyph-name="gbreve" unicode="&#x11f;" 
d="M187 686l71 10v-1s6 -59 92 -59c85 0 111 59 111 59v1l67 -10s-35 -102 -186 -102c-150 0 -155 102 -155 102zM278 45c73 0 120 35 132 44l46 297c-3 7 -32 68 -123 68c-120 0 -203 -70 -203 -243c0 -101 43 -166 148 -166zM401 33c-3 -2 -59 -47 -159 -47
c-131 0 -195 91 -195 223c0 192 116 305 270 305c115 0 146 -65 149 -72l17 58h70l-71 -466c7 -199 -115 -298 -266 -298c-123 0 -174 40 -174 40l18 127l54 3l-7 -90c26 -12 63 -23 114 -23c112 0 185 78 180 236v4z" />
    <glyph glyph-name="Gcommaaccent" unicode="&#x122;" horiz-adv-x="716" 
d="M252 -289l-22 22c59 42 89 106 88 149c-8 1 -15 4 -20 9c-14 14 -11 40 8 54c17 12 41 12 55 0l3 -3c7 -9 10 -21 10 -36c0 -58 -52 -149 -122 -195zM567 459l9 93c-15 13 -57 43 -134 43c-183 0 -286 -107 -286 -313c0 -142 82 -228 205 -228c139 0 180 82 187 101
l16 101h-154l8 55h226l-48 -311h-50l-1 62c-36 -39 -99 -76 -207 -76c-167 0 -269 116 -269 285c0 244 147 392 369 392c69 0 121 -30 150 -52l16 43h50l-24 -195h-63z" />
    <glyph glyph-name="gcommaaccent" unicode="&#x123;" 
d="M431 819l22 -22c-59 -42 -89 -106 -88 -149c8 -1 15 -4 20 -9c14 -14 11 -40 -8 -54c-17 -12 -41 -12 -55 0l-3 3c-7 9 -10 21 -10 36c0 58 52 149 122 195zM278 45c73 0 120 35 132 44l46 297c-3 7 -32 68 -123 68c-120 0 -203 -70 -203 -243c0 -101 43 -166 148 -166z
M401 33c-3 -2 -59 -47 -159 -47c-131 0 -195 91 -195 223c0 192 116 305 270 305c121 0 149 -72 149 -72l17 58h70l-71 -466c7 -199 -115 -298 -266 -298c-123 0 -174 40 -174 40l18 127l54 3l-7 -90c26 -12 63 -23 114 -23c112 0 185 78 180 236v4z" />
    <glyph glyph-name="uni012A" unicode="&#x12a;" horiz-adv-x="327" 
d="M148 768l6 42h213l-7 -42h-212zM104 594l4 56h245l-9 -60l-78 -3l-82 -528l78 -3l-8 -56h-238l5 60l80 3l82 528z" />
    <glyph glyph-name="imacron" unicode="&#x12b;" horiz-adv-x="259" 
d="M98 633l6 42h213l-7 -42h-212zM73 440l4 60h143l-62 -399c-1 -38 12 -42 24 -42c16 0 48 2 48 2l-4 -56s-51 -11 -99 -11c-34 0 -55 12 -55 56c0 8 0 18 2 29l56 358z" />
    <glyph glyph-name="Iogonek" unicode="&#x12e;" horiz-adv-x="327" 
d="M164 -208l-6 -42c-81 0 -166 18 -166 100c0 73 66 123 114 150h-90l5 60l80 3l82 528l-79 3l4 56h245l-9 -60l-78 -3l-82 -528l78 -3l-8 -56h-78s-125 -48 -125 -145c0 -52 58 -63 113 -63z" />
    <glyph glyph-name="iogonek" unicode="&#x12f;" horiz-adv-x="259" 
d="M241 679c6 -7 9 -17 9 -27c0 -15 -6 -32 -19 -43c-10 -7 -23 -10 -36 -10s-26 3 -34 11c-7 7 -10 17 -10 27c0 15 7.02637 31.9648 20 42c9.01855 6.97559 23 11 36 11s26 -4 34 -11zM132 -208l-6 -42c-81 0 -166 18 -166 100c0 79 77 131 126 156c-9 8 -14 22 -14 44
c0 8 0 18 2 29l56 358l-57 3l4 60h143l-62 -399c-1 -38 12 -42 24 -42c16 0 48 2 48 2l-4 -56s-49 -10 -96 -11c-30 -14 -111 -59 -111 -139c0 -52 58 -63 113 -63z" />
    <glyph glyph-name="Idotaccent" unicode="&#x130;" horiz-adv-x="327" 
d="M292 814c6 -7 9 -17 9 -27c0 -15 -6 -32 -19 -43c-10 -7 -23 -10 -36 -10s-26 3 -34 11c-7 7 -10 17 -10 27c0 15 7.02637 31.9648 20 42c9.01855 6.97559 23 11 36 11s26 -4 34 -11zM104 594l4 56h245l-9 -60l-78 -3l-82 -528l78 -3l-8 -56h-238l5 60l80 3l82 528z" />
    <glyph glyph-name="dotlessi" unicode="&#x131;" horiz-adv-x="259" 
d="M73 440l4 60h143l-62 -399c-1 -38 12 -42 24 -42c16 0 48 2 48 2l-4 -56s-51 -11 -99 -11c-34 0 -55 12 -55 56c0 8 0 18 2 29l56 358z" />
    <glyph glyph-name="Kcommaaccent" unicode="&#x136;" horiz-adv-x="706" 
d="M224 -289l-22 22c59 42 89 106 88 149c-8 1 -15 4 -20 9c-14 14 -11 40 8 54c17 12 41 12 55 0l3 -3c7 -9 10 -21 10 -36c0 -58 -52 -149 -122 -195zM104 594l4 56h237l-8 -52l-70 -3l-45 -289l101 62l241 230l-44 2l7 50h227l-9 -60l-106 -3l-255 -245l199 -281l105 -1
l-8 -60h-155l-34 34l-179 254l-103 -64l-25 -162l78 -2l-8 -60h-238l5 60l80 3l82 528z" />
    <glyph glyph-name="kcommaaccent" unicode="&#x137;" horiz-adv-x="539" 
d="M164 -289l-22 22c59 42 89 106 88 149c-8 1 -15 4 -20 9c-14 14 -11 40 8 54c17 12 41 12 55 0l3 -3c7 -9 10 -21 10 -36c0 -58 -52 -149 -122 -195zM351 456c-66 0 -128 -59 -157 -91l-23 -149c84 6 271 32 271 158c0 53 -34 82 -91 82zM417 -6c-45 0 -91 79 -146 186
c-48 -10 -89 -14 -108 -15l-25 -165h-80l106 687l-56 3l3 60h143l-48 -308c40 34 100 72 169 72c92 0 146 -46 146 -125c0 -101 -83 -157 -170 -187c46 -86 83 -142 106 -143c16 0 51 2 51 2l-3 -56s-40 -11 -88 -11z" />
    <glyph glyph-name="Lacute" unicode="&#x139;" horiz-adv-x="555" 
d="M253 707l-56 4l116 143l77 -8zM104 594l4 56h245l-9 -60l-78 -3l-81 -522h272l22 94l62 -4l-28 -155h-497l5 60l80 3l82 528z" />
    <glyph glyph-name="lacute" unicode="&#x13a;" horiz-adv-x="255" 
d="M251 797l-56 4l116 143l77 -8zM107 690l5 60h143l-101 -649c-1 -37 11 -42 24 -42c16 0 48 2 48 2l-4 -56s-51 -11 -99 -11c-34 0 -55 12 -55 56c0 8 0 18 2 29l94 608z" />
    <glyph glyph-name="Lcommaaccent" unicode="&#x13b;" horiz-adv-x="555" 
d="M186 -289l-22 22c59 42 89 106 88 149c-8 1 -15 4 -20 9c-14 14 -11 40 8 54c17 12 41 12 55 0l3 -3c7 -9 10 -21 10 -36c0 -58 -52 -149 -122 -195zM104 594l4 56h245l-9 -60l-78 -3l-81 -522h272l22 94l62 -4l-28 -155h-497l5 60l80 3l82 528z" />
    <glyph glyph-name="lcommaaccent" unicode="&#x13c;" horiz-adv-x="255" 
d="M10 -289l-22 22c59 42 89 106 88 149c-8 1 -15 4 -20 9c-14 14 -11 40 8 54c17 12 41 12 55 0l3 -3c7 -9 10 -21 10 -36c0 -58 -52 -149 -122 -195zM107 690l5 60h143l-101 -649c-1 -37 11 -42 24 -42c16 0 48 2 48 2l-4 -56s-51 -11 -99 -11c-34 0 -55 12 -55 56
c0 8 0 18 2 29l94 608z" />
    <glyph glyph-name="Lcaron" unicode="&#x13d;" horiz-adv-x="555" 
d="M108 808l32 48l114 -96l144 96l19 -48l-148 -100h-46zM104 594l4 56h245l-9 -60l-78 -3l-81 -522h272l22 94l62 -4l-28 -155h-497l5 60l80 3l82 528z" />
    <glyph glyph-name="lcaron" unicode="&#x13e;" horiz-adv-x="255" 
d="M338 545l-48 7c29 45 60 129 64 182l11 35l54 -7c-13 -66 -49 -167 -81 -217zM107 690l5 60h143l-101 -649c-1 -37 11 -42 24 -42c16 0 48 2 48 2l-4 -56s-51 -11 -99 -11c-34 0 -55 12 -55 56c0 8 0 18 2 29l94 608z" />
    <glyph glyph-name="Lslash" unicode="&#x141;" horiz-adv-x="574" 
d="M118 594l4 56h245l-9 -60l-78 -3l-35 -224l157 91l16 -35l-181 -105l-38 -249h272l22 94l62 -4l-28 -155h-497l5 60l80 3l31 198l-87 -50l-16 35l110 64l44 281z" />
    <glyph glyph-name="lslash" unicode="&#x142;" horiz-adv-x="336" 
d="M147 690l5 60h143l-52 -334l90 57l17 -34l-115 -72l-41 -266c-1 -37 11 -42 24 -42c16 0 48 2 48 2l-4 -56s-51 -11 -99 -11c-34 0 -55 12 -55 56c0 8 0 18 2 29l36 232l-77 -48l-17 34l101 63l51 327z" />
    <glyph glyph-name="Nacute" unicode="&#x143;" horiz-adv-x="781" 
d="M493 707l-56 4l116 143l77 -8zM550 -6l-300 537h-1v-31l-71 -439l79 -4l-8 -57h-233l5 60l80 3l82 528l-79 3l4 56h172l297 -545l1 24l72 460l-79 4l4 57h240l-9 -60l-77 -3l-92 -593h-87z" />
    <glyph glyph-name="nacute" unicode="&#x144;" horiz-adv-x="595" 
d="M359 572l-56 4l116 143l77 -8zM417 79c0 0 41 258 42 265c12 72 -28 102 -107 102c-92 0 -145 -48 -149 -51l-61 -395h-80l67 437l-57 3l5 60h133l1 -44c11 11 67 58 178 58c97 0 155 -35 155 -120c0 -11 -1 -23 -3 -35l-40 -257c-1 -39 12 -43 24 -43c16 0 48 2 48 2
l-4 -56s-51 -11 -99 -11c-40 0 -63 17 -53 85z" />
    <glyph glyph-name="Ncommaaccent" unicode="&#x145;" horiz-adv-x="781" 
d="M269 -289l-22 22c59 42 89 106 88 149c-8 1 -15 4 -20 9c-14 14 -11 40 8 54c17 12 41 12 55 0l3 -3c7 -9 10 -21 10 -36c0 -58 -52 -149 -122 -195zM550 -6l-300 537h-1v-31l-71 -439l79 -4l-8 -57h-233l5 60l80 3l82 528l-79 3l4 56h172l297 -545l1 24l72 460l-79 4
l4 57h240l-9 -60l-77 -3l-92 -593h-87z" />
    <glyph glyph-name="ncommaaccent" unicode="&#x146;" horiz-adv-x="595" 
d="M198 -289l-22 22c59 42 89 106 88 149c-8 1 -15 4 -20 9c-14 14 -11 40 8 54c17 12 41 12 55 0l3 -3c7 -9 10 -21 10 -36c0 -58 -52 -149 -122 -195zM417 79c0 0 41 258 42 265c12 72 -28 102 -107 102c-92 0 -145 -48 -149 -51l-61 -395h-80l67 437l-57 3l5 60h133
l1 -44c11 11 67 58 178 58c97 0 155 -35 155 -120c0 -11 -1 -23 -3 -35l-40 -257c-1 -39 12 -43 24 -43c16 0 48 2 48 2l-4 -56s-51 -11 -99 -11c-40 0 -63 17 -53 85z" />
    <glyph glyph-name="Ncaron" unicode="&#x147;" horiz-adv-x="781" 
d="M357 808l32 48l114 -96l144 96l19 -48l-148 -100h-46zM550 -6l-300 537h-1v-31l-71 -439l79 -4l-8 -57h-233l5 60l80 3l82 528l-79 3l4 56h172l297 -545l1 24l72 460l-79 4l4 57h240l-9 -60l-77 -3l-92 -593h-87z" />
    <glyph glyph-name="ncaron" unicode="&#x148;" horiz-adv-x="595" 
d="M206 673l32 48l114 -96l144 96l19 -48l-148 -100h-46zM417 79c0 0 41 258 42 265c12 72 -28 102 -107 102c-92 0 -145 -48 -149 -51l-61 -395h-80l67 437l-57 3l5 60h133l1 -44c11 11 67 58 178 58c97 0 155 -35 155 -120c0 -11 -1 -23 -3 -35l-40 -257
c-1 -39 12 -43 24 -43c16 0 48 2 48 2l-4 -56s-51 -11 -99 -11c-40 0 -63 17 -53 85z" />
    <glyph glyph-name="Omacron" unicode="&#x14c;" horiz-adv-x="754" 
d="M362 768l6 42h213l-7 -42h-212zM353 54c150 0 256 113 282 280c4 22 5 43 5 63c0 127 -73 198 -201 198c-173 0 -283 -117 -283 -315c0 -133 70 -226 197 -226zM722 334c-32.5459 -206.914 -174 -348 -379 -348c-176 0 -273 120 -273 291c0 238 146 386 378 386
c179 0 280 -95 280 -258c0 -22 -2.06641 -45.9893 -6 -71z" />
    <glyph glyph-name="omacron" unicode="&#x14d;" horiz-adv-x="566" 
d="M253 633l6 42h213l-7 -42h-212zM264 45c131 0 201 100 201 260c0 93 -44 150 -137 150c-131 0 -201 -94 -201 -256c0 -94 44 -154 137 -154zM255 -14c-140 0 -210 85 -210 216c0 187 102 312 291 312c141 0 212 -79 212 -209c0 -186 -109 -319 -293 -319z" />
    <glyph glyph-name="Ohungarumlaut" unicode="&#x150;" horiz-adv-x="754" 
d="M503 737l87 145l44 -18l-73 -133zM355 737l86 145l45 -18l-73 -133zM353 54c150 0 256 113 282 280c4 22 5 43 5 63c0 127 -73 198 -201 198c-173 0 -283 -117 -283 -315c0 -133 70 -226 197 -226zM722 334c-32.5459 -206.914 -174 -348 -379 -348
c-176 0 -273 120 -273 291c0 238 146 386 378 386c179 0 280 -95 280 -258c0 -22 -2.06641 -45.9893 -6 -71z" />
    <glyph glyph-name="ohungarumlaut" unicode="&#x151;" horiz-adv-x="566" 
d="M394 602l87 145l44 -18l-73 -133zM246 602l86 145l45 -18l-73 -133zM264 45c131 0 201 100 201 260c0 93 -44 150 -137 150c-131 0 -201 -94 -201 -256c0 -94 44 -154 137 -154zM255 -14c-140 0 -210 85 -210 216c0 187 102 312 291 312c141 0 212 -79 212 -209
c0 -186 -109 -319 -293 -319z" />
    <glyph glyph-name="OE" unicode="&#x152;" horiz-adv-x="1089" 
d="M353 54c150 0 256 113 282 280c4 22 5 43 5 63c0 127 -73 198 -201 198c-173 0 -283 -117 -283 -315c0 -133 70 -226 197 -226zM584 0l12 81c-65 -60 -151 -95 -253 -95c-176 0 -273 120 -273 291c0 238 146 386 378 386c101 0 177 -31 224 -87l12 74h331l73 4l-1 -4h1
l-2 -13l-15 -132h-66l5 80h-252l-30 -194l-3 -32l291 1l-10 -63h-291c-2 -7 -4 -13 -5 -20l-33 -212h280l22 90l61 -4l-27 -151h-429z" />
    <glyph glyph-name="oe" unicode="&#x153;" horiz-adv-x="923" 
d="M729 455c-89 0 -154 -55 -181 -145v-5c0 -11 -1 -22 -2 -32c217 0 297 21 297 96c0 50 -39 86 -114 86zM264 45c101 0 165 59 190 159c0 30 4 58 11 85v16c0 93 -44 150 -137 150c-131 0 -201 -94 -201 -256c0 -94 44 -154 137 -154zM834 113l42 -30s-53 -97 -201 -97
c-88 0 -159 35 -195 102c-50 -64 -127 -102 -225 -102c-140 0 -210 85 -210 216c0 187 102 312 291 312c95 0 159 -36 190 -100c50 61 123 100 211 100c107 0 178 -56 178 -141c0 -117 -110 -150 -375 -150c-2 -11 -4 -20 -7 -30c4 -95 68 -146 153 -146
c104 0 148 66 148 66z" />
    <glyph glyph-name="Racute" unicode="&#x154;" horiz-adv-x="623" 
d="M392 707l-56 4l116 143l77 -8zM345 588h-85l-45 -293h94c108 0 185 56 185 184c0 76 -52 109 -149 109zM104 594l4 56h260c135 0 214 -52 214 -160c0 -130 -78 -211 -171 -243l110 -186l98 -1l-9 -60h-145l-28 33l-112 199h-120l-28 -177l71 -3l-7 -52h-225l5 60l80 5
l82 526z" />
    <glyph glyph-name="racute" unicode="&#x155;" horiz-adv-x="419" 
d="M278 572l-56 4l116 143l77 -8zM364 348l2 99c-12 1 -23 2 -35 2c-80 0 -124 -66 -132 -80l-57 -369h-80l67 437l-65 3l5 60h133l-4 -76h1s50 90 158 90c43 0 81 -14 81 -14l-18 -152h-56z" />
    <glyph glyph-name="Rcommaaccent" unicode="&#x156;" horiz-adv-x="623" 
d="M204 -289l-22 22c59 42 89 106 88 149c-8 1 -15 4 -20 9c-14 14 -11 40 8 54c17 12 41 12 55 0l3 -3c7 -9 10 -21 10 -36c0 -58 -52 -149 -122 -195zM345 588h-85l-45 -293h94c108 0 185 56 185 184c0 76 -52 109 -149 109zM104 594l4 56h260c135 0 214 -52 214 -160
c0 -130 -78 -211 -171 -243l110 -186l98 -1l-9 -60h-145l-28 33l-112 199h-120l-28 -177l71 -3l-7 -52h-225l5 60l80 5l82 526z" />
    <glyph glyph-name="rcommaaccent" unicode="&#x157;" horiz-adv-x="419" 
d="M11 -289l-22 22c59 42 89 106 88 149c-8 1 -15 4 -20 9c-14 14 -11 40 8 54c17 12 41 12 55 0l3 -3c7 -9 10 -21 10 -36c0 -58 -52 -149 -122 -195zM364 348l2 99c-12 1 -23 2 -35 2c-80 0 -124 -66 -132 -80l-57 -369h-80l67 437l-65 3l5 60h133l-4 -76h1s50 90 158 90
c43 0 81 -14 81 -14l-18 -152h-56z" />
    <glyph glyph-name="Rcaron" unicode="&#x158;" horiz-adv-x="623" 
d="M240 808l32 48l114 -96l144 96l19 -48l-148 -100h-46zM345 588h-85l-45 -293h94c108 0 185 56 185 184c0 76 -52 109 -149 109zM104 594l4 56h260c135 0 214 -52 214 -160c0 -130 -78 -211 -171 -243l110 -186l98 -1l-9 -60h-145l-28 33l-112 199h-120l-28 -177l71 -3
l-7 -52h-225l5 60l80 5l82 526z" />
    <glyph glyph-name="rcaron" unicode="&#x159;" horiz-adv-x="419" 
d="M126 673l32 48l114 -96l144 96l19 -48l-148 -100h-46zM364 348l2 99c-12 1 -23 2 -35 2c-80 0 -124 -66 -132 -80l-57 -369h-80l67 437l-65 3l5 60h133l-4 -76h1s50 90 158 90c43 0 81 -14 81 -14l-18 -152h-56z" />
    <glyph glyph-name="Sacute" unicode="&#x15a;" horiz-adv-x="574" 
d="M401 707l-56 4l116 143l77 -8zM479 501l4 57c-14 14 -49 43 -113 43c-102 0 -163 -46 -163 -123c0 -139 317 -103 317 -284c0 -124 -99 -208 -266 -208c-143 0 -211 40 -211 40l19 143l58 4l-5 -101c30 -11 77 -24 139 -24c122 0 182 62 182 133c0 133 -317 97 -317 288
c0 120 97 194 239 194c63 0 108 -31 132 -53l19 44h51l-19 -153h-66z" />
    <glyph glyph-name="sacute" unicode="&#x15b;" horiz-adv-x="477" 
d="M325 572l-56 4l116 143l77 -8zM393 367l-2 49c-15 14 -51 41 -105 41c-62 0 -110 -30 -110 -80c0 -108 260 -72 260 -218c0 -89 -67 -173 -240 -173c-104 0 -159 26 -159 26l11 127l51 3l-6 -82c25 -8 64 -17 111 -17c102 0 147 52 147 102c0 106 -257 72 -257 224
c0 96 83 145 184 145c55 0 99 -26 125 -45l14 35h42l-16 -137h-50z" />
    <glyph glyph-name="Scedilla" unicode="&#x15e;" horiz-adv-x="574" 
d="M116 -214l19 31s28 -30 79 -30c56 0 80 26 80 64c1 52 -91 53 -91 59l22 77c-121 5 -178 39 -178 39l19 143l58 4l-5 -101c30 -11 77 -24 139 -24c122 0 182 62 182 133c0 133 -317 97 -317 288c0 120 97 194 239 194c63 0 108 -31 132 -53l19 44h51l-19 -153h-66l4 57
c-14 14 -49 43 -113 43c-102 0 -163 -46 -163 -123c0 -139 317 -103 317 -284c0 -122 -96 -205 -257 -208l-15 -54c-1 -5 97 -12 97 -79c0 -61 -43 -104 -129 -104c-73 0 -104 37 -104 37z" />
    <glyph glyph-name="scedilla" unicode="&#x15f;" horiz-adv-x="477" 
d="M58 -214l19 31s28 -30 79 -30c56 0 80 26 80 64c1 52 -91 53 -91 59l22 77c-85 4 -130 25 -130 25l11 127l51 3l-6 -82c25 -8 64 -17 111 -17c102 0 147 52 147 102c0 106 -257 72 -257 224c0 96 83 145 184 145c55 0 99 -26 125 -45l14 35h42l-16 -137h-50l-2 49
c-15 14 -51 41 -105 41c-62 0 -110 -30 -110 -80c0 -108 260 -72 260 -218c0 -87 -64 -169 -227 -173l-15 -54c-1 -5 97 -12 97 -79c0 -61 -43 -104 -129 -104c-73 0 -104 37 -104 37z" />
    <glyph glyph-name="Scaron" unicode="&#x160;" horiz-adv-x="574" 
d="M248 808l32 48l114 -96l144 96l19 -48l-148 -100h-46zM479 501l4 57c-14 14 -49 43 -113 43c-102 0 -163 -46 -163 -123c0 -139 317 -103 317 -284c0 -124 -99 -208 -266 -208c-143 0 -211 40 -211 40l19 143l58 4l-5 -101c30 -11 77 -24 139 -24c122 0 182 62 182 133
c0 133 -317 97 -317 288c0 120 97 194 239 194c63 0 108 -31 132 -53l19 44h51l-19 -153h-66z" />
    <glyph glyph-name="scaron" unicode="&#x161;" horiz-adv-x="477" 
d="M163 673l32 48l114 -96l144 96l19 -48l-148 -100h-46zM393 367l-2 49c-15 14 -51 41 -105 41c-62 0 -110 -30 -110 -80c0 -108 260 -72 260 -218c0 -89 -67 -173 -240 -173c-104 0 -159 26 -159 26l11 127l51 3l-6 -82c25 -8 64 -17 111 -17c102 0 147 52 147 102
c0 106 -257 72 -257 224c0 96 83 145 184 145c55 0 99 -26 125 -45l14 35h42l-16 -137h-50z" />
    <glyph glyph-name="Tcommaaccent" unicode="&#x162;" horiz-adv-x="536" 
d="M150 -289l-22 22c59 42 89 106 88 149c-8 1 -15 4 -20 9c-14 14 -11 40 8 54c17 12 41 12 55 0l3 -3c7 -9 10 -21 10 -36c0 -58 -52 -149 -122 -195zM524 497l5 88h-159l-81 -523l78 -2l-8 -60h-238l4 60l80 3l80 522h-156l-22 -88h-60l26 157l72 -4h388l73 4l-20 -157
h-62z" />
    <glyph glyph-name="tcommaaccent" unicode="&#x163;" horiz-adv-x="373" 
d="M74 -289l-22 22c59 42 89 106 88 149c-8 1 -15 4 -20 9c-14 14 -11 40 8 54c17 12 41 12 55 0l3 -3c7 -9 10 -21 10 -36c0 -58 -52 -149 -122 -195zM84 437l4 60l65 2v1l33 158h72l-25 -158h151l-9 -63h-152l-44 -285c-2 -14 -3 -27 -3 -38c0 -40 15 -57 53 -57
c47 0 82 10 82 10l-6 -54s-35 -21 -110 -21c-68 0 -102 27 -102 96c0 14 1 29 4 46l46 303h-59z" />
    <glyph glyph-name="Tcaron" unicode="&#x164;" horiz-adv-x="536" 
d="M208 808l32 48l114 -96l144 96l19 -48l-148 -100h-46zM524 497l5 88h-159l-81 -523l78 -2l-8 -60h-238l4 60l80 3l80 522h-156l-22 -88h-60l26 157l72 -4h388l73 4l-20 -157h-62z" />
    <glyph glyph-name="tcaron" unicode="&#x165;" horiz-adv-x="373" 
d="M388 545l-48 7c29 45 60 129 64 182l11 35l54 -7c-13 -66 -49 -167 -81 -217zM84 437l4 60l65 2v1l33 158h72l-25 -158h151l-9 -63h-152l-44 -285c-2 -14 -3 -27 -3 -38c0 -40 15 -57 53 -57c47 0 82 10 82 10l-6 -54s-35 -21 -110 -21c-68 0 -102 27 -102 96
c0 14 1 29 4 46l46 303h-59z" />
    <glyph glyph-name="Umacron" unicode="&#x16a;" horiz-adv-x="735" 
d="M347 768l6 42h213l-7 -42h-212zM532 593l5 57h242l-8 -56l-78 -3l-57 -369c-20 -126 -116 -236 -300 -236c-163 0 -232 86 -232 193c0 14 2 28 4 43l57 369l-79 3l4 56h244l-7 -56l-78 -3l-55 -352c-2 -13 -3 -25 -3 -37c0 -82 49 -143 156 -143c124 0 194 80 210 180
l54 350z" />
    <glyph glyph-name="umacron" unicode="&#x16b;" horiz-adv-x="592" 
d="M260 633l6 42h213l-7 -42h-212zM406 440l4 60h144l-62 -395c-3 -42 10 -46 23 -46c16 0 47 2 47 2l-3 -56s-51 -11 -100 -11c-33 0 -50 11 -49 53h-2s-58 -61 -181 -61c-98 0 -154 52 -154 140c0 11 1 23 3 35l42 276l-56 3l5 60h142l-51 -324c-11 -72 27 -121 106 -121
c95 0 148 50 148 50l51 332z" />
    <glyph glyph-name="Uring" unicode="&#x16e;" horiz-adv-x="735" 
d="M447 758c40 0 74 32 74 78c0 34 -22 57 -52 57c-40 0 -76 -32 -76 -79c0 -34 23 -56 54 -56zM442 722c-53 0 -87 35 -87 87c0 70 54 120 118 120c51 0 87 -37 87 -89c0 -69 -53 -118 -118 -118zM532 593l5 57h242l-8 -56l-78 -3l-57 -369c-20 -126 -116 -236 -300 -236
c-163 0 -232 86 -232 193c0 14 2 28 4 43l57 369l-79 3l4 56h244l-7 -56l-78 -3l-55 -352c-2 -13 -3 -25 -3 -37c0 -82 49 -143 156 -143c124 0 194 80 210 180l54 350z" />
    <glyph glyph-name="uring" unicode="&#x16f;" horiz-adv-x="592" 
d="M360 623c40 0 74 32 74 78c0 34 -22 57 -52 57c-40 0 -76 -32 -76 -79c0 -34 23 -56 54 -56zM355 587c-53 0 -87 35 -87 87c0 70 54 120 118 120c51 0 87 -37 87 -89c0 -69 -53 -118 -118 -118zM406 440l4 60h144l-62 -395c-3 -42 10 -46 23 -46c16 0 47 2 47 2l-3 -56
s-51 -11 -100 -11c-33 0 -50 11 -49 53h-2s-58 -61 -181 -61c-98 0 -154 52 -154 140c0 11 1 23 3 35l42 276l-56 3l5 60h142l-51 -324c-11 -72 27 -121 106 -121c95 0 148 50 148 50l51 332z" />
    <glyph glyph-name="Uhungarumlaut" unicode="&#x170;" horiz-adv-x="735" 
d="M480 737l87 145l44 -18l-73 -133zM332 737l86 145l45 -18l-73 -133zM532 593l5 57h242l-8 -56l-78 -3l-57 -369c-20 -126 -116 -236 -300 -236c-163 0 -232 86 -232 193c0 14 2 28 4 43l57 369l-79 3l4 56h244l-7 -56l-78 -3l-55 -352c-2 -13 -3 -25 -3 -37
c0 -82 49 -143 156 -143c124 0 194 80 210 180l54 350z" />
    <glyph glyph-name="uhungarumlaut" unicode="&#x171;" horiz-adv-x="592" 
d="M400 602l87 145l44 -18l-73 -133zM252 602l86 145l45 -18l-73 -133zM406 440l4 60h144l-62 -395c-3 -42 10 -46 23 -46c16 0 47 2 47 2l-3 -56s-51 -11 -100 -11c-33 0 -50 11 -49 53h-2s-58 -61 -181 -61c-98 0 -154 52 -154 140c0 11 1 23 3 35l42 276l-56 3l5 60h142
l-51 -324c-11 -72 27 -121 106 -121c95 0 148 50 148 50l51 332z" />
    <glyph glyph-name="Uogonek" unicode="&#x172;" horiz-adv-x="735" 
d="M411 -208l-6 -42c-81 0 -166 18 -166 100c0 62 47 107 91 136c-159 2 -226 87 -226 193c0 14 2 28 4 43l57 369l-79 3l4 56h244l-7 -56l-78 -3l-55 -352c-2 -13 -3 -25 -3 -37c0 -82 49 -143 156 -143c124 0 194 80 210 180l54 350l-79 4l5 57h242l-8 -56l-78 -3
l-57 -369c-18 -110 -92 -207 -232 -230c-33 -17 -106 -61 -106 -137c0 -52 58 -63 113 -63z" />
    <glyph glyph-name="uogonek" unicode="&#x173;" horiz-adv-x="592" 
d="M464 -208l-6 -42c-81 0 -166 18 -166 100c0 80 79 132 128 157c-7 8 -11 21 -10 40h-2s-58 -61 -181 -61c-98 0 -154 52 -154 140c0 11 1 23 3 35l42 276l-56 3l5 60h142l-51 -324c-11 -72 27 -121 106 -121c95 0 148 50 148 50l51 332l-57 3l4 60h144l-62 -395
c-3 -42 10 -46 23 -46c16 0 47 2 47 2l-3 -56s-49 -10 -97 -11c-30 -14 -111 -59 -111 -139c0 -52 58 -63 113 -63z" />
    <glyph glyph-name="Ydieresis" unicode="&#x178;" horiz-adv-x="632" 
d="M303 749c-15 16 -10 45 8 61c9 6 20 10 31 10s22 -4 29 -10c15 -16 11 -45 -8 -61c-9 -7 -21 -10 -32 -10s-21 3 -28 10zM479 749c-14 16 -11 45 9 61c9 6 20 10 31 10s21 -4 29 -10c13 -16 10 -45 -9 -61c-9 -7 -21 -10 -32 -10s-21 3 -28 10zM30 594l5 56h242l-8 -56
l-53 -2l129 -252l205 251l-49 2l8 57h226l-9 -60l-92 -2l-259 -318l-33 -208l78 -2l-9 -60h-238l5 60l80 3l32 206l-168 322z" />
    <glyph glyph-name="Zacute" unicode="&#x179;" horiz-adv-x="602" 
d="M412 707l-56 4l116 143l77 -8zM98 505l23 137l1 8l1 4l72 -4h429l-8 -57l-486 -528h341l22 90l61 -4l-27 -151h-513l8 57l486 528h-328l-17 -80h-65z" />
    <glyph glyph-name="zacute" unicode="&#x17a;" horiz-adv-x="488" 
d="M340 572l-56 4l116 143l77 -8zM87 359l25 149l64 -8h308l-4 -54l-337 -370c71 -7 142 -21 221 -26l23 100l57 -4l-27 -159c-127 0 -222 27 -327 31l-43 -32l-40 48l375 405h-220l-18 -80h-57z" />
    <glyph glyph-name="Zdotaccent" unicode="&#x17b;" horiz-adv-x="602" 
d="M441 814c6 -7 9 -17 9 -27c0 -15 -6 -32 -19 -43c-10 -7 -23 -10 -36 -10s-26 3 -34 11c-7 7 -10 17 -10 27c0 15 7.02637 31.9648 20 42c9.01855 6.97559 23 11 36 11s26 -4 34 -11zM98 505l23 137l1 8l1 4l72 -4h429l-8 -57l-486 -528h341l22 90l61 -4l-27 -151h-513
l8 57l486 528h-328l-17 -80h-65z" />
    <glyph glyph-name="zdotaccent" unicode="&#x17c;" horiz-adv-x="488" 
d="M374 679c6 -7 9 -17 9 -27c0 -15 -6 -32 -19 -43c-10 -7 -23 -10 -36 -10s-26 3 -34 11c-7 7 -10 17 -10 27c0 15 7.02637 31.9648 20 42c9.01855 6.97559 23 11 36 11s26 -4 34 -11zM87 359l25 149l64 -8h308l-4 -54l-337 -370c71 -7 142 -21 221 -26l23 100l57 -4
l-27 -159c-127 0 -222 27 -327 31l-43 -32l-40 48l375 405h-220l-18 -80h-57z" />
    <glyph glyph-name="Zcaron" unicode="&#x17d;" horiz-adv-x="602" 
d="M260 808l32 48l114 -96l144 96l19 -48l-148 -100h-46zM98 505l23 137l1 8l1 4l72 -4h429l-8 -57l-486 -528h341l22 90l61 -4l-27 -151h-513l8 57l486 528h-328l-17 -80h-65z" />
    <glyph glyph-name="zcaron" unicode="&#x17e;" horiz-adv-x="488" 
d="M187 673l32 48l114 -96l144 96l19 -48l-148 -100h-46zM87 359l25 149l64 -8h308l-4 -54l-337 -370c71 -7 142 -21 221 -26l23 100l57 -4l-27 -159c-127 0 -222 27 -327 31l-43 -32l-40 48l375 405h-220l-18 -80h-57z" />
    <glyph glyph-name="longs" unicode="&#x17f;" horiz-adv-x="273" 
d="M223 492l-115 -742h-79l117 750c0 202 80 263 181 263c36 0 69 -19 88 -32l10 23h47l-16 -140h-58l4 59c-11 11 -33 30 -64 30c-66 0 -115 -44 -115 -211z" />
    <glyph glyph-name="florin" unicode="&#x192;" horiz-adv-x="361" 
d="M412 614l4 59c-11 11 -34 30 -64 30c-65 0 -113 -43 -114 -203h170l-9 -63h-170l-75 -482c-25.0508 -160.992 -114 -219 -189 -219c-69 0 -86 18 -86 18l30 64s22 -10 57 -10c42 0 92 41 109 147l75 482h-60l8 60l62 3c0 202 80 263 182 263c36 0 69 -19 87 -33l10 24h47
l-16 -140h-58z" />
    <glyph glyph-name="dotlessj" unicode="&#x237;" horiz-adv-x="260" 
d="M-130 -246l26 64s22 -10 57 -10c42 0 93 51 110 157l73 472l-56 3l5 60h141l-83 -535c-25 -161 -116 -229 -192 -229c-68 0 -81 18 -81 18z" />
    <glyph glyph-name="circumflex" unicode="&#x2c6;" horiz-adv-x="385" 
d="M125 594l-19 48l148 101h44l117 -101l-33 -48l-114 95z" />
    <glyph glyph-name="caron" unicode="&#x2c7;" horiz-adv-x="384" 
d="M112 673l32 48l114 -96l144 96l19 -48l-148 -100h-46z" />
    <glyph glyph-name="breve" unicode="&#x2d8;" horiz-adv-x="404" 
d="M106 686l71 10v-1s6 -59 92 -59c85 0 111 59 111 59v1l67 -10s-35 -102 -186 -102c-150 0 -155 102 -155 102z" />
    <glyph glyph-name="dotaccent" unicode="&#x2d9;" horiz-adv-x="416" 
d="M351 679c6 -7 9 -17 9 -27c0 -15 -6 -32 -19 -43c-10 -7 -23 -10 -36 -10s-26 3 -34 11c-7 7 -10 17 -10 27c0 15 7.02637 31.9648 20 42c9.01855 6.97559 23 11 36 11s26 -4 34 -11z" />
    <glyph glyph-name="ring" unicode="&#x2da;" horiz-adv-x="471" 
d="M241 623c40 0 74 32 74 78c0 34 -22 57 -52 57c-40 0 -76 -32 -76 -79c0 -34 23 -56 54 -56zM236 587c-53 0 -87 35 -87 87c0 70 54 120 118 120c51 0 87 -37 87 -89c0 -69 -53 -118 -118 -118z" />
    <glyph glyph-name="ogonek" unicode="&#x2db;" horiz-adv-x="267" 
d="M157 -208l-6 -42c-81 0 -166 18 -166 100c0 115 166 174 166 174l18 -24s-125 -48 -125 -145c0 -52 58 -63 113 -63z" />
    <glyph glyph-name="tilde" unicode="&#x2dc;" horiz-adv-x="453" 
d="M126 608l-3 47s29 47 100 47c73 0 114 -51 173 -51c43 0 68 21 68 21l4 -42s-19 -38 -86 -38c-68 0 -111 49 -173 49c-46 0 -83 -33 -83 -33z" />
    <glyph glyph-name="hungarumlaut" unicode="&#x2dd;" horiz-adv-x="427" 
d="M281 602l87 145l44 -18l-73 -133zM133 602l86 145l45 -18l-73 -133z" />
    <glyph glyph-name="tonos" unicode="&#x384;" horiz-adv-x="235" 
d="M181 561l-38 12l92 188l52 -16z" />
    <glyph glyph-name="dieresistonos" unicode="&#x385;" horiz-adv-x="236" 
d="M166 561l-38 12l92 188l52 -16zM37 615c-15 16 -11 43 8 59c9 6 20 10 31 10s20 -4 27 -10c15 -16 11 -43 -8 -59c-10 -7 -21 -10 -31 -10s-20 3 -27 10zM261 615c-14 16 -10 43 9 59c8 6 19 10 30 10c10 0 20 -4 28 -10c15 -16 11 -43 -8 -59c-10 -7 -20 -10 -31 -10
s-21 3 -28 10z" />
    <glyph glyph-name="Alphatonos" unicode="&#x386;" horiz-adv-x="694" 
d="M156 561l-38 12l92 188l52 -16zM404 582l-174 -327h245zM-38 0l5 60l80 3l316 587h111l134 -591l76 -3l-8 -56h-227l7 48l67 2l-36 150h-287l-80 -148l68 -2l-7 -50h-219z" />
    <glyph glyph-name="Epsilontonos" unicode="&#x388;" horiz-adv-x="665" 
d="M85 561l-38 12l92 188l52 -16zM580 505l6 80h-251l-35 -226l293 1l-9 -63h-294l-36 -232h280l22 90l61 -4l-27 -151h-505l5 60l80 3l82 528l-79 3l4 56h415l73 4l-9 -69l-10 -80h-66z" />
    <glyph glyph-name="Etatonos" unicode="&#x389;" horiz-adv-x="828" 
d="M85 561l-38 12l92 188l52 -16zM606 590l4 60h245l-9 -60l-78 -3l-81 -528l77 -3l-7 -56h-238l4 60l80 3l35 228h-349l-36 -229l78 -2l-8 -60h-238l5 60l80 3l82 528l-79 3l4 56h245l-9 -60l-78 -3l-36 -233h349l36 233z" />
    <glyph glyph-name="Iotatonos" unicode="&#x38a;" horiz-adv-x="396" 
d="M85 561l-38 12l92 188l52 -16zM173 594l4 56h245l-9 -60l-78 -3l-82 -528l78 -3l-8 -56h-238l5 60l80 3l82 528z" />
    <glyph glyph-name="Omicrontonos" unicode="&#x38c;" horiz-adv-x="783" 
d="M112 561l-38 12l92 188l52 -16zM383 54c150 0 256 113 282 280c4 22 5 43 5 63c0 127 -73 198 -201 198c-173 0 -283 -117 -283 -315c0 -133 70 -226 197 -226zM752 334c-32.5459 -206.914 -174 -348 -379 -348c-176 0 -273 120 -273 291c0 238 146 386 378 386
c179 0 280 -95 280 -258c0 -22 -2.06641 -45.9893 -6 -71z" />
    <glyph glyph-name="Upsilontonos" unicode="&#x38e;" horiz-adv-x="632" 
d="M-31 561l-38 12l92 188l52 -16zM30 594l5 56h242l-8 -56l-53 -2l129 -252l205 251l-49 2l8 57h226l-9 -60l-92 -2l-259 -318l-33 -208l78 -2l-9 -60h-238l5 60l80 3l32 206l-168 322z" />
    <glyph glyph-name="Omegatonos" unicode="&#x38f;" horiz-adv-x="781" 
d="M112 561l-38 12l92 188l52 -16zM53 0l12 106l45 4v-50h165l6 4c-56 24 -173 93 -173 256c0 193 132 343 369 343c184 0 278 -102 278 -249c0 -232 -189 -322 -268 -350l5 -4h165l16 50l43 -4l-20 -106h-264l10 104s226 76 226 306c0 109 -66 185 -200 185
c-178 0 -273 -115 -273 -269c0 -165 141 -222 141 -222l-19 -104h-264z" />
    <glyph glyph-name="iotadieresistonos" unicode="&#x390;" horiz-adv-x="259" 
d="M186 561l-38 12l92 188l52 -16zM73 440l4 60h143l-62 -399c-1 -38 12 -42 24 -42c16 0 48 2 48 2l-4 -56s-51 -11 -99 -11c-34 0 -55 12 -55 56c0 8 0 18 2 29l56 358zM65 615c-15 16 -11 43 8 59c8 6 19 10 30 10s21 -4 28 -10c15 -16 11 -43 -8 -59
c-10 -7 -21 -10 -31 -10s-20 3 -27 10zM289 615c-15 16 -10 43 8 59c9 6 20 10 31 10s20 -4 28 -10c15 -16 10 -43 -8 -59c-10 -7 -22 -10 -32 -10c-11 0 -20 3 -27 10z" />
    <glyph glyph-name="Alpha" unicode="&#x391;" horiz-adv-x="694" 
d="M404 582l-174 -327h245zM-38 0l5 60l80 3l316 587h111l134 -591l76 -3l-8 -56h-227l7 48l67 2l-36 150h-287l-80 -148l68 -2l-7 -50h-219z" />
    <glyph glyph-name="Beta" unicode="&#x392;" horiz-adv-x="626" 
d="M222 363h152c45 0 130 41 130 142c0 62 -48 84 -131 84h-116zM370 308h-156l-38 -246h116c147 0 202 62 202 156c0 64 -47 90 -124 90zM104 594l4 56h278c136 0 199 -51 199 -132c0 -84 -56 -139 -111 -171c64 -19 101 -63 101 -127c0 -121 -78 -220 -287 -220h-272l5 60
l80 3l82 528z" />
    <glyph glyph-name="Gamma" unicode="&#x393;" horiz-adv-x="483" 
d="M467 485l9 100h-210l-82 -526l88 -3l-8 -56h-248l5 60l80 3l82 528l-79 3l4 56h374l73 4l-21 -169h-67z" />
    <glyph glyph-name="Delta" unicode="&#x394;" horiz-adv-x="659" 
d="M388 586l-293 -519h424zM4 0l9 65l332 585h110l150 -585l-5 -65h-596z" />
    <glyph glyph-name="Epsilon" unicode="&#x395;" 
d="M511 505l6 80h-251l-35 -226l293 1l-9 -63h-294l-36 -232h280l22 90l61 -4l-27 -151h-505l5 60l80 3l82 528l-79 3l4 56h415l73 4l-9 -69l-10 -80h-66z" />
    <glyph glyph-name="Zeta" unicode="&#x396;" horiz-adv-x="602" 
d="M98 505l23 137l1 8l1 4l72 -4h429l-8 -57l-486 -528h341l22 90l61 -4l-27 -151h-513l8 57l486 528h-328l-17 -80h-65z" />
    <glyph glyph-name="Eta" unicode="&#x397;" horiz-adv-x="760" 
d="M537 590l4 60h245l-9 -60l-78 -3l-81 -528l77 -3l-7 -56h-238l4 60l80 3l35 228h-349l-36 -229l78 -2l-8 -60h-238l5 60l80 3l82 528l-79 3l4 56h245l-9 -60l-78 -3l-36 -233h349l36 233z" />
    <glyph glyph-name="Theta" unicode="&#x398;" horiz-adv-x="754" 
d="M353 54c150 0 256 113 282 280c4 22 5 43 5 63c0 127 -73 198 -201 198c-173 0 -283 -117 -283 -315c0 -133 70 -226 197 -226zM722 334c-32.5459 -206.914 -174 -348 -379 -348c-176 0 -273 120 -273 291c0 238 146 386 378 386c179 0 280 -95 280 -258
c0 -22 -2.06641 -45.9893 -6 -71zM255 290l5 63h279l-8 -63h-276z" />
    <glyph glyph-name="Iota" unicode="&#x399;" horiz-adv-x="327" 
d="M104 594l4 56h245l-9 -60l-78 -3l-82 -528l78 -3l-8 -56h-238l5 60l80 3l82 528z" />
    <glyph glyph-name="Kappa" unicode="&#x39a;" horiz-adv-x="706" 
d="M104 594l4 56h237l-8 -52l-70 -3l-45 -289l101 62l241 230l-44 2l7 50h227l-9 -60l-106 -3l-255 -245l199 -281l105 -1l-8 -60h-155l-34 34l-179 254l-103 -64l-25 -162l78 -2l-8 -60h-238l5 60l80 3l82 528z" />
    <glyph glyph-name="Lambda" unicode="&#x39b;" horiz-adv-x="675" 
d="M-38 0l5 60l79 3l307 587h111l125 -591l76 -3l-8 -56h-228l8 52l67 6l-109 523l-272 -526l70 -2l-8 -53h-223z" />
    <glyph glyph-name="Mu" unicode="&#x39c;" horiz-adv-x="993" 
d="M104 594l5 56h192l179 -564h1l354 564h184l-8 -60l-79 -3l-80 -525l78 -2l-9 -60h-227l4 52l72 3l76 481h-1l-339 -536h-81l-170 536h-1l-77 -483l71 -3l-7 -50h-225l5 60l80 3l82 528z" />
    <glyph glyph-name="Nu" unicode="&#x39d;" horiz-adv-x="781" 
d="M550 -6l-300 537h-1v-31l-71 -439l79 -4l-8 -57h-233l5 60l80 3l82 528l-79 3l4 56h172l297 -545l1 24l72 460l-79 4l4 57h240l-9 -60l-77 -3l-92 -593h-87z" />
    <glyph glyph-name="Xi" unicode="&#x39e;" horiz-adv-x="602" 
d="M160 291l6 63h314l-8 -63h-312zM90 505l24 145h514l-18 -145h-61l6 78h-389l-17 -78h-59zM14 0l20 151l60 4l-8 -88h389l20 88l59 -4l-27 -151h-513z" />
    <glyph glyph-name="Omicron" unicode="&#x39f;" horiz-adv-x="754" 
d="M353 54c150 0 256 113 282 280c4 22 5 43 5 63c0 127 -73 198 -201 198c-173 0 -283 -117 -283 -315c0 -133 70 -226 197 -226zM722 334c-32.5459 -206.914 -174 -348 -379 -348c-176 0 -273 120 -273 291c0 238 146 386 378 386c179 0 280 -95 280 -258
c0 -22 -2.06641 -45.9893 -6 -71z" />
    <glyph glyph-name="Pi" unicode="&#x3a0;" horiz-adv-x="741" 
d="M104 594l4 56h659l-7 -56l-78 -3l-82 -529l79 -2l-9 -60h-239l5 60l81 3l81 522h-332l-82 -523l78 -2l-8 -60h-238l5 60l80 3l82 528z" />
    <glyph glyph-name="Rho" unicode="&#x3a1;" horiz-adv-x="575" 
d="M345 588h-85l-47 -302h82c101 0 198 53 198 188c0 83 -58 114 -148 114zM104 594l4 56h260c133 0 213 -49 213 -162c0 -185 -150 -261 -278 -261h-99l-27 -172l92 -3l-7 -52h-246l5 60l80 3l82 528z" />
    <glyph glyph-name="Sigma" unicode="&#x3a3;" horiz-adv-x="578" 
d="M520 501l6 84h-296l127 -258l-231 -260h339l20 88l63 -4l-27 -151h-507l9 62l239 265l-130 262v61h399l72 4l-17 -153h-66z" />
    <glyph glyph-name="Tau" unicode="&#x3a4;" horiz-adv-x="536" 
d="M524 497l5 88h-159l-81 -523l78 -2l-8 -60h-238l4 60l80 3l80 522h-156l-22 -88h-60l26 157l72 -4h388l73 4l-20 -157h-62z" />
    <glyph glyph-name="Upsilon" unicode="&#x3a5;" horiz-adv-x="632" 
d="M30 594l5 56h242l-8 -56l-53 -2l129 -252l205 251l-49 2l8 57h226l-9 -60l-92 -2l-259 -318l-33 -208l78 -2l-9 -60h-238l5 60l80 3l32 206l-168 322z" />
    <glyph glyph-name="Phi" unicode="&#x3a6;" horiz-adv-x="795" 
d="M144 308c0 -97 72 -135 211 -136l51 327c-174 -1 -262 -41 -262 -191zM697 374c0 98 -76 124 -216 125l-51 -327c173 1 267 57 267 202zM345 617l3 49h235l-6 -49l-78 -3l-10 -62c180 -1 294 -39 294 -174c0 -185 -142 -259 -361 -260l-10 -62l87 -3l-8 -53h-244l4 53
l86 3l10 62c-178 1 -290 54 -290 189c0 189 137 244 357 245l10 62z" />
    <glyph glyph-name="Chi" unicode="&#x3a7;" horiz-adv-x="689" 
d="M513 593l8 57h230l-8 -60l-98 -2l-230 -261l156 -266l99 -1l-8 -60h-238l7 56l43 1l-119 211l-185 -209l44 -1l-8 -58h-234l5 60l101 2l236 262l-152 267l-95 3l4 56h238l-7 -56l-44 -2l117 -209l182 208z" />
    <glyph glyph-name="Psi" unicode="&#x3a8;" horiz-adv-x="818" 
d="M270 0l4 60l80 3l21 133c-184 3 -269 87 -269 210c0 15 2 31 4 47l21 138l-79 3l5 56h168l-29 -185c-2 -15 -4 -29 -4 -42c0 -99 66 -158 193 -159l53 339l-79 2l9 61h231l-8 -61l-78 -2l-52 -339c141 3 225 73 244 194l30 192h147l-8 -56l-64 -3l-22 -145
c-23 -149 -128 -248 -337 -250l-21 -134l78 -2l-9 -60h-229z" />
    <glyph glyph-name="Omega" unicode="&#x3a9;" horiz-adv-x="753" 
d="M25 0l12 106l45 4v-50h165l6 4c-56 24 -173 93 -173 256c0 193 132 343 369 343c184 0 278 -102 278 -249c0 -232 -189 -322 -268 -350l5 -4h165l16 50l43 -4l-20 -106h-264l10 104s226 76 226 306c0 109 -66 185 -200 185c-178 0 -273 -115 -273 -269
c0 -165 141 -222 141 -222l-19 -104h-264z" />
    <glyph glyph-name="Iotadieresis" unicode="&#x3aa;" horiz-adv-x="327" 
d="M133 764c-15 16 -10 45 8 61c9 6 20 10 31 10s22 -4 29 -10c15 -16 11 -45 -8 -61c-9 -7 -21 -10 -32 -10s-21 3 -28 10zM309 764c-14 16 -11 45 9 61c9 6 20 10 31 10s21 -4 29 -10c13 -16 10 -45 -9 -61c-9 -7 -21 -10 -32 -10s-21 3 -28 10zM104 594l4 56h245l-9 -60
l-78 -3l-82 -528l78 -3l-8 -56h-238l5 60l80 3l82 528z" />
    <glyph glyph-name="Upsilondieresis" unicode="&#x3ab;" horiz-adv-x="632" 
d="M303 749c-15 16 -10 45 8 61c9 6 20 10 31 10s22 -4 29 -10c15 -16 11 -45 -8 -61c-9 -7 -21 -10 -32 -10s-21 3 -28 10zM479 749c-14 16 -11 45 9 61c9 6 20 10 31 10s21 -4 29 -10c13 -16 10 -45 -9 -61c-9 -7 -21 -10 -32 -10s-21 3 -28 10zM30 594l5 56h242l-8 -56
l-53 -2l129 -252l205 251l-49 2l8 57h226l-9 -60l-92 -2l-259 -318l-33 -208l78 -2l-9 -60h-238l5 60l80 3l32 206l-168 322z" />
    <glyph glyph-name="alphatonos" unicode="&#x3ac;" horiz-adv-x="592" 
d="M357 561l-38 12l92 188l52 -16zM274 48c98 0 143 76 143 76l40 272c-2 5 -32 57 -114 57c-146 0 -216 -88 -216 -247c0 -97 58 -158 147 -158zM406 0l2 58c-11 -16 -60 -72 -166 -72c-117 0 -197 91 -197 221c0 179 97 307 286 307c100 0 135 -57 135 -57h2l12 43h74
l-68 -441l58 -3l-12 -56h-126z" />
    <glyph glyph-name="epsilontonos" unicode="&#x3ad;" horiz-adv-x="469" 
d="M297 561l-38 12l92 188l52 -16zM250 283h92l-7 -52h-94c-76 0 -126 -30 -126 -92c0 -50 46 -95 129 -95c116 0 155 68 155 68l34 -34s-39 -92 -203 -92c-117 0 -195 64 -195 145c0 83 61 123 118 138c-30 20 -56 52 -56 100c0 91 68 145 175 145c61 0 101 -27 123 -47
l13 37h51l-18 -137h-62l3 46c-11 16 -38 44 -93 44c-77 0 -117 -35 -117 -90c0 -71 78 -84 78 -84z" />
    <glyph glyph-name="etatonos" unicode="&#x3ae;" horiz-adv-x="588" 
d="M447 -250h-80s91 587 92 594c12 72 -28 102 -107 102c-95 0 -149 -51 -149 -51l-61 -395h-80l67 437l-57 3l5 60h133l-1 -45c7 7 63 59 180 59c97 0 155 -37 155 -121c0 -11 -1 -22 -3 -34zM361 561l-38 12l92 188l52 -16z" />
    <glyph glyph-name="iotatonos" unicode="&#x3af;" horiz-adv-x="259" 
d="M203 561l-38 12l92 188l52 -16zM73 440l4 60h143l-62 -399c-1 -38 12 -42 24 -42c16 0 48 2 48 2l-4 -56s-51 -11 -99 -11c-34 0 -55 12 -55 56c0 8 0 18 2 29l56 358z" />
    <glyph glyph-name="upsilondieresistonos" unicode="&#x3b0;" horiz-adv-x="580" 
d="M349 561l-38 12l92 188l52 -16zM406 440l8 60h140l-52 -331c-16 -110 -102 -183 -238 -183c-121 0 -189 59 -189 151c0 10 1 21 3 32l41 268l-57 3l5 60h142l-51 -324c-11 -75 33 -126 112 -126s141 51 152 126l41 261zM224 614c-15 16 -11 45 8 61c9 6 20 10 31 10
s22 -4 29 -10c15 -16 10 -45 -8 -61c-10 -7 -21 -10 -32 -10s-22 3 -28 10zM448 614c-14 16 -10 45 9 61c8 6 19 10 30 10s21 -4 29 -10c15 -16 11 -45 -8 -61c-9 -7 -21 -10 -32 -10s-21 3 -28 10z" />
    <glyph glyph-name="alpha" unicode="&#x3b1;" horiz-adv-x="598" 
d="M269 48c92 0 142 67 147 74l44 284c-3 5 -36 47 -117 47c-148 0 -216 -94 -216 -253c0 -97 53 -152 142 -152zM553 500l-57 -374c-1.98145 -13.0029 -3 -24 -3 -33c0 -31 12 -34 23 -34c16 0 48 2 48 2l-4 -56s-51 -11 -99 -11c-38 0 -56 15 -50 67
c-5 -6 -59 -75 -175 -75c-117 0 -191 85 -191 215c0 180 102 313 284 313c106 0 142 -51 142 -51l19 37h63z" />
    <glyph glyph-name="beta" unicode="&#x3b2;" horiz-adv-x="584" 
d="M304 391l8 58s160 29 160 166c0 57 -34 87 -102 87c-95 0 -135.472 -55.0811 -151 -155l-69 -444c6 -11 34 -56 117 -56c126 0 210 105 210 226c0 84 -52 118 -173 118zM15 -250l125 807c22.2754 143.809 103 206 239 206c110 0 173 -50 173 -138
c0 -99 -67 -158 -127 -191c86 -21 135 -71 135 -162c0 -153 -114 -286 -275 -286c-115 0 -143 64 -143 64h-1l-46 -300h-80z" />
    <glyph glyph-name="gamma" unicode="&#x3b3;" horiz-adv-x="502" 
d="M380 443l8 57h134l-2 -38c-69 -171 -155 -318 -252 -462h-1l-37 -250h-81l38 250l-104 437l-69 3l5 60h138l89 -422h2c75 112 135 228 188 359z" />
    <glyph glyph-name="delta" unicode="&#x3b4;" horiz-adv-x="566" 
d="M264 45c131 0 201 100 201 260c0 93 -44 150 -137 150c-131 0 -201 -94 -201 -256c0 -94 44 -154 137 -154zM255 -14c-140 0 -210 85 -210 216c0 143 60 250 173 292c-29 23 -48 57 -48 106c0 116 112 163 220 163c85 0 136 -8 153 -12l18 2l-11 -103h-57v42
c-30 3 -68 6 -110 6c-72 0 -144 -22 -144 -102c0 -54 36 -77 82 -82h15c141 0 212 -79 212 -209c0 -186 -109 -319 -293 -319z" />
    <glyph glyph-name="epsilon" unicode="&#x3b5;" horiz-adv-x="469" 
d="M250 283h92l-7 -52h-94c-76 0 -126 -30 -126 -92c0 -50 46 -95 129 -95c116 0 155 68 155 68l34 -34s-39 -92 -203 -92c-117 0 -195 64 -195 145c0 83 61 123 118 138c-30 20 -56 52 -56 100c0 91 68 145 175 145c61 0 101 -27 123 -47l13 37h51l-18 -137h-62l3 46
c-11 16 -38 44 -93 44c-77 0 -117 -35 -117 -90c0 -71 78 -84 78 -84z" />
    <glyph glyph-name="zeta" unicode="&#x3b6;" horiz-adv-x="441" 
d="M138 779l57 3l-1 -32h337l-8 -55c-157 -151 -384 -377 -384 -522c0 -97 102 -114 197 -114c69 0 102 -20 102 -68c0 -76 -55 -164 -55 -164l-63 8s46 73 46 127c0 33 -28 38 -84 38c-110 0 -227 27 -227 157c0 152 216 386 370 530h-232l-65 -4z" />
    <glyph glyph-name="eta" unicode="&#x3b7;" horiz-adv-x="588" 
d="M447 -250h-80s91 587 92 594c12 72 -28 102 -107 102c-95 0 -149 -51 -149 -51l-61 -395h-80l67 437l-57 3l5 60h133l-1 -45c7 7 63 59 180 59c97 0 155 -37 155 -121c0 -11 -1 -22 -3 -34z" />
    <glyph glyph-name="theta" unicode="&#x3b8;" horiz-adv-x="587" 
d="M268 44c119 0 196 101 221 298h-346c-1 -28 -2 -58 -2 -90c0 -133 41 -208 127 -208zM370 705c-124 0 -199 -93 -222 -298h347c2 31 4 63 4 98c0 132 -43 200 -129 200zM263 -14c-131 0 -200 97 -200 279c0 301 94 498 311 498c133 0 203 -88 203 -267
c0 -292 -101 -510 -314 -510z" />
    <glyph glyph-name="iota" unicode="&#x3b9;" horiz-adv-x="259" 
d="M73 440l4 60h143l-62 -399c-1 -38 12 -42 24 -42c16 0 48 2 48 2l-4 -56s-51 -11 -99 -11c-34 0 -55 12 -55 56c0 8 0 18 2 29l56 358z" />
    <glyph glyph-name="kappa" unicode="&#x3ba;" horiz-adv-x="531" 
d="M417 -6c-44 0 -102 120 -154 235l-93 -48l-28 -181h-80l67 437l-64 3l4 60h150l-38 -245l99 56c52 43 97 89 132 133l-39 2l8 54h137l-4 -36c-32 -47 -106 -133 -181 -192c48 -102 100 -213 124 -213c16 0 51 2 51 2l-3 -56s-40 -11 -88 -11z" />
    <glyph glyph-name="lambda" unicode="&#x3bb;" horiz-adv-x="521" 
d="M169 690l2 60h154c5 -30 25.3525 -127.115 56 -298c33 -184 77 -393 93 -393s50 4 50 4l-2 -53s-44 -16 -99 -16c-35 0 -77 202 -109 394h-2c-51 -46 -158 -228 -209 -326l60 -4l-9 -58h-146l5 38c3 13 205 354 288 435c-20 112 -36 178 -45 215z" />
    <glyph glyph-name="mu" unicode="&#x3bc;" horiz-adv-x="602" 
d="M416 440l4 60h144l-62 -395c-3 -42 10 -46 23 -46c16 0 47 2 47 2l-3 -56s-51 -11 -100 -11c-33 0 -50 11 -49 53h-2s-58 -61 -181 -61c-38 0 -70 8 -94 22l-40 -258h-81l61 388c1 8 1 15 3 23l42 276l-56 3l5 60h142l-34 -217l-11 -69l-8 -49c-5 -66 33 -110 108 -110
c95 0 148 50 148 50l51 332z" />
    <glyph glyph-name="nu" unicode="&#x3bd;" horiz-adv-x="509" 
d="M398 443l5 57h149c-35 -136 -151 -319 -296 -500h-75l-98 437l-68 3l5 60h139l87 -417h1c79 103 168 242 213 354z" />
    <glyph glyph-name="xi" unicode="&#x3be;" horiz-adv-x="474" 
d="M450 605l4 61c-13 13 -42 37 -96 37c-74 0 -134 -39 -134 -135c0 -104 113 -123 157 -123h71l-5 -58h-68c-190 0 -248 -63 -248 -177c0 -116 100 -151 214 -151c72 0 107 -20 107 -69c0 -82 -68 -163 -68 -163l-51 8s46 73 46 127c0 33 -24 38 -82 38
c-106 0 -250 48 -250 201c0 124 58 195 186 223c-46 25 -88 70 -88 145c0 138 94 194 199 194c58 0 98 -25 121 -43l14 34h51l-18 -149h-62z" />
    <glyph glyph-name="omicron" unicode="&#x3bf;" horiz-adv-x="566" 
d="M264 45c131 0 201 100 201 260c0 93 -44 150 -137 150c-131 0 -201 -94 -201 -256c0 -94 44 -154 137 -154zM255 -14c-140 0 -210 85 -210 216c0 187 102 312 291 312c141 0 212 -79 212 -209c0 -186 -109 -319 -293 -319z" />
    <glyph glyph-name="pi" unicode="&#x3c0;" horiz-adv-x="592" 
d="M408 79l56 358h-254l-68 -437h-80l67 437l-57 3l5 60h476l-58 -374c-2 -13 -3 -24 -3 -33c0 -31 12 -34 23 -34c16 0 48 2 48 2l-3 -56s-51 -11 -100 -11c-33 0 -55 12 -55 55c0 9 1 19 3 30z" />
    <glyph glyph-name="rho" unicode="&#x3c1;" horiz-adv-x="572" 
d="M173 310l-33 -208c8 -13 41 -57 115 -57c154 0 219 135 219 275c0 94 -48 135 -138 135c-98 0 -150.634 -67.0576 -163 -145zM6 -250l85 554c18.252 118.962 106 210 256 210c139 0 210 -68 210 -193c0 -176 -103 -334 -283 -334c-106 0 -142 59 -142 59l-46 -296h-80z
" />
    <glyph glyph-name="sigma1" unicode="&#x3c2;" horiz-adv-x="494" 
d="M421 335l5 73c-12 14 -49 47 -116 47c-121 0 -181 -73 -181 -234c0 -110 74 -162 185 -162c62 0 89 -20 89 -69c0 -82 -73 -163 -73 -163l-50 8s51 73 51 128c0 29 -13 37 -61 37c-136 0 -225 77 -225 214c0 191 90 300 253 300c67 0 114 -28 140 -49l15 39h51l-22 -169
h-61z" />
    <glyph glyph-name="sigma" unicode="&#x3c3;" horiz-adv-x="604" 
d="M452 449l-68 4l-56 2c-131 0 -200 -85 -200 -250c0 -95 42 -161 136 -161c130 0 200 110 201 276c0 63 -11 117 -13 129zM336 514c70 0 244 -14 286 -14l-5 -61c-20 0 -55 2 -94 5v-1s19 -66 19 -141c0 -176 -104 -316 -287 -316c-140 0 -209 90 -209 222
c0 191 101 306 290 306z" />
    <glyph glyph-name="tau" unicode="&#x3c4;" horiz-adv-x="393" 
d="M63 437l1 60l90 3h264l-9 -64h-186l-44 -284c-2 -15 -4 -28 -4 -39c0 -42 17 -62 53 -62c47 0 84 10 84 10l-7 -54s-36 -21 -110 -21c-69 0 -103 31 -103 102c0 14 1 29 4 46l41 269l9 34h-83z" />
    <glyph glyph-name="upsilon" unicode="&#x3c5;" horiz-adv-x="580" 
d="M406 440l8 60h140l-52 -331c-16 -110 -102 -183 -238 -183c-121 0 -189 59 -189 151c0 10 1 21 3 32l41 268l-57 3l5 60h142l-51 -324c-11 -75 33 -126 112 -126s141 51 152 126l41 261z" />
    <glyph glyph-name="phi" unicode="&#x3c6;" horiz-adv-x="687" 
d="M591 308c0 100 -56 146 -165 147l-64 -410c155 2 229 112 229 263zM125 210c0 -102 53 -164 161 -165l64 410c-146 -2 -225 -72 -225 -245zM329 690l4 60h139l-37 -236c149 -2 234 -75 234 -208c0 -187 -116 -320 -315 -320h-1l-36 -236h-76l36 236
c-149 3 -230 92 -230 228c0 191 110 300 311 300h1l27 173z" />
    <glyph glyph-name="chi" unicode="&#x3c7;" horiz-adv-x="560" 
d="M401 447l1 53h150l-6 -38c-2 -8 -108 -133 -195 -220c55 -95 116 -183 141 -183c16 0 59 2 59 2l-3 -56s-48 -11 -96 -11c-43 0 -114 104 -175 223h-3c-41 -39 -107 -105 -151 -155l45 -4l-9 -58h-145l6 38c5 11 141 151 219 225l-105 174l-86 3l2 60h139l119 -212h2
c42 41 105 104 143 154z" />
    <glyph glyph-name="psi" unicode="&#x3c8;" horiz-adv-x="739" 
d="M47 440l5 60h147l-43 -279c-2 -10 -2 -20 -2 -29c0 -86 65 -142 156 -142l98 637l-57 3l6 60h138l-109 -700c105 2 196 71 212 171l33 216l-58 7l8 56h136l-45 -293c-21 -134 -147 -220 -296 -221l-36 -236h-76l36 236c-129 2 -225 74 -225 187c0 11 1 22 3 34l35 230z
" />
    <glyph glyph-name="omega" unicode="&#x3c9;" horiz-adv-x="781" 
d="M358 202l25 160h74l-25 -160c-4 -22 -6 -43 -6 -61c0 -52 20 -86 87 -86c109 0 166 127 166 274c0 113 -38 159 -38 159l68 20c1 0 48 -44 48 -173c0 -204 -83 -349 -247 -349c-77 0 -116 42 -134 92c-33 -50 -84 -92 -160 -92c-109 0 -162 80 -162 209
c0 233 122 313 124 313l61 -20c-6 -4 -108 -91 -108 -286c0 -88 33 -147 100 -147c92 0 113 61 127 147z" />
    <glyph glyph-name="iotadieresis" unicode="&#x3ca;" horiz-adv-x="259" 
d="M78 614c-15 16 -10 45 8 61c9 6 20 10 31 10s22 -4 29 -10c15 -16 11 -45 -8 -61c-9 -7 -21 -10 -32 -10s-21 3 -28 10zM254 614c-14 16 -11 45 9 61c9 6 20 10 31 10s21 -4 29 -10c13 -16 10 -45 -9 -61c-9 -7 -21 -10 -32 -10s-21 3 -28 10zM73 440l4 60h143l-62 -399
c-1 -38 12 -42 24 -42c16 0 48 2 48 2l-4 -56s-51 -11 -99 -11c-34 0 -55 12 -55 56c0 8 0 18 2 29l56 358z" />
    <glyph glyph-name="upsilondieresis" unicode="&#x3cb;" horiz-adv-x="580" 
d="M235 614c-15 16 -10 45 8 61c9 6 20 10 31 10s22 -4 29 -10c15 -16 11 -45 -8 -61c-9 -7 -21 -10 -32 -10s-21 3 -28 10zM411 614c-14 16 -11 45 9 61c9 6 20 10 31 10s21 -4 29 -10c13 -16 10 -45 -9 -61c-9 -7 -21 -10 -32 -10s-21 3 -28 10zM406 440l8 60h140
l-52 -331c-16 -110 -102 -183 -238 -183c-121 0 -189 59 -189 151c0 10 1 21 3 32l41 268l-57 3l5 60h142l-51 -324c-11 -75 33 -126 112 -126s141 51 152 126l41 261z" />
    <glyph glyph-name="omicrontonos" unicode="&#x3cc;" horiz-adv-x="566" 
d="M350 561l-38 12l92 188l52 -16zM264 45c131 0 201 100 201 260c0 93 -44 150 -137 150c-131 0 -201 -94 -201 -256c0 -94 44 -154 137 -154zM255 -14c-140 0 -210 85 -210 216c0 187 102 312 291 312c141 0 212 -79 212 -209c0 -186 -109 -319 -293 -319z" />
    <glyph glyph-name="upsilontonos" unicode="&#x3cd;" horiz-adv-x="580" 
d="M353 561l-38 12l92 188l52 -16zM406 440l8 60h140l-52 -331c-16 -110 -102 -183 -238 -183c-121 0 -189 59 -189 151c0 10 1 21 3 32l41 268l-57 3l5 60h142l-51 -324c-11 -75 33 -126 112 -126s141 51 152 126l41 261z" />
    <glyph glyph-name="omegatonos" unicode="&#x3ce;" horiz-adv-x="781" 
d="M457 561l-38 12l92 188l52 -16zM358 202l25 160h74l-25 -160c-4 -22 -6 -43 -6 -61c0 -52 20 -86 87 -86c109 0 166 127 166 274c0 113 -38 159 -38 159l68 20c1 0 48 -44 48 -173c0 -204 -83 -349 -247 -349c-77 0 -116 42 -134 92c-33 -50 -84 -92 -160 -92
c-109 0 -162 80 -162 209c0 233 122 313 124 313l61 -20c-6 -4 -108 -91 -108 -286c0 -88 33 -147 100 -147c92 0 113 61 127 147z" />
    <glyph glyph-name="uni0400" unicode="&#x400;" 
d="M442 712l-58 -5l-93 139l78 9zM511 505l6 80h-251l-35 -226l293 1l-9 -63h-294l-36 -232h280l22 90l61 -4l-27 -151h-505l5 60l80 3l82 528l-79 3l4 56h415l73 4l-9 -69l-10 -80h-66z" />
    <glyph glyph-name="afii10023" unicode="&#x401;" 
d="M290 749c-15 16 -10 45 8 61c9 6 20 10 31 10s22 -4 29 -10c15 -16 11 -45 -8 -61c-9 -7 -21 -10 -32 -10s-21 3 -28 10zM466 749c-14 16 -11 45 9 61c9 6 20 10 31 10s21 -4 29 -10c13 -16 10 -45 -9 -61c-9 -7 -21 -10 -32 -10s-21 3 -28 10zM511 505l6 80h-251
l-35 -226l293 1l-9 -63h-294l-36 -232h280l22 90l61 -4l-27 -151h-505l5 60l80 3l82 528l-79 3l4 56h415l73 4l-9 -69l-10 -80h-66z" />
    <glyph glyph-name="afii10051" unicode="&#x402;" horiz-adv-x="746" 
d="M513 511l5 76h-153l-40 -260s85 73 210 73c113 0 159 -41 159 -121c0 -13 -2 -27 -4 -43l-8 -49c-24 -161 -103 -201 -181 -201c-83 0 -109 45 -109 45l12 51c1 -2 23 -35 72 -35c43 0 103 19 120 124h1l7 47c1.9375 13.0098 3 25 3 35c0 58 -34 77 -113 77
c-93 0 -168 -57 -179 -66l-31 -205l70 -3l-7 -56h-230l4 60l79 3l81 524h-151l-17 -76h-65l25 143l72 -4h378l73 4l-17 -143h-66z" />
    <glyph glyph-name="afii10052" unicode="&#x403;" horiz-adv-x="483" 
d="M368 707l-56 4l116 143l77 -8zM467 485l9 100h-210l-82 -526l88 -3l-8 -56h-248l5 60l80 3l82 528l-79 3l4 56h374l73 4l-21 -169h-67z" />
    <glyph glyph-name="afii10053" unicode="&#x404;" horiz-adv-x="662" 
d="M568 467l7 82c-18 16 -64 46 -145 46c-135 0 -245 -83 -268 -253h389l-9 -62h-385v-10c0 -138 93 -216 228 -216c138 0 210 94 210 94l30 -48s-77 -114 -255 -114c-173 0 -301 114 -301 295c0 226 151 382 358 382c80 0 133 -32 159 -55l18 46h50l-23 -187h-63z" />
    <glyph glyph-name="afii10054" unicode="&#x405;" horiz-adv-x="574" 
d="M479 501l4 57c-14 14 -49 43 -113 43c-102 0 -163 -46 -163 -123c0 -139 317 -103 317 -284c0 -124 -99 -208 -266 -208c-143 0 -211 40 -211 40l19 143l58 4l-5 -101c30 -11 77 -24 139 -24c122 0 182 62 182 133c0 133 -317 97 -317 288c0 120 97 194 239 194
c63 0 108 -31 132 -53l19 44h51l-19 -153h-66z" />
    <glyph glyph-name="afii10055" unicode="&#x406;" horiz-adv-x="327" 
d="M104 594l4 56h245l-9 -60l-78 -3l-82 -528l78 -3l-8 -56h-238l5 60l80 3l82 528z" />
    <glyph glyph-name="afii10056" unicode="&#x407;" horiz-adv-x="327" 
d="M131 749c-15 16 -10 45 8 61c9 6 20 10 31 10s22 -4 29 -10c15 -16 11 -45 -8 -61c-9 -7 -21 -10 -32 -10s-21 3 -28 10zM307 749c-14 16 -11 45 9 61c9 6 20 10 31 10s21 -4 29 -10c13 -16 10 -45 -9 -61c-9 -7 -21 -10 -32 -10s-21 3 -28 10zM104 594l4 56h245l-9 -60
l-78 -3l-82 -528l78 -3l-8 -56h-238l5 60l80 3l82 528z" />
    <glyph glyph-name="afii10057" unicode="&#x408;" horiz-adv-x="445" 
d="M226 594l4 56h244l-8 -60l-65 -3l-61 -400c-25 -161 -107 -201 -207 -201c-94 0 -135 23 -135 23l13 139l60 4l-8 -92c16 -5 37 -10 70 -10c47 0 105 23 123 137l63 404z" />
    <glyph glyph-name="afii10058" unicode="&#x409;" horiz-adv-x="1006" 
d="M699 330h-93l-41 -269h93c142 0 217 64 217 166c0 76 -66 103 -176 103zM185 592l5 58h543l-9 -56l-77 -3l-32 -202h92c156 0 250 -45 250 -152c0 -136 -101 -237 -303 -237h-258l5 60l80 3l81 522h-212c-63 -402 -180 -596 -308 -596c-36 0 -51 11 -51 11l13 69
s11 -5 30 -5c94 0 176 157 239 525z" />
    <glyph glyph-name="afii10059" unicode="&#x40a;" horiz-adv-x="1060" 
d="M752 330h-93l-41 -269h93c142 0 217 64 217 166c0 76 -66 103 -176 103zM537 594l4 56h245l-9 -56l-77 -3l-32 -202h92c156 0 250 -45 250 -152c0 -136 -101 -237 -303 -237h-258l5 60l80 3l35 228h-349l-36 -229l78 -2l-8 -60h-238l5 60l80 3l82 528l-79 3l4 56h245
l-9 -60l-78 -3l-36 -233h349l37 237z" />
    <glyph glyph-name="afii10060" unicode="&#x40b;" horiz-adv-x="795" 
d="M498 0l5 56l76 3l25 159c1.88965 12.0176 3 24 3 34c0 59 -34 78 -113 78c-93 0 -168 -57 -179 -66l-31 -205l74 -3l-7 -56h-234l4 60l79 3l81 524h-151l-17 -76h-65l25 143l72 -4h378l73 4l-17 -143h-66l5 76h-153l-40 -260s85 73 210 73c113 0 159 -41 159 -121
c0 -13 -2 -27 -4 -43l-27 -177l78 -3l-9 -56h-234z" />
    <glyph glyph-name="afii10061" unicode="&#x40c;" horiz-adv-x="706" 
d="M418 707l-56 4l116 143l77 -8zM104 594l4 56h237l-8 -52l-70 -3l-45 -289l101 62l241 230l-44 2l7 50h227l-9 -60l-106 -3l-255 -245l199 -281l105 -1l-8 -60h-155l-34 34l-179 254l-103 -64l-25 -162l78 -2l-8 -60h-238l5 60l80 3l82 528z" />
    <glyph glyph-name="uni040D" unicode="&#x40d;" horiz-adv-x="768" 
d="M507 712l-58 -5l-93 139l78 9zM184 120l451 520l6 10h153l-8 -56l-77 -3l-83 -532l78 -3l-7 -56h-234l4 56l79 3l70 436l9 35h-1l-449 -520l-6 -10h-153l5 60l80 3l82 528l-79 3l4 56h241l-9 -56l-78 -3l-69 -440l-10 -31h1z" />
    <glyph glyph-name="afii10062" unicode="&#x40e;" horiz-adv-x="656" 
d="M519 593l9 57h222l-8 -56l-77 -2l-260 -426c-86.4863 -141.704 -162 -179 -247 -179c-60 0 -101 19 -101 19h-1l20 160l59 4l-9 -114c11 -3 23 -4 36 -4c49 0 93 16 155 104l-189 435l-87 3l4 56h243l-8 -56l-59 -3l149 -358l209 358zM302 813l70 2s-11 -52 70 -52
c92 0 137 79 137 79v1l53 -18s-47 -114 -199 -114c-149 0 -131 102 -131 102z" />
    <glyph glyph-name="afii10145" unicode="&#x40f;" horiz-adv-x="741" 
d="M523 594l4 56h240l-7 -56l-78 -3l-82 -529l79 -2l-9 -60h-291l-36 -211h-70l28 211h-285l5 60l80 3l82 528l-79 3l4 56h241l-9 -56l-73 -3l-82 -526h331l82 526z" />
    <glyph glyph-name="afii10017" unicode="&#x410;" horiz-adv-x="694" 
d="M404 582l-174 -327h245zM-38 0l5 60l80 3l316 587h111l134 -591l76 -3l-8 -56h-227l7 48l67 2l-36 150h-287l-80 -148l68 -2l-7 -50h-219z" />
    <glyph glyph-name="afii10018" unicode="&#x411;" horiz-adv-x="626" 
d="M318 326h-92l-41 -265h93c142 0 216 59 216 162c0 76 -66 103 -176 103zM489 499l7 86h-230l-31 -200h92c156 0 249 -45 249 -152c0 -136 -99 -233 -303 -233h-257l5 60l80 3l82 528l-79 3l4 56h394l73 4l-20 -155h-66z" />
    <glyph glyph-name="afii10019" unicode="&#x412;" horiz-adv-x="626" 
d="M222 363h152c45 0 130 41 130 142c0 62 -48 84 -131 84h-116zM370 308h-156l-38 -246h116c147 0 202 62 202 156c0 64 -47 90 -124 90zM104 594l4 56h278c136 0 199 -51 199 -132c0 -84 -56 -139 -111 -171c64 -19 101 -63 101 -127c0 -121 -78 -220 -287 -220h-272l5 60
l80 3l82 528z" />
    <glyph glyph-name="afii10020" unicode="&#x413;" horiz-adv-x="483" 
d="M467 485l9 100h-210l-82 -526l88 -3l-8 -56h-248l5 60l80 3l82 528l-79 3l4 56h374l73 4l-21 -169h-67z" />
    <glyph glyph-name="afii10021" unicode="&#x414;" horiz-adv-x="715" 
d="M564 585h-232c-48 -283 -106 -421 -172 -520h322zM174 592l5 58h553l-8 -60l-78 -3h-1l-80 -522h86l-43 -227h-70l18 162h-462l-37 -162h-66l30 227h59c68 96 128 232 177 524z" />
    <glyph glyph-name="afii10022" unicode="&#x415;" 
d="M511 505l6 80h-251l-35 -226l293 1l-9 -63h-294l-36 -232h280l22 90l61 -4l-27 -151h-505l5 60l80 3l82 528l-79 3l4 56h415l73 4l-9 -69l-10 -80h-66z" />
    <glyph glyph-name="afii10024" unicode="&#x416;" horiz-adv-x="989" 
d="M818 0l-31 42l-150 267h-102l-38 -250l78 -3l-7 -56h-234l4 56l79 3l38 249h-100l-199 -259l-47 -49h-140l8 60l91 1l224 278l-128 253l-90 2l4 56h227l-8 -57l-43 -3l105 -217h106l34 218l-71 3l8 56h221l-8 -56l-70 -3l-34 -218h102l189 218l-38 2l8 57h224l-8 -56
l-95 -2l-220 -241l166 -290l97 -1l-8 -60h-144z" />
    <glyph glyph-name="afii10025" unicode="&#x417;" horiz-adv-x="554" 
d="M127 498l26 156h52l1 -37c34 21 84 46 145 46c107 0 173 -54 173 -140c0 -91 -69 -152 -135 -184c66 -16 111 -55 111 -134c0 -114 -87 -219 -262 -219c-180 0 -229 104 -229 104l37 52s49 -89 185 -89c125 0 181 70 181 154c0 65 -51 90 -136 90h-108l8 66l114 -1
c57 1 150 58 150 150c0 58 -39 89 -118 89c-60 0 -104 -30 -122 -45l-12 -58h-61z" />
    <glyph glyph-name="afii10026" unicode="&#x418;" horiz-adv-x="768" 
d="M184 120l451 520l6 10h153l-8 -56l-77 -3l-83 -532l78 -3l-7 -56h-234l4 56l79 3l70 436l9 35h-1l-449 -520l-6 -10h-153l5 60l80 3l82 528l-79 3l4 56h241l-9 -56l-78 -3l-69 -440l-10 -31h1z" />
    <glyph glyph-name="afii10027" unicode="&#x419;" horiz-adv-x="768" 
d="M184 120l451 520l6 10h153l-8 -56l-77 -3l-83 -532l78 -3l-7 -56h-234l4 56l79 3l70 436l9 35h-1l-449 -520l-6 -10h-153l5 60l80 3l82 528l-79 3l4 56h241l-9 -56l-78 -3l-69 -440l-10 -31h1zM337 813l70 2s-11 -52 70 -52c92 0 137 79 137 79v1l53 -18
s-47 -114 -198 -114c-150 0 -132 102 -132 102z" />
    <glyph glyph-name="afii10028" unicode="&#x41a;" horiz-adv-x="706" 
d="M104 594l4 56h237l-8 -52l-70 -3l-45 -289l101 62l241 230l-44 2l7 50h227l-9 -60l-106 -3l-255 -245l199 -281l105 -1l-8 -60h-155l-34 34l-179 254l-103 -64l-25 -162l78 -2l-8 -60h-238l5 60l80 3l82 528z" />
    <glyph glyph-name="afii10029" unicode="&#x41b;" horiz-adv-x="707" 
d="M396 0l5 60l81 3l81 522h-213c-62 -401 -180 -596 -308 -596c-36 0 -51 11 -51 11l13 69s11 -5 30 -5c94 0 176 157 239 525l-88 3l5 58h543l-9 -60l-78 -3l-81 -525l79 -2l-9 -60h-239z" />
    <glyph glyph-name="afii10030" unicode="&#x41c;" horiz-adv-x="993" 
d="M104 594l5 56h192l179 -564h1l354 564h184l-8 -60l-79 -3l-80 -525l78 -2l-9 -60h-227l4 52l72 3l76 481h-1l-339 -536h-81l-170 536h-1l-77 -483l71 -3l-7 -50h-225l5 60l80 3l82 528z" />
    <glyph glyph-name="afii10031" unicode="&#x41d;" horiz-adv-x="760" 
d="M537 590l4 60h245l-9 -60l-78 -3l-81 -528l77 -3l-7 -56h-238l4 60l80 3l35 228h-349l-36 -229l78 -2l-8 -60h-238l5 60l80 3l82 528l-79 3l4 56h245l-9 -60l-78 -3l-36 -233h349l36 233z" />
    <glyph glyph-name="afii10032" unicode="&#x41e;" horiz-adv-x="754" 
d="M353 54c150 0 256 113 282 280c4 22 5 43 5 63c0 127 -73 198 -201 198c-173 0 -283 -117 -283 -315c0 -133 70 -226 197 -226zM722 334c-32.5459 -206.914 -174 -348 -379 -348c-176 0 -273 120 -273 291c0 238 146 386 378 386c179 0 280 -95 280 -258
c0 -22 -2.06641 -45.9893 -6 -71z" />
    <glyph glyph-name="afii10033" unicode="&#x41f;" horiz-adv-x="741" 
d="M104 594l4 56h659l-7 -56l-78 -3l-82 -529l79 -2l-9 -60h-239l5 60l81 3l81 522h-332l-82 -523l78 -2l-8 -60h-238l5 60l80 3l82 528z" />
    <glyph glyph-name="afii10034" unicode="&#x420;" horiz-adv-x="575" 
d="M345 588h-85l-47 -302h82c101 0 198 53 198 188c0 83 -58 114 -148 114zM104 594l4 56h260c133 0 213 -49 213 -162c0 -185 -150 -261 -278 -261h-99l-27 -172l92 -3l-7 -52h-246l5 60l80 3l82 528z" />
    <glyph glyph-name="afii10035" unicode="&#x421;" horiz-adv-x="659" 
d="M562 429l12 121c-18 13 -67 45 -139 45c-154 0 -279 -109 -279 -316c0 -144 97 -225 225 -225c137 0 211 95 211 95l34 -45s-80 -118 -255 -118c-180 0 -301 114 -301 294c0 228 154 383 357 383c75 0 130 -33 158 -55l19 46h51l-30 -225h-63z" />
    <glyph glyph-name="afii10036" unicode="&#x422;" horiz-adv-x="536" 
d="M524 497l5 88h-159l-81 -523l78 -2l-8 -60h-238l4 60l80 3l80 522h-156l-22 -88h-60l26 157l72 -4h388l73 4l-20 -157h-62z" />
    <glyph glyph-name="afii10037" unicode="&#x423;" horiz-adv-x="656" 
d="M519 593l9 57h222l-8 -56l-77 -2l-260 -426c-86.4863 -141.704 -162 -179 -247 -179c-60 0 -101 19 -101 19h-1l20 160l59 4l-9 -114c11 -3 23 -4 36 -4c49 0 93 16 155 104l-189 435l-87 3l4 56h243l-8 -56l-59 -3l149 -358l209 358z" />
    <glyph glyph-name="afii10038" unicode="&#x424;" horiz-adv-x="795" 
d="M144 308c0 -97 72 -135 211 -136l51 327c-174 -1 -262 -41 -262 -191zM697 374c0 98 -76 124 -216 125l-51 -327c173 1 267 57 267 202zM345 617l3 49h235l-6 -49l-78 -3l-10 -62c180 -1 294 -39 294 -174c0 -185 -142 -259 -361 -260l-10 -62l87 -3l-8 -53h-244l4 53
l86 3l10 62c-178 1 -290 54 -290 189c0 189 137 244 357 245l10 62z" />
    <glyph glyph-name="afii10039" unicode="&#x425;" horiz-adv-x="689" 
d="M513 593l8 57h230l-8 -60l-98 -2l-230 -261l156 -266l99 -1l-8 -60h-238l7 56l43 1l-119 211l-185 -209l44 -1l-8 -58h-234l5 60l101 2l236 262l-152 267l-95 3l4 56h238l-7 -56l-44 -2l117 -209l182 208z" />
    <glyph glyph-name="afii10040" unicode="&#x426;" horiz-adv-x="750" 
d="M519 594l8 56h240l-7 -56l-78 -3l-82 -526h86l-42 -227h-73l17 162h-572l5 60l80 3l82 528l-79 3l4 56h244l-8 -56l-77 -3l-82 -526h331l82 526z" />
    <glyph glyph-name="afii10041" unicode="&#x427;" horiz-adv-x="675" 
d="M457 594l6 56h238l-9 -56l-78 -3l-82 -529l79 -2l-8 -60h-246l4 60l87 3l32 203c-12 -7 -81 -41 -194 -41c-115 0 -166 51 -166 136c0 13 2 28 4 43l29 187l-69 3l4 56h231l-8 -56l-74 -3l-27 -173c-2 -12 -3 -24 -3 -34c0 -63 37 -90 116 -90c87 0 154 30 167 36l40 261
z" />
    <glyph glyph-name="afii10042" unicode="&#x428;" horiz-adv-x="1007" 
d="M460 594l7 56h213l-8 -56l-64 -3l-81 -526h256l81 526l-65 3l8 56h227l-8 -56l-78 -3l-82 -529l79 -2l-9 -60h-920l5 60l80 3l82 528l-79 3l4 56h230l-8 -56l-63 -3l-82 -526h258l81 526z" />
    <glyph glyph-name="afii10043" unicode="&#x429;" horiz-adv-x="1017" 
d="M799 594l8 56h227l-8 -56l-78 -3l-81 -526h81l-43 -227h-73l18 162h-834l5 60l80 3l82 528l-79 3l4 56h230l-8 -56l-63 -3l-82 -526h257l82 526l-64 3l7 56h213l-8 -56l-64 -3l-81 -526h256l81 526z" />
    <glyph glyph-name="afii10044" unicode="&#x42a;" horiz-adv-x="722" 
d="M415 330h-93l-41 -269h93c142 0 217 64 217 166c0 76 -66 103 -176 103zM47 501l26 153l72 -4h304l-9 -56l-77 -3l-32 -202h92c156 0 250 -45 250 -152c0 -136 -101 -237 -303 -237h-258l5 60l80 3l81 522h-148l-18 -84h-65z" />
    <glyph glyph-name="afii10045" unicode="&#x42b;" horiz-adv-x="908" 
d="M686 594l4 56h245l-9 -60l-78 -3l-82 -528l78 -3l-8 -56h-238l5 60l80 3l82 528zM319 330h-93l-41 -269h93c142 0 217 64 217 166c0 76 -66 103 -176 103zM104 594l4 56h245l-9 -56l-77 -3l-32 -202h92c156 0 250 -45 250 -152c0 -136 -101 -237 -303 -237h-258l5 60
l80 3l82 528z" />
    <glyph glyph-name="afii10046" unicode="&#x42c;" horiz-adv-x="626" 
d="M319 330h-93l-41 -269h93c142 0 217 64 217 166c0 76 -66 103 -176 103zM104 594l4 56h245l-9 -56l-77 -3l-32 -202h92c156 0 250 -45 250 -152c0 -136 -101 -237 -303 -237h-258l5 60l80 3l82 528z" />
    <glyph glyph-name="afii10047" unicode="&#x42d;" horiz-adv-x="647" 
d="M141 288l9 62h382c2 17 3 35 3 54c0 125 -68 193 -198 193c-71 0 -124 -26 -145 -38l-14 -61h-58l27 156h47l4 -35c34 19 93 44 163 44c167 0 259 -102 259 -267c0 -238 -141 -410 -364 -410c-188 0 -255 104 -255 104l36 53s69 -88 215 -88c134 0 238 77 271 233h-382z
" />
    <glyph glyph-name="afii10048" unicode="&#x42e;" horiz-adv-x="1048" 
d="M649 54c174 0 287 144 287 334c0 131 -74 207 -202 207c-172 0 -283 -122 -283 -319c0 -132 70 -222 198 -222zM104 594l4 56h245l-8 -52l-78 -3l-37 -241h137c30 191 173 309 377 309c178 0 279 -102 279 -271c0 -233 -151 -406 -384 -406c-177 0 -278 117 -278 289v16
h-141l-36 -232l78 -3l-4 -56h-242l5 60l80 3l82 528z" />
    <glyph glyph-name="afii10049" unicode="&#x42f;" horiz-adv-x="634" 
d="M182 438c0 -74 56 -122 118 -122h153l42 272h-152c-68 0 -161 -45 -161 -150zM-10 0l5 60l87 2l136 198c-65 22 -117 81 -117 169c0 150 125 221 245 221h314l-9 -60l-78 -3l-82 -528l79 -3l-8 -56h-233l3 52l80 3l31 196h-157l-136 -210l-35 -41h-125z" />
    <glyph glyph-name="afii10065" unicode="&#x430;" horiz-adv-x="598" 
d="M269 48c92 0 142 67 147 74l44 284c-3 5 -36 47 -117 47c-148 0 -216 -94 -216 -253c0 -97 53 -152 142 -152zM553 500l-57 -374c-1.98145 -13.0029 -3 -24 -3 -33c0 -31 12 -34 23 -34c16 0 48 2 48 2l-4 -56s-51 -11 -99 -11c-38 0 -56 15 -50 67
c-5 -6 -59 -75 -175 -75c-117 0 -191 85 -191 215c0 180 102 313 284 313c106 0 142 -51 142 -51l19 37h63z" />
    <glyph glyph-name="afii10066" unicode="&#x431;" horiz-adv-x="581" 
d="M336 455c-112 0 -197 -91 -201 -229v-10c0 -105 43 -171 136 -171c131 0 203 105 203 266c0 95 -44 144 -138 144zM422 666c-165 -16 -250 -117 -282 -256c47 63 123 103 212 103c134 0 204 -73 204 -203c0 -184 -110 -324 -293 -324c-144 0 -209 90 -209 229
c0 246 98 488 356 518l105 12l13 38l56 -4l-22 -103l-25 1z" />
    <glyph glyph-name="afii10067" unicode="&#x432;" horiz-adv-x="538" 
d="M181 277h130c7 0 112 10 112 96c0 42 -38 72 -116 72h-100zM298 236h-123l-29 -181h109c133 0 155 73 155 108c0 39 -32 73 -112 73zM73 440l4 60h238c126 0 186 -50 186 -115c0 -70 -54 -106 -104 -125c49 -15 91 -48 91 -98c0 -71 -46 -162 -240 -162h-186l68 437z" />
    <glyph glyph-name="afii10068" unicode="&#x433;" horiz-adv-x="426" 
d="M85 360l23 144h42l3 -35c26 20 70 45 125 45c80 0 141 -40 141 -118c0 -114 -111 -148 -186 -164c-70 -14 -115 -38 -115 -109c0 -50 47 -78 109 -78c89 0 145 75 145 75l29 -41s-51 -93 -188 -93c-98 0 -174 42 -174 129c0 113 81 144 169 163
c65.9492 14.2393 132 39 132 109c0 44 -32 69 -93 69c-50 0 -84 -24 -99 -37l-14 -59h-49z" />
    <glyph glyph-name="afii10069" unicode="&#x434;" horiz-adv-x="588" 
d="M278 45c73 0 120 35 132 44l46 297c-3 7 -32 68 -123 68c-120 0 -203 -70 -203 -243c0 -101 43 -166 148 -166zM401 33c-3 -2 -59 -47 -159 -47c-131 0 -195 91 -195 223c0 192 116 305 270 305c121 0 149 -72 149 -72l17 58h70l-71 -466c7 -199 -115 -298 -266 -298
c-123 0 -174 40 -174 40l18 127l54 3l-7 -90c26 -12 63 -23 114 -23c112 0 185 78 180 236v4z" />
    <glyph glyph-name="afii10070" unicode="&#x435;" horiz-adv-x="513" 
d="M320 455c-100 0 -170 -70 -190 -182c222 0 304 20 304 96c0 50 -39 86 -114 86zM425 113l42 -30s-53 -97 -201 -97c-129 0 -221 76 -221 215c0 173 116 313 283 313c107 0 178 -56 178 -141c0 -118 -112 -150 -382 -150v-21c0 -101 66 -155 153 -155c104 0 148 66 148 66
z" />
    <glyph glyph-name="afii10072" unicode="&#x436;" horiz-adv-x="783" 
d="M679 -6c-43 0 -102 107 -161 228l-75 -4l-33 -218h-78l34 223l-85 -2c-45 -37 -108 -106 -150 -160l48 -4l-12 -57h-147l6 38c4 21 115 133 205 209l-86 191l-80 2l4 60h135c34 -71 59 -145 94 -217l78 2l33 215h78l-34 -219l79 4c48 41 101 106 134 157l-50 5l8 53h140
l-6 -38c-4 -21 -92 -126 -177 -201c49 -102 111 -202 139 -202c16 0 61 2 61 2l-3 -56s-50 -11 -99 -11z" />
    <glyph glyph-name="afii10073" unicode="&#x437;" horiz-adv-x="496" 
d="M95 360l24 144h44l5 -36c26 19 73 46 134 46c89 0 158 -36 158 -111c0 -74 -55 -116 -107 -139c49 -14 92 -45 92 -99c0 -92 -76 -179 -222 -179c-167 0 -203 88 -203 88l40 43s32 -71 158 -71c104 0 148 61 148 115c0 47 -48 68 -111 68h-91l7 53l93 -1
c12 0 117 21 117 107c0 41 -31 68 -103 68c-58 0 -99 -28 -114 -40l-11 -56h-58z" />
    <glyph glyph-name="afii10074" unicode="&#x438;" horiz-adv-x="616" 
d="M72 440l5 60h142l-60 -377l344 377h75l-59 -374c-2 -13 -3 -23 -3 -32c0 -31 12 -35 24 -35c16 0 47 2 47 2l-3 -56s-51 -11 -100 -11c-33 0 -55 12 -55 55c0 9 1 19 3 30l50 317l-361 -396h-59l67 437z" />
    <glyph glyph-name="afii10075" unicode="&#x439;" horiz-adv-x="616" 
d="M72 440l5 60h142l-60 -377l344 377h75l-59 -374c-2 -13 -3 -23 -3 -32c0 -31 12 -35 24 -35c16 0 47 2 47 2l-3 -56s-51 -11 -100 -11c-33 0 -55 12 -55 55c0 9 1 19 3 30l50 317l-361 -396h-59l67 437zM243 678l69 2h1s-11 -52 70 -52c92 0 137 79 137 79v1l53 -18
s-48 -114 -199 -114c-149 0 -131 102 -131 102z" />
    <glyph glyph-name="afii10076" unicode="&#x43a;" horiz-adv-x="531" 
d="M417 -6c-44 0 -102 120 -154 235l-93 -48l-28 -181h-80l67 437l-64 3l4 60h150l-38 -245l99 56c52 43 97 89 132 133l-39 2l8 54h137l-4 -36c-32 -47 -106 -133 -181 -192c48 -102 100 -213 124 -213c16 0 51 2 51 2l-3 -56s-40 -11 -88 -11z" />
    <glyph glyph-name="afii10077" unicode="&#x43b;" horiz-adv-x="531" 
d="M10 0l5 38c40 96 156 260 253 399l-67 3l5 60h193c2 -53 53 -441 81 -441c16 0 50 2 50 2l-3 -56s-55 -11 -103 -11c-49 0 -94 369 -96 423h-5c-59 -92 -165 -241 -220 -355l49 -4l-8 -58h-134z" />
    <glyph glyph-name="afii10078" unicode="&#x43c;" horiz-adv-x="793" 
d="M119 440l5 60h170l91 -427l240 427h97l-24 -374c-3 -50 5 -67 21 -67s47 2 47 2l-3 -56s-51 -11 -99 -11c-41 0 -48.9004 28.9912 -44 88l24 289l5 48l-232 -415l-89 -4l-90 420c-28 -68 -92 -252 -125 -356l57 -4l-10 -60h-124l6 40c10 48 85 262 140 398z" />
    <glyph glyph-name="afii10079" unicode="&#x43d;" horiz-adv-x="601" 
d="M72 440l5 60h142l-33 -213h262l34 213h80l-59 -374c-1.89551 -12.0166 -3 -23 -3 -31c0 -33 13 -36 25 -36c16 0 47 2 47 2l-3 -56s-51 -11 -100 -11c-40 0 -63 17 -53 85l23 149h-262l-35 -228h-80l67 437z" />
    <glyph glyph-name="afii10080" unicode="&#x43e;" horiz-adv-x="566" 
d="M264 45c131 0 201 100 201 260c0 93 -44 150 -137 150c-131 0 -201 -94 -201 -256c0 -94 44 -154 137 -154zM255 -14c-140 0 -210 85 -210 216c0 187 102 312 291 312c141 0 212 -79 212 -209c0 -186 -109 -319 -293 -319z" />
    <glyph glyph-name="afii10081" unicode="&#x43f;" horiz-adv-x="592" 
d="M408 79l56 358h-254l-68 -437h-80l67 437l-57 3l5 60h476l-58 -374c-2 -13 -3 -24 -3 -33c0 -31 12 -34 23 -34c16 0 48 2 48 2l-3 -56s-51 -11 -100 -11c-33 0 -55 12 -55 55c0 9 1 19 3 30z" />
    <glyph glyph-name="afii10082" unicode="&#x440;" horiz-adv-x="588" 
d="M347 452c-97 0 -148 -72 -148 -72l-44 -288c6 -8 41 -45 117 -45c146 0 219 114 219 272c0 96 -54 133 -144 133zM72 440l5 60h133l-3 -60c9 11 64 74 176 74c118 0 190 -68 190 -194c0 -175 -102 -334 -282 -334c-106 0 -144 48 -144 48h-1l-44 -284h-80l107 687z" />
    <glyph glyph-name="afii10083" unicode="&#x441;" horiz-adv-x="483" 
d="M408 335l6 78c-11 16 -38 42 -99 42c-124 0 -186 -73 -186 -242c0 -109 71 -168 157 -168c91 0 129 60 129 60l41 -28s-45 -91 -184 -91c-132 0 -227 85 -227 223c0 191 90 305 255 305c63 0 104 -27 126 -47l14 37h52l-22 -169h-62z" />
    <glyph glyph-name="afii10084" unicode="&#x442;" horiz-adv-x="511" 
d="M39 332l28 176l63 -8h337l65 8l-13 -156h-57l3 85h-134l-52 -342c0 -32 13 -36 24 -36c16 0 48 2 48 2l-4 -56s-51 -11 -99 -11c-34 0 -55 11 -55 53c0 9 1 20 3 32l55 358h-134l-21 -105h-57z" />
    <glyph glyph-name="afii10085" unicode="&#x443;" horiz-adv-x="521" 
d="M17 440l4 60h136l115 -420h1c69 105 145 239 191 357l-60 6l5 57h139l-3 -39c-43 -126 -154 -307 -254 -456c-16 -138 -85 -269 -222 -269c-73 0 -103 24 -103 24l18 143l54 3l-7 -106c13 -4 27 -7 43 -7c94 0 122 100 137 210l-125 434z" />
    <glyph glyph-name="afii10086" unicode="&#x444;" horiz-adv-x="687" 
d="M125 202c0 -102 52 -156 160 -157l65 410c-146 -2 -225 -88 -225 -253zM591 316c0 100 -56 138 -165 139l-64 -410c155 2 229 121 229 271zM329 690l4 60h139l-37 -236c149 -2 234 -63 234 -196c0 -187 -116 -332 -315 -332h-1l-17 -110l-3 -17c-4 -45 10 -50 23 -50
c16 0 48 2 48 2l-3 -56s-51 -11 -100 -11c-33 0 -51 12 -51 55c0 9 0 18 2 30l24 157c-148 3 -229 80 -229 216c0 191 110 312 311 312h1l27 173z" />
    <glyph glyph-name="afii10087" unicode="&#x445;" horiz-adv-x="560" 
d="M401 447l1 53h150l-6 -38c-2 -8 -108 -133 -195 -220c55 -95 116 -183 141 -183c16 0 59 2 59 2l-3 -56s-48 -11 -96 -11c-43 0 -114 104 -175 223h-3c-41 -39 -107 -105 -151 -155l45 -4l-9 -58h-145l6 38c5 11 141 151 219 225l-105 174l-86 3l2 60h139l119 -212h2
c42 41 105 104 143 154z" />
    <glyph glyph-name="afii10088" unicode="&#x446;" horiz-adv-x="595" 
d="M407 440l8 60h139l-69 -437h72l-36 -210h-70l22 147h-411l68 437l-57 3l4 60h143l-69 -437h254l58 374z" />
    <glyph glyph-name="afii10089" unicode="&#x447;" horiz-adv-x="531" 
d="M346 440l8 60h139l-62 -399c-1 -38 12 -42 24 -42c16 0 48 2 48 2l-4 -56s-51 -11 -99 -11c-34 0 -56 12 -56 55c0 9 1 19 3 30l21 135c-10 -4 -65 -28 -160 -28c-83 0 -134 41 -134 117c0 10 0 19 2 30l16 104l-57 3l5 60h144l-25 -157c-9 -60 14 -104 79 -104
c81 0 138 26 138 26l26 172z" />
    <glyph glyph-name="afii10090" unicode="&#x448;" horiz-adv-x="822" 
d="M72 440l5 60h139l-68 -437h206l68 437h77l-68 -437h207l68 437h77l-68 -441h58l-7 -57l-60 -2h-644l67 437z" />
    <glyph glyph-name="afii10091" unicode="&#x449;" horiz-adv-x="824" 
d="M72 440l5 60h139l-68 -437h206l68 437h77l-68 -437h207l68 437h77l-68 -437h72l-37 -210h-70l23 147h-641l67 437z" />
    <glyph glyph-name="afii10092" unicode="&#x44a;" horiz-adv-x="625" 
d="M377 261c-29 0 -70 -5 -95 -13l-29 -193h94c100 0 162 47 162 120c0 64 -64 86 -132 86zM35 356l25 152l64 -8h197l-30 -195c30 5 67 10 95 10c116 0 206 -37 206 -132c0 -113 -92 -183 -251 -183h-177l67 437h-122l-18 -81h-56z" />
    <glyph glyph-name="afii10093" unicode="&#x44b;" horiz-adv-x="759" 
d="M573 440l4 60h143l-62 -399c-1 -38 12 -42 24 -42c16 0 48 2 48 2l-4 -56s-51 -11 -99 -11c-34 0 -55 12 -55 56c0 8 0 18 2 29l56 358zM275 261c-29 0 -70 -5 -95 -13l-29 -193h94c100 0 162 47 162 120c0 64 -64 86 -132 86zM72 440l5 60h142l-30 -195
c30 5 67 10 95 10c116 0 206 -37 206 -132c0 -113 -92 -183 -251 -183h-177l67 437z" />
    <glyph glyph-name="afii10094" unicode="&#x44c;" horiz-adv-x="522" 
d="M275 261c-29 0 -70 -5 -95 -13l-29 -193h94c100 0 162 47 162 120c0 64 -64 86 -132 86zM72 440l5 60h142l-30 -195c30 5 67 10 95 10c116 0 206 -37 206 -132c0 -113 -92 -183 -251 -183h-177l67 437z" />
    <glyph glyph-name="afii10095" unicode="&#x44d;" horiz-adv-x="488" 
d="M129 223l8 62h256c1 9 1 18 1 27c0 101 -53 143 -139 143c-52 0 -91 -25 -107 -37l-12 -54h-61l25 140h47l5 -32c29 19 73 42 123 42c124 0 196 -72 196 -200c0 -195 -116 -328 -280 -328c-142 0 -182 70 -182 70l30 47s39 -58 142 -58c111 0 181 65 204 178h-256z" />
    <glyph glyph-name="afii10096" unicode="&#x44e;" horiz-adv-x="775" 
d="M480 45c138 0 200 115 200 271c0 88 -40 140 -135 140c-140 0 -195 -94 -195 -257c0 -91 37 -154 130 -154zM470 -14c-130 0 -197 85 -197 218v24h-96l-35 -228h-80l67 437l-57 3l5 60h142l-33 -213h93c24 142 114 227 273 227c140 0 206 -72 206 -199
c0 -183 -92 -329 -288 -329z" />
    <glyph glyph-name="afii10097" unicode="&#x44f;" horiz-adv-x="533" 
d="M269 243c35 0 72 3 106 10l30 192h-98c-108 0 -157 -42 -157 -110c0 -57 45 -92 119 -92zM26 0l3 31c1 13 69 108 129 179c-51 24 -85 69 -85 124c0 98 76 166 233 166h188l-62 -392c-4 -44 10 -49 23 -49c16 0 48 2 48 2l-4 -56s-50 -11 -99 -11c-34 0 -54 12 -54 56
c0 8 0 18 2 29l18 119c-39 -6 -81 -9 -113 -9c-13 0 -26 1 -38 3c-31 -39 -70 -93 -97 -134l52 -8l-8 -50h-136z" />
    <glyph glyph-name="uni0450" unicode="&#x450;" horiz-adv-x="513" 
d="M380 577l-58 -5l-93 139l78 9zM320 455c-100 0 -170 -70 -190 -182c222 0 304 20 304 96c0 50 -39 86 -114 86zM425 113l42 -30s-53 -97 -201 -97c-129 0 -221 76 -221 215c0 173 116 313 283 313c107 0 178 -56 178 -141c0 -118 -112 -150 -382 -150v-21
c0 -101 66 -155 153 -155c104 0 148 66 148 66z" />
    <glyph glyph-name="afii10071" unicode="&#x451;" horiz-adv-x="513" 
d="M208 614c-15 16 -10 45 8 61c9 6 20 10 31 10s22 -4 29 -10c15 -16 11 -45 -8 -61c-9 -7 -21 -10 -32 -10s-21 3 -28 10zM384 614c-14 16 -11 45 9 61c9 6 20 10 31 10s21 -4 29 -10c13 -16 10 -45 -9 -61c-9 -7 -21 -10 -32 -10s-21 3 -28 10zM320 455
c-100 0 -170 -70 -190 -182c222 0 304 20 304 96c0 50 -39 86 -114 86zM425 113l42 -30s-53 -97 -201 -97c-129 0 -221 76 -221 215c0 173 116 313 283 313c107 0 178 -56 178 -141c0 -118 -112 -150 -382 -150v-21c0 -101 66 -155 153 -155c104 0 148 66 148 66z" />
    <glyph glyph-name="afii10099" unicode="&#x452;" 
d="M481 -43h1c-23 -147 -111 -210 -188 -210c-24 0 -48 6 -68 18l30 63c10 -5 22 -8 34 -8c43 0 94.5127 35.0791 111 137c9.71289 60.0469 45 289 47 300c12 72 -34 107 -113 107c-89 0 -135 -45 -143 -54l-48 -310h-80l85 552h-59l3 53l65 2l13 84l-57 3l5 56h92l-1 -1
l51 1l-23 -143h205l-9 -55h-204l-28 -178h2s53 58 167 58c98 0 161 -44 161 -132c0 -10 -1 -21 -3 -33z" />
    <glyph glyph-name="afii10100" unicode="&#x453;" horiz-adv-x="414" 
d="M302 572l-56 4l116 143l77 -8zM85 360l23 144h42l3 -35c26 20 70 45 125 45c80 0 141 -40 141 -118c0 -114 -111 -148 -186 -164c-70 -14 -115 -38 -115 -109c0 -50 47 -78 109 -78c89 0 145 75 145 75l29 -41s-51 -93 -188 -93c-98 0 -174 42 -174 129
c0 113 81 144 169 163c65.9492 14.2393 132 39 132 109c0 44 -32 69 -93 69c-50 0 -84 -24 -99 -37l-14 -59h-49z" />
    <glyph glyph-name="afii10101" unicode="&#x454;" horiz-adv-x="495" 
d="M415 368l3 46c-12 13 -43 40 -105 40c-108 0 -168 -52 -183 -176l258 1l-9 -62h-253v-8c0 -109 66 -162 156 -162c99 0 145 52 145 52l27 -41s-51 -72 -193 -72c-129 0 -216 84 -216 221c0 193 86 307 255 307c61 0 105 -25 129 -45l14 35h51l-17 -136h-62z" />
    <glyph glyph-name="afii10102" unicode="&#x455;" horiz-adv-x="477" 
d="M393 367l-2 49c-15 14 -51 41 -105 41c-62 0 -110 -30 -110 -80c0 -108 260 -72 260 -218c0 -89 -67 -173 -240 -173c-104 0 -159 26 -159 26l11 127l51 3l-6 -82c25 -8 64 -17 111 -17c102 0 147 52 147 102c0 106 -257 72 -257 224c0 96 83 145 184 145
c55 0 99 -26 125 -45l14 35h42l-16 -137h-50z" />
    <glyph glyph-name="afii10103" unicode="&#x456;" horiz-adv-x="259" 
d="M242 679c6 -7 9 -17 9 -27c0 -15 -6 -32 -19 -43c-10 -7 -23 -10 -36 -10s-26 3 -34 11c-7 7 -10 17 -10 27c0 15 7.02637 31.9648 20 42c9.01855 6.97559 23 11 36 11s26 -4 34 -11zM73 440l4 60h143l-62 -399c-1 -38 12 -42 24 -42c16 0 48 2 48 2l-4 -56
s-51 -11 -99 -11c-34 0 -55 12 -55 56c0 8 0 18 2 29l56 358z" />
    <glyph glyph-name="afii10104" unicode="&#x457;" horiz-adv-x="259" 
d="M79 614c-15 16 -10 45 8 61c9 6 20 10 31 10s22 -4 29 -10c15 -16 11 -45 -8 -61c-9 -7 -21 -10 -32 -10s-21 3 -28 10zM255 614c-14 16 -11 45 9 61c9 6 20 10 31 10s21 -4 29 -10c13 -16 10 -45 -9 -61c-9 -7 -21 -10 -32 -10s-21 3 -28 10zM73 440l4 60h143l-62 -399
c-1 -38 12 -42 24 -42c16 0 48 2 48 2l-4 -56s-51 -11 -99 -11c-34 0 -55 12 -55 56c0 8 0 18 2 29l56 358z" />
    <glyph glyph-name="afii10105" unicode="&#x458;" horiz-adv-x="260" 
d="M249 679c6 -7 9 -17 9 -27c0 -15 -6 -32 -19 -43c-10 -7 -23 -10 -36 -10s-26 3 -34 11c-7 7 -10 17 -10 27c0 15 7.02637 31.9648 20 42c9.01855 6.97559 23 11 36 11s26 -4 34 -11zM-130 -246l26 64s22 -10 57 -10c42 0 93 51 110 157l73 472l-56 3l5 60h141l-83 -535
c-25 -161 -116 -229 -192 -229c-68 0 -81 18 -81 18z" />
    <glyph glyph-name="afii10106" unicode="&#x459;" horiz-adv-x="764" 
d="M495 55h3c99 0 159 46 159 122c0 64 -70 84 -138 84c-30 0 -63 -5 -83 -9c16 -167 29 -197 59 -197zM220 440l5 60h193l14 -195c27 5 64 10 104 10c103 0 204 -33 204 -136c0 -108 -95 -179 -287 -179h-10c-46 0 -63 49 -80 252l-17 165h-4c-60 -92 -179 -241 -239 -355
l48 -4l-8 -58h-135l6 38c40 96 170 260 271 399z" />
    <glyph glyph-name="afii10107" unicode="&#x45a;" horiz-adv-x="865" 
d="M617 261c-29 0 -70 -5 -95 -13l-29 -193h94c100 0 162 47 162 120c0 64 -64 86 -132 86zM404 0l35 228h-262l-35 -228h-80l67 437l-57 3l5 60h142l-33 -213h262l33 213h80l-30 -195c30 5 67 10 95 10c116 0 206 -37 206 -132c0 -113 -92 -183 -251 -183h-177z" />
    <glyph glyph-name="afii10108" unicode="&#x45b;" horiz-adv-x="600" 
d="M418 79c0 0 26 166 28 178c12 72 -34 107 -112 107c-90 0 -136 -45 -144 -54l-48 -310h-80l86 552h-60l3 53l65 2l14 84l-58 3l5 56h92l-1 -1l51 1l-23 -143h205l-8 -55h-205l-28 -178h2s53 58 168 58c97 0 160 -44 160 -132c0 -10 -1 -21 -3 -33l-22 -142l1 1
c-3 -14 -4 -25 -4 -34c0 -29 12 -33 23 -33c16 0 48 2 48 2l-3 -56s-51 -11 -100 -11c-34 0 -54 12 -54 56c0 8 0 18 2 29z" />
    <glyph glyph-name="afii10109" unicode="&#x45c;" horiz-adv-x="531" 
d="M357 572l-56 4l116 143l77 -8zM417 -6c-44 0 -102 120 -154 235l-93 -48l-28 -181h-80l67 437l-64 3l4 60h150l-38 -245l99 56c52 43 97 89 132 133l-39 2l8 54h137l-4 -36c-32 -47 -106 -133 -181 -192c48 -102 100 -213 124 -213c16 0 51 2 51 2l-3 -56
s-40 -11 -88 -11z" />
    <glyph glyph-name="uni045D" unicode="&#x45d;" horiz-adv-x="616" 
d="M405 577l-58 -5l-93 139l78 9zM72 440l5 60h142l-60 -377l344 377h75l-59 -374c-2 -13 -3 -23 -3 -32c0 -31 12 -35 24 -35c16 0 47 2 47 2l-3 -56s-51 -11 -100 -11c-33 0 -55 12 -55 55c0 9 1 19 3 30l50 317l-361 -396h-59l67 437z" />
    <glyph glyph-name="afii10110" unicode="&#x45e;" horiz-adv-x="521" 
d="M17 440l4 60h136l115 -420h1c69 105 145 239 191 357l-60 6l5 57h139l-3 -39c-43 -126 -154 -307 -254 -456c-16 -138 -85 -269 -222 -269c-73 0 -103 24 -103 24l18 143l54 3l-7 -106c13 -4 27 -7 43 -7c94 0 122 100 137 210l-125 434zM223 678l70 2s-11 -52 70 -52
c92 0 137 79 137 79v1l53 -18s-47 -114 -199 -114c-149 0 -131 102 -131 102z" />
    <glyph glyph-name="afii10193" unicode="&#x45f;" horiz-adv-x="612" 
d="M436 452l2 48h136l-69 -441h58l-8 -57l-59 -2h-179l-24 -147h-70l21 147h-182l67 437l-57 3l5 60h142l-67 -437h273l60 386z" />
    <glyph glyph-name="afii10146" unicode="&#x462;" horiz-adv-x="694" 
d="M387 330h-93l-42 -269h95c140 0 216 64 216 166c0 76 -66 103 -176 103zM183 662l1 38h244l-5 -38l-79 -2l-7 -49h1l-1 -7h180l68 4l-15 -135h-62l4 66h-185l-24 -150h93c156 0 249 -45 249 -152c0 -136 -101 -237 -303 -237h-258l5 60l79 3l74 476h-122l-20 -82h-65
l26 151l75 -4h116l9 56z" />
    <glyph glyph-name="afii10194" unicode="&#x463;" horiz-adv-x="605" 
d="M265 261l-1 3l-32 -209h94c100 0 163 46 163 129c0 64 -64 77 -131 77h-93zM143 0l68 437h-111l-16 -85h-49l20 146v2l1 4l56 -4h109l16 100h80l-16 -100h142l60 4l-13 -113h-54l3 56h-146l-21 -132h94c115 0 206 -27 206 -122c0 -122 -93 -193 -252 -193h-177z" />
    <glyph glyph-name="afii10050" unicode="&#x490;" horiz-adv-x="456" 
d="M104 594l4 56h348l16 100h64l-20 -165h-250l-82 -526l88 -3l-8 -56h-248l5 60l80 3l82 528z" />
    <glyph glyph-name="afii10098" unicode="&#x491;" horiz-adv-x="392" 
d="M79 440l5 60h289l20 128h62l-24 -191h-215l-73 -472c-25 -161 -116 -229 -192 -229c-68 0 -85 18 -85 18l30 64s22 -10 57 -10c42 0 93 51 110 157l73 472z" />
    <glyph glyph-name="uni1E9E" unicode="&#x1e9e;" horiz-adv-x="730" 
d="M420 581c-117 -3 -180.938 -59.0098 -196 -156l-66 -425h-161l5 56l81 3l59 379c19.6006 125.908 113 212 296 212h204l-3 -45l-155 -228c9 1 19 2 29 2c106 0 167 -54 167 -146c0 -144 -117 -247 -272 -247c-116 0 -144 20 -144 20l15 125l54 3l-4 -73
c17 -4 41 -7 79 -7c112 0 190 76 190 174c0 57 -33 93 -107 93c-39 0 -56 -17 -56 -17l-61 24l170 253h-124z" />
    <glyph glyph-name="uni2002" unicode="&#x2002;" horiz-adv-x="493" 
 />
    <glyph glyph-name="uni2003" unicode="&#x2003;" horiz-adv-x="985" 
 />
    <glyph glyph-name="uni2004" unicode="&#x2004;" horiz-adv-x="328" 
 />
    <glyph glyph-name="uni2005" unicode="&#x2005;" horiz-adv-x="247" 
 />
    <glyph glyph-name="uni2009" unicode="&#x2009;" horiz-adv-x="197" 
 />
    <glyph glyph-name="uni200A" unicode="&#x200a;" horiz-adv-x="40" 
 />
    <glyph glyph-name="uni2011" unicode="&#x2011;" horiz-adv-x="339" 
d="M47 247l5 61h266l-9 -61h-262z" />
    <glyph glyph-name="endash" unicode="&#x2013;" horiz-adv-x="537" 
d="M47 247l4 61h466l-8 -61h-462z" />
    <glyph glyph-name="emdash" unicode="&#x2014;" horiz-adv-x="715" 
d="M47 247l4 61h644l-9 -61h-639z" />
    <glyph glyph-name="afii00208" unicode="&#x2015;" horiz-adv-x="715" 
d="M47 247l4 61h644l-9 -61h-639z" />
    <glyph glyph-name="quoteleft" unicode="&#x2018;" horiz-adv-x="157" 
d="M212 758l24 -26c-57 -40 -94 -109 -99 -155c10 0 19 -4 25 -10c16 -16 12 -43 -8 -59c-10 -7 -21 -11 -32 -11s-22 4 -30 11c-1 1 -2 1 -2 2c-7 9 -10 21 -10 35c0 62 59 167 132 213z" />
    <glyph glyph-name="quoteright" unicode="&#x2019;" horiz-adv-x="158" 
d="M71 492l-25 26c57 39 95 108 99 154c-9 1 -19 4 -25 11c-15 16 -11 43 8 59c9 7 21 10 32 10s22 -3 30 -10l2 -3c7 -9 10 -21 10 -35c0 -62 -59 -166 -131 -212z" />
    <glyph glyph-name="quotesinglbase" unicode="&#x201a;" horiz-adv-x="158" 
d="M-31 -163l-25 26c56 40 94 108 98 154c-9 1 -18 5 -24 11c-15 16 -11 43 9 59c9 7 21 10 32 10s21 -3 29 -10l2 -3c7 -9 10 -21 10 -35c0 -62 -59 -166 -131 -212z" />
    <glyph glyph-name="quotedblleft" unicode="&#x201c;" horiz-adv-x="328" 
d="M382 758l24 -26c-57 -40 -94 -109 -99 -155c10 0 19 -4 25 -10c16 -16 12 -43 -8 -59c-10 -7 -21 -11 -32 -11s-22 4 -30 11c-1 1 -2 1 -2 2c-7 9 -10 21 -10 35c0 62 59 167 132 213zM212 758l24 -26c-57 -40 -94 -109 -99 -155c10 0 19 -4 25 -10c16 -16 12 -43 -8 -59
c-10 -7 -21 -11 -32 -11s-22 4 -30 11c-1 1 -2 1 -2 2c-7 9 -10 21 -10 35c0 62 59 167 132 213z" />
    <glyph glyph-name="quotedblright" unicode="&#x201d;" horiz-adv-x="328" 
d="M241 492l-25 26c57 39 95 108 99 154c-9 1 -19 4 -25 11c-15 16 -11 43 8 59c9 7 21 10 32 10s22 -3 30 -10l2 -3c7 -9 10 -21 10 -35c0 -62 -59 -166 -131 -212zM71 492l-25 26c57 39 95 108 99 154c-9 1 -19 4 -25 11c-15 16 -11 43 8 59c9 7 21 10 32 10s22 -3 30 -10
l2 -3c7 -9 10 -21 10 -35c0 -62 -59 -166 -131 -212z" />
    <glyph glyph-name="quotedblbase" unicode="&#x201e;" horiz-adv-x="328" 
d="M139 -163l-25 26c56 40 94 108 98 154c-9 1 -18 5 -24 11c-15 16 -11 43 9 59c9 7 21 10 32 10s21 -3 29 -10l2 -3c7 -9 10 -21 10 -35c0 -62 -59 -166 -131 -212zM-31 -163l-25 26c56 40 94 108 98 154c-9 1 -18 5 -24 11c-15 16 -11 43 9 59c9 7 21 10 32 10
s21 -3 29 -10l2 -3c7 -9 10 -21 10 -35c0 -62 -59 -166 -131 -212z" />
    <glyph glyph-name="dagger" unicode="&#x2020;" horiz-adv-x="512" 
d="M88 371l9 61h163l34 218h66l-34 -218h161l-9 -61h-155l-97 -621h-78l99 621h-159z" />
    <glyph glyph-name="daggerdbl" unicode="&#x2021;" horiz-adv-x="512" 
d="M96 418l8 61h163l25 171h68l-27 -171h161l-8 -61h-163l-36 -218l-34 -218h163l-8 -61h-164l-25 -171h-65l26 171h-162l8 61h163l35 218l34 218h-162z" />
    <glyph glyph-name="bullet" unicode="&#x2022;" horiz-adv-x="339" 
d="M115 263c-12.9668 12.0361 -19 29 -19 47c0 25 13 52 36 70c19 13 41 20 63 20s43 -7 58 -20c12 -12 18 -29 18 -46c0 -26 -13 -53 -36 -71c-19 -14 -41 -20 -63 -20s-41.9619 6.04102 -57 20z" />
    <glyph glyph-name="ellipsis" unicode="&#x2026;" horiz-adv-x="757" 
d="M553 3c-8 8 -11 18 -11 28c0 14 7 30 20 40c11 8 24 12 37 12s25 -4 34 -12c7 -7 11 -17 11 -27c0 -15 -7 -30 -21 -41c-11 -8 -24 -12 -37 -12s-25 4 -33 12zM312 3c-8 8 -11 18 -11 28c0 14 7 30 20 40c11 8 24 12 37 12s25 -4 34 -12c7 -7 11 -17 11 -27
c0 -15 -7 -30 -21 -41c-11 -8 -24 -12 -37 -12s-25 4 -33 12zM72 3c-8 8 -11 18 -11 28c0 14 7 30 20 40c11 8 24 12 37 12s25 -4 34 -12c7 -7 11 -17 11 -27c0 -15 -7 -30 -21 -41c-11 -8 -24 -12 -37 -12s-25 4 -33 12z" />
    <glyph glyph-name="perthousand" unicode="&#x2030;" horiz-adv-x="1344" 
d="M1085 43c82 0 139 62 139 160c0 62 -34 103 -97 103c-83 0 -138 -61 -138 -161c0 -61 33 -102 96 -102zM1077 -14c-101 0 -155 62 -155 155c0 129 84 222 213 222c99 0 155 -63 155 -158c0 -127 -82 -219 -213 -219zM662 43c82 0 139 62 139 160c0 62 -34 103 -97 103
c-83 0 -138 -61 -138 -161c0 -61 33 -102 96 -102zM654 -14c-101 0 -155 62 -155 155c0 129 84 222 213 222c99 0 155 -63 155 -158c0 -127 -82 -219 -213 -219zM257 343c82 0 139 62 139 160c0 62 -34 103 -97 103c-83 0 -138 -61 -138 -161c0 -61 33 -102 96 -102z
M249 286c-101 0 -155 62 -155 155c0 129 84 222 213 222c99 0 155 -63 155 -158c0 -127 -82 -219 -213 -219zM235 12l424 629l60 -10l-424 -629z" />
    <glyph glyph-name="guilsinglleft" unicode="&#x2039;" horiz-adv-x="368" 
d="M248 74l-144 176l197 171l28 -37l-152 -135l109 -137z" />
    <glyph glyph-name="guilsinglright" unicode="&#x203a;" horiz-adv-x="367" 
d="M84 74l-29 37l152 134l-109 137l38 39l143 -177z" />
    <glyph glyph-name="fraction" unicode="&#x2044;" horiz-adv-x="445" 
d="M44 24l435 561l46 -27l-435 -562z" />
    <glyph glyph-name="zerosuperior" unicode="&#x2070;" horiz-adv-x="463" 
d="M393 489c4.96289 32.0059 7 61 7 86c0 87 -29 130 -89 130c-93 0 -159 -98 -159 -292c0 -89 31 -138 91 -138c77 0 127.832 71.0264 150 214zM468 489c-26.8115 -165.869 -101 -270 -233 -270c-108 0 -156 77 -156 201c0 181 69 341 240 341c108 0 156 -71 156 -188
c0 -26 -2.14648 -53.9766 -7 -84z" />
    <glyph glyph-name="foursuperior" unicode="&#x2074;" horiz-adv-x="463" 
d="M67 373l2 45c56 80 134 212 189 340l68 -8c-55 -124 -122 -237 -177 -321h175l26 161l23 84h62l-38 -245h62l-7 -52l-64 -4l-14 -89l45 -3l-8 -51h-167l4 51l52 2l15 90h-248z" />
    <glyph glyph-name="fivesuperior" unicode="&#x2075;" horiz-adv-x="464" 
d="M74 243l12 104l50 3l-3 -63c17 -6 41 -11 81 -11c95 0 155 58 155 131c0 51 -40 92 -109 92c-48 0 -81 -16 -84 -20l-37 5l66 266h216l9 28l50 -3l-17 -90l-62 3h-149l-37 -142c16 4 34 6 54 6c107 0 172 -55 172 -139c0 -124 -101 -195 -233 -195
c-101 0 -134 25 -134 25z" />
    <glyph glyph-name="sixsuperior" unicode="&#x2076;" horiz-adv-x="461" 
d="M284 510c-59 0 -96 -32 -111 -52c-4 -9 -11 -29 -14 -47c-2 -14 -3 -27 -3 -39c0 -63 30 -101 94 -101c77 0 116 65 126 128c9 59 -16 111 -92 111zM387 633l3 60c-12 6 -33 12 -63 12c-76 0 -128 -61 -155 -186c31 21 73 40 128 40c106 0 163 -63 149 -161
c-15 -99 -87 -179 -206 -179c-102 0 -159 61 -159 170c0 47 13 93 17 105c42 183 124 267 229 267c25 0 52 -13 72 -25l9 17h42l-14 -119z" />
    <glyph glyph-name="sevensuperior" unicode="&#x2077;" horiz-adv-x="463" 
d="M121 623l22 130l59 -3h305l-8 -60c-96 -122 -211 -301 -279 -460h-84c67 157 178 325 275 455h-225l-14 -62h-51z" />
    <glyph glyph-name="eightsuperior" unicode="&#x2078;" horiz-adv-x="463" 
d="M195 602c0 -67 62 -82 92 -85c35 5 112 25 112 118c0 48 -31 77 -87 77c-71 0 -117 -42 -117 -110zM368 382c0 69 -68 85 -100 89c-37 -6 -119 -30 -119 -122c0 -54 37 -82 93 -82c73 0 126 41 126 115zM473 641c0 -85 -63 -126 -119 -145c42 -14 90 -44 90 -113
c0 -113 -83 -164 -208 -164c-101 0 -165 37 -165 122c0 88 68 133 127 155c-36 14 -75 45 -75 107c0 98 81 158 196 158c95 0 154 -45 154 -120z" />
    <glyph glyph-name="ninesuperior" unicode="&#x2079;" horiz-adv-x="463" 
d="M268 461c60 0 99 34 114 52c6 13 17 49 17 90c0 65 -25 105 -90 105c-86 0 -134 -82 -134 -152c0 -49 28 -95 93 -95zM85 234l14 113l49 3l-3 -69c17 -3 39 -6 68 -6c75 0 143 65 170 187c-21 -21 -64 -51 -132 -51c-93 0 -150 50 -150 136c0 109 84 214 216 214
c100 0 153 -60 153 -167c0 -33 -10 -88 -15 -105c-37 -183 -134 -270 -246 -270c-78 0 -124 15 -124 15z" />
    <glyph glyph-name="zerosub" unicode="&#x2080;" horiz-adv-x="462" 
d="M317 -6c5 32 7 59 7 84c0 87 -29 132 -90 132c-92 0 -158 -98 -158 -292c0 -89 31 -138 91 -138c77 0 127 71 150 214zM391 -6c-25 -166 -100 -270 -232 -270c-108 0 -156 77 -156 201c0 181 69 341 240 341c108 0 155 -70 155 -186c0 -26 -2 -55 -7 -86z" />
    <glyph glyph-name="onesub" unicode="&#x2081;" horiz-adv-x="463" 
d="M101 129l-14 53l156 73h62l-71 -463l93 -2l-7 -55h-272l4 55l109 5l60 389z" />
    <glyph glyph-name="twosub" unicode="&#x2082;" horiz-adv-x="462" 
d="M52 129l22 129h43l3 -35c27 19 70 43 125 43c96 0 139 -55 139 -128c0 -131 -191 -270 -301 -340h208l16 60l51 -4l-21 -119h-358l9 61c4 2 314 198 314 335c0 47 -25 75 -87 75c-50 0 -86 -27 -101 -40l-9 -37h-53z" />
    <glyph glyph-name="threesub" unicode="&#x2083;" horiz-adv-x="462" 
d="M-6 -252l12 104l50 3l-3 -64c17 -5 40 -10 76 -10c100 0 159 51 159 122c1 47 -30 81 -91 81c-33 0 -54 -13 -59 -17l-1 -1l-29 36l192 192h-177l-15 -64h-50l21 128l59 -3h257l-7 -43l-179 -176c4 1 8 1 12 1c83 0 139 -52 139 -129c0 -117 -103 -185 -240 -185
c-91 0 -126 25 -126 25z" />
    <glyph glyph-name="foursub" unicode="&#x2084;" horiz-adv-x="463" 
d="M-10 -122l2 45c56 80 134 212 189 340l68 -8c-55 -124 -122 -237 -177 -321h175l26 161l23 84h62l-38 -245h62l-7 -52l-64 -4l-14 -89l45 -3l-8 -51h-166l4 51l51 2l15 90h-248z" />
    <glyph glyph-name="fivesub" unicode="&#x2085;" horiz-adv-x="464" 
d="M-3 -252l12 104l51 3l-3 -63c17 -6 41 -11 80 -11c95 0 155 58 155 131c0 51 -40 92 -109 92c-48 0 -81 -16 -84 -20l-37 5l66 266h216l9 28l50 -3l-17 -90l-62 3h-149l-37 -142c16 4 34 6 54 6c108 0 172 -55 172 -139c0 -124 -101 -195 -233 -195
c-101 0 -134 25 -134 25z" />
    <glyph glyph-name="sixsub" unicode="&#x2086;" horiz-adv-x="461" 
d="M208 15c-60 0 -97 -32 -112 -52c-4 -9 -11 -28 -14 -47c-2 -14 -3 -26 -3 -38c0 -64 30 -102 94 -102c77 0 117 65 126 128c10 59 -16 111 -91 111zM310 138l4 60c-14 6 -36 12 -68 12c-75 0 -124 -61 -151 -187c31 21 74 41 129 41c95 0 150 -50 150 -131
c0 -10 0 -20 -2 -30c-15 -99 -87 -179 -206 -179c-101 0 -159 61 -159 170c0 47 14 93 17 105c43 183 125 267 229 267c26 0 53 -13 72 -25l9 17h43l-14 -119z" />
    <glyph glyph-name="sevensub" unicode="&#x2087;" horiz-adv-x="464" 
d="M45 128l22 130l59 -3h305l-8 -60c-96 -122 -211 -301 -279 -460h-84c67 158 178 325 275 455h-225l-14 -62h-51z" />
    <glyph glyph-name="eightsub" unicode="&#x2088;" horiz-adv-x="463" 
d="M119 107c0 -67 62 -82 92 -85c35 5 112 25 112 118c0 48 -31 77 -87 77c-71 0 -117 -42 -117 -110zM291 -113c0 70 -67 86 -99 89c-37 -6 -120 -30 -120 -122c0 -54 37 -82 94 -82c72 0 125 41 125 115zM396 146c0 -85 -63 -126 -118 -145c41 -13 90 -44 90 -113
c0 -113 -84 -164 -209 -164c-100 0 -164 37 -164 122c0 88 68 133 127 155c-37 14 -76 44 -76 107c0 98 82 158 197 158c95 0 153 -45 153 -120z" />
    <glyph glyph-name="ninesub" unicode="&#x2089;" horiz-adv-x="462" 
d="M191 -34c61 0 100 34 115 52c6 13 16 49 16 90c1 65 -25 105 -89 105c-86 0 -135 -82 -135 -152c0 -49 28 -95 93 -95zM9 -261l13 113l50 3l-3 -68c18 -4 39 -7 68 -7c75 0 143 65 169 187c-22 -21 -64 -51 -131 -51c-94 0 -151 50 -151 136c0 109 85 214 217 214
c100 0 153 -60 153 -167c0 -33 -11 -88 -15 -105c-37 -183 -134 -270 -246 -270c-79 0 -124 15 -124 15z" />
    <glyph glyph-name="Euro" unicode="&#x20ac;" horiz-adv-x="657" 
d="M582 513l2 43c-14 16 -48 46 -120 46c-118 0 -201 -59 -235 -187h298l-8 -55h-301c-4 -28 -7 -57 -7 -89h294l-8 -54h-284c14 -111 87 -170 204 -170c123 0 177 76 177 76l30 -40s-64 -97 -225 -97c-164 0 -256 90 -269 231l-74 2l4 52h69c1 31 4 61 8 90l-59 1l4 53h67
c42 151 146 248 307 248c67 0 114 -28 140 -50l14 41h47l-17 -141h-58z" />
    <glyph glyph-name="uni20B4" unicode="&#x20b4;" horiz-adv-x="547" 
d="M161 514l21 140h50l-1 -39c30 22 75 48 134 48c95 0 145 -55 145 -122c0 -49 -21 -88 -53 -122l63 -3l-6 -42h-107c-42 -33 -91 -62 -134 -92h226l-6 -47h-277c-29 -30 -48 -63 -48 -102c0 -50 30 -84 108 -84c49 0 84 6 108 13l21 97l57 -4l-25 -133s-46 -36 -173 -36
c-115 0 -172 49 -172 130c0 47 19 86 49 120l-64 3l3 43h110c41 33 89 62 131 92h-223l3 47h280c32 29 53 61 53 100c0 45 -29 79 -98 79c-60 0 -97 -33 -112 -47l-9 -39h-54z" />
    <glyph glyph-name="afii61352" unicode="&#x2116;" horiz-adv-x="1283" 
d="M857 119l5 61h266l-9 -61h-262zM918 460c0 -66 34 -105 106 -105c98 0 151 63 151 175c0 65 -35 103 -107 103c-99 0 -150 -61 -150 -173zM844 462c0 129 77 218 231 218c116 0 173 -59 173 -152c0 -131 -82 -218 -230 -218c-118 0 -174 58 -174 152zM550 -6l-300 537h-1
v-31l-71 -439l79 -4l-8 -57h-233l5 60l80 3l82 528l-79 3l4 56h172l297 -545l1 24l72 460l-79 4l4 57h240l-9 -60l-77 -3l-92 -593h-87z" />
    <glyph glyph-name="trademark" unicode="&#x2122;" horiz-adv-x="866" 
d="M146 704l6 46h324l-7 -46h-146l-48 -304h-50l48 304h-127zM784 400l30 258l-155 -258h-43l-72 275l-51 -275h-47l75 350h54l71 -298l179 298h50l-43 -350h-48z" />
    <glyph glyph-name="onethird" unicode="&#x2153;" horiz-adv-x="961" 
d="M491 -252l12 104l50 3l-3 -64c17 -5 40 -10 76 -10c100 0 159 51 159 122c1 47 -30 81 -91 81c-33 0 -54 -13 -59 -17l-1 -1l-29 36l192 192h-177l-15 -64h-50l21 128l59 -3h257l-7 -43l-179 -176c4 1 8 1 12 1c83 0 139 -52 139 -129c0 -117 -103 -185 -240 -185
c-91 0 -126 25 -126 25zM279 24l435 561l46 -27l-435 -562zM178 624l-14 53l156 73h62l-71 -463l93 -2l-11 -55h-268l4 55l109 5l60 389z" />
    <glyph glyph-name="twothirds" unicode="&#x2154;" horiz-adv-x="985" 
d="M516 -252l12 104l50 3l-3 -64c17 -5 40 -10 76 -10c100 0 159 51 159 122c1 47 -30 81 -91 81c-33 0 -54 -13 -59 -17l-1 -1l-29 36l192 192h-177l-15 -64h-50l21 128l59 -3h257l-7 -43l-179 -176c4 1 8 1 12 1c83 0 139 -52 139 -129c0 -117 -103 -185 -240 -185
c-91 0 -126 25 -126 25zM304 24l435 561l46 -27l-435 -562zM129 624l22 129h43l3 -35c27 19 70 43 125 43c96 0 139 -55 139 -128c0 -131 -191 -271 -301 -340h208l16 60l51 -4l-21 -119h-358l9 61c4 2 314 198 314 335c0 47 -25 75 -87 75c-50 0 -86 -27 -101 -40l-9 -37
h-53z" />
    <glyph glyph-name="oneeighth" unicode="&#x215b;" horiz-adv-x="961" 
d="M616 107c0 -67 62 -82 92 -85c35 5 112 25 112 118c0 48 -31 77 -87 77c-71 0 -117 -42 -117 -110zM788 -113c0 70 -67 86 -99 89c-37 -6 -120 -30 -120 -122c0 -54 37 -82 94 -82c72 0 125 41 125 115zM893 146c0 -85 -63 -126 -118 -145c41 -13 90 -44 90 -113
c0 -113 -84 -164 -209 -164c-100 0 -164 37 -164 122c0 88 68 133 127 155c-37 14 -76 44 -76 107c0 98 82 158 197 158c95 0 153 -45 153 -120zM279 24l435 561l46 -27l-435 -562zM178 624l-14 53l156 73h62l-71 -463l93 -2l-11 -55h-268l4 55l109 5l60 389z" />
    <glyph glyph-name="threeeighths" unicode="&#x215c;" horiz-adv-x="960" 
d="M616 107c0 -67 62 -82 92 -85c35 5 112 25 112 118c0 48 -31 77 -87 77c-71 0 -117 -42 -117 -110zM788 -113c0 70 -67 86 -99 89c-37 -6 -120 -30 -120 -122c0 -54 37 -82 94 -82c72 0 125 41 125 115zM893 146c0 -85 -63 -126 -118 -145c41 -13 90 -44 90 -113
c0 -113 -84 -164 -209 -164c-100 0 -164 37 -164 122c0 88 68 133 127 155c-37 14 -76 44 -76 107c0 98 82 158 197 158c95 0 153 -45 153 -120zM281 24l435 561l46 -27l-435 -562zM70 243l12 104l50 3l-3 -64c18 -6 41 -10 77 -10c100 0 159 51 159 122c0 47 -31 81 -92 81
c-32 0 -53 -14 -58 -17l-1 -1l-30 36l193 192h-177l-15 -64h-51l22 128l59 -3h256l-6 -43l-179 -175h11c84 0 139 -52 139 -129c0 -117 -99 -185 -235 -185c-92 0 -131 25 -131 25z" />
    <glyph glyph-name="fiveeighths" unicode="&#x215d;" horiz-adv-x="951" 
d="M606 107c0 -67 62 -82 92 -85c35 5 112 25 112 118c0 48 -31 77 -87 77c-71 0 -117 -42 -117 -110zM778 -113c0 70 -67 86 -99 89c-37 -6 -120 -30 -120 -122c0 -54 37 -82 94 -82c72 0 125 41 125 115zM883 146c0 -85 -63 -126 -118 -145c41 -13 90 -44 90 -113
c0 -113 -84 -164 -209 -164c-100 0 -164 37 -164 122c0 88 68 133 127 155c-37 14 -76 44 -76 107c0 98 82 158 197 158c95 0 153 -45 153 -120zM271 24l435 561l46 -27l-435 -562zM74 243l12 104l50 3l-3 -63c17 -6 41 -11 81 -11c95 0 155 58 155 131c0 51 -40 92 -109 92
c-48 0 -81 -16 -84 -20l-37 5l66 266h216l9 28l50 -3l-17 -90l-62 3h-149l-37 -142c16 4 34 6 54 6c107 0 172 -55 172 -139c0 -124 -101 -195 -233 -195c-101 0 -134 25 -134 25z" />
    <glyph glyph-name="seveneighths" unicode="&#x215e;" horiz-adv-x="871" 
d="M528 107c0 -67 62 -82 92 -85c35 5 112 25 112 118c0 48 -31 77 -87 77c-71 0 -117 -42 -117 -110zM700 -113c0 70 -67 86 -99 89c-37 -6 -120 -30 -120 -122c0 -54 37 -82 94 -82c72 0 125 41 125 115zM805 146c0 -85 -63 -126 -118 -145c41 -13 90 -44 90 -113
c0 -113 -84 -164 -209 -164c-100 0 -164 37 -164 122c0 88 68 133 127 155c-37 14 -76 44 -76 107c0 98 82 158 197 158c95 0 153 -45 153 -120zM191 24l435 561l46 -27l-435 -562zM121 623l22 130l59 -3h305l-8 -60c-96 -122 -211 -301 -279 -460h-84
c67 157 178 325 275 455h-225l-14 -62h-51z" />
    <glyph glyph-name="arrowup" unicode="&#x2191;" horiz-adv-x="667" 
d="M536 274l-136 166l-68 -450h-58l70 450l-187 -166l-39 35l270 236l196 -236z" />
    <glyph glyph-name="arrowdown" unicode="&#x2193;" horiz-adv-x="704" 
d="M334 -9l-197 236l49 36l136 -169l68 453h57l-70 -451l187 167l39 -36z" />
    <glyph glyph-name="arrowupleft" unicode="&#x2196;" horiz-adv-x="569" 
d="M125 127l24 336l330 -27l-16 -51l-219 18l256 -311l-52 -42l-255 313l-16 -229z" />
    <glyph glyph-name="arrowupright" unicode="&#x2197;" horiz-adv-x="569" 
d="M77 50l-40 42l353 311l-225 -18v51l337 27l-78 -336l-49 7l53 229z" />
    <glyph glyph-name="arrowdownright" unicode="&#x2198;" horiz-adv-x="569" 
d="M140 79l15 51l219 -19l-256 312l51 42l255 -314l17 230l51 7l-24 -336z" />
    <glyph glyph-name="arrowdownleft" unicode="&#x2199;" horiz-adv-x="570" 
d="M58 52l79 336l49 -7l-54 -229l351 313l40 -42l-353 -312l224 19l1 -51z" />
    <glyph glyph-name="minus" unicode="&#x2212;" horiz-adv-x="537" 
d="M47 247l4 61h466l-8 -61h-462z" />
    <glyph glyph-name="uni2731" unicode="&#x2731;" horiz-adv-x="1590" 
d="M597 375l37 11c-13 12 -29 17 -48 19zM524 178l-11 32l-35 -12s19 -20 46 -20zM638 262l6 2c8 15 13 37 14 55l-37 -11zM533 356l-13 35c-12 -5 -36 -27 -41 -45l2 -5zM637 243l-3 9l-52 -17l11 -39c16 11 35 31 44 47zM492 276l-16 55l-11 -5c-5 -9 -15 -38 -12 -63z
M590 373l-12 32c-17 0 -34 -3 -50 -11l12 -34zM1242 338l-33 34l-40 -39l23 -26zM587 193l-13 39l-53 -20l9 -34c18 0 41 6 57 15zM511 216l-16 53l-42 -14c1 -8 8 -35 20 -50zM618 315l39 12c-1 15 -7 37 -20 53l-38 -12zM631 259l-17 46l-51 -15l17 -48zM611 313l-19 53
l-50 -14l18 -55zM572 238l-16 50l-55 -16l17 -53zM554 295l-18 55l-53 -17l16 -54zM1152 351l38 38c-104 81 -182 130 -274 167l-3 -3c100 -55 164 -119 239 -202zM973 91l1 -2s-10 -7 -10 -21c0 -30 26 -42 52 -42c31 0 53 28 53 58c0 39 -26 86 -92 86
c-35 0 -72 -7 -131 -44c-61 -80 -163 -140 -303 -140c-135 0 -300 78 -300 305c0 67 19 136 59 195c-40 -48 -77 -67 -125 -67c-59 0 -127 34 -127 126s62 111 105 111c59 0 65 -51 106 -51c32 0 73 18 90 58l4 -3c-5 -51 -50 -93 -100 -93c-40 0 -60 19 -91 19
c-24 0 -40 -5 -40 -33c0 -51 42 -72 84 -72c46 0 82 13 140 60c70 69 174 115 317 115c127 0 245 -38 353 -94l1 3c-5 4 -19 19 -19 42c0 26 21 56 60 56c35 0 71 -21 71 -63c0 -31 -23 -45 -47 -45c-22 0 -32 18 -28 27l3 2s6 -18 22 -18c14 0 19 16 19 32s-16 37 -42 37
c-25 0 -37 -22 -37 -39c0 -20 10 -37 17 -44c71 -39 138 -85 200 -132l11 9l18 -18l-10 -8l34 -33l13 10l17 -19l-13 -9c83 -86 181 -216 232 -350h-92c-39 117 -108 235 -189 318l-50 -33c79 -98 120 -193 148 -287h-93c-25 91 -55 177 -110 250l-12 -7l-15 22l12 7l-19 26
l-11 -9l-16 20l13 10c-83 106 -216 274 -457 274c-189 0 -338 -106 -338 -299c0 -198 153 -246 235 -246c175 0 311 140 311 275c0 82 -67 119 -125 119c-21 0 -38 -10 -59 -27c21 -45 102 -87 133 -68l1 -1s-7 -33 -43 -33c-33 0 -83 46 -99 94c-8 -9 -12 -22 -12 -22
c32 -27 44 -84 44 -116c0 -35 -26 -48 -51 -48v-13c0 -64 -37 -82 -62 -82c-32 0 -47 26 -47 26s-30 -22 -64 -22c-32 0 -48 20 -48 54c0 23 3 40 3 40h-6c-18 0 -53 8 -53 49c0 55 71 76 81 79c-2 1 -17 14 -17 31c0 37 67 49 111 49c10 0 19 2 32 2c10 0 22 -1 36 -6
l15 18c-40 -2 -102 14 -102 61c0 33 44 40 44 40l1 -1c-6 -4 -10 -16 -7 -29c8 -29 41 -56 75 -60c28 21 55 38 93 38c88 0 184 -52 184 -173c0 -53 -16 -110 -46 -162c56 41 94 49 132 49c72 0 128 -47 128 -109c0 -60 -50 -105 -110 -105c-42 0 -70 24 -70 60
c0 15 7 29 24 36z" />
    <glyph glyph-name="uni2732" unicode="&#x2732;" horiz-adv-x="1590" 
d="M926 386l37 -11l10 30c-18 -2 -35 -7 -47 -19zM1046 210l-10 -32c26 0 46 20 46 20zM916 264l6 -2l17 46l-37 11c0 -18 5 -40 14 -55zM1039 391l-13 -35l53 -15l2 5c-5 18 -29 40 -42 45zM926 252l-4 -9c9 -16 29 -36 44 -47l12 39zM1084 331l-16 -55l39 -13
c2 25 -7 54 -13 63zM981 405l-11 -32l50 -13l11 34c-16 8 -33 11 -50 11zM986 232l-13 -39c15 -9 39 -15 56 -15l10 34zM351 372l-33 -34l49 -31l24 26zM1065 269l-16 -53l38 -11c12 15 19 42 20 50zM903 327l39 -12l18 53l-38 12c-13 -16 -19 -38 -19 -53zM945 305l-17 -46
l52 -17l17 48zM967 366l-19 -53l51 -16l18 55zM1003 288l-15 -50l54 -19l16 53zM1024 350l-18 -55l55 -16l16 54zM369 389l38 -38c76 83 139 147 239 202l-2 3c-93 -37 -170 -86 -275 -167zM585 89l2 2c17 -7 24 -21 24 -36c0 -36 -29 -60 -70 -60c-61 0 -111 45 -111 105
c0 62 57 109 129 109c38 0 74 -8 131 -49c-31 52 -46 109 -46 162c0 121 97 173 184 173c38 0 66 -17 93 -38c35 4 68 31 75 60c3 13 -1 25 -7 29l1 1s45 -7 45 -40c0 -47 -62 -63 -102 -61l14 -18c14 5 26 6 36 6c13 0 23 -2 33 -2c43 0 111 -12 111 -49
c0 -17 -16 -30 -20 -31c12 -3 84 -24 84 -79c0 -41 -35 -49 -53 -49h-6s2 -17 2 -40c0 -34 -15 -54 -47 -54c-34 0 -65 22 -65 22s-15 -26 -46 -26c-25 0 -62 18 -62 82v13c-26 0 -52 13 -52 48c0 32 13 89 45 116c0 0 -4 13 -12 22c-16 -48 -66 -94 -100 -94
c-36 0 -43 33 -43 33l2 1c30 -19 112 23 133 68c-21 17 -38 27 -60 27c-57 0 -124 -37 -124 -119c0 -135 136 -275 311 -275c82 0 234 48 234 246c0 193 -149 299 -337 299c-242 0 -375 -168 -458 -274l14 -10l-16 -20l-12 9l-19 -26l12 -7l-14 -22l-13 7
c-54 -73 -84 -159 -110 -250h-93c29 94 70 189 149 287l-50 33c-81 -83 -150 -201 -190 -318h-91c50 134 149 264 231 350l-13 9l18 19l12 -10l34 33l-9 8l18 18l10 -9c62 47 128 93 200 132c7 7 17 24 17 44c0 17 -12 39 -37 39c-26 0 -41 -21 -41 -37s5 -32 19 -32
c16 0 21 18 21 18l4 -2c4 -9 -6 -27 -29 -27c-24 0 -46 14 -46 45c0 42 36 63 71 63c38 0 60 -30 60 -56c0 -23 -14 -38 -19 -42v-3c108 56 226 94 354 94c143 0 249 -48 319 -118c56 -45 92 -57 138 -57c41 0 84 21 84 72c0 28 -17 33 -40 33c-31 0 -52 -19 -91 -19
c-50 0 -95 42 -101 93l5 3c17 -40 57 -58 90 -58c40 0 46 51 105 51c44 0 106 -19 106 -111s-68 -126 -127 -126c-50 0 -88 20 -127 70c41 -60 61 -130 61 -198c0 -227 -166 -305 -301 -305c-141 0 -243 61 -304 141c-59 37 -95 43 -130 43c-65 0 -92 -47 -92 -86
c0 -30 23 -58 53 -58c26 0 53 12 53 42c0 14 -11 21 -11 21z" />
    <glyph glyph-name="uni2733" unicode="&#x2733;" horiz-adv-x="1263" 
d="M980 417c10 0 20 -2 28 -7l8 6c-10 21 -35 54 -58 92c10 -32 21 -68 22 -91zM1083 536c-27 -12 -51 -15 -73 -14c30 -17 62 -32 83 -43c8 9 17 15 29 18c-19 5 -33 20 -39 39zM911 414c9 -6 16 -14 21 -24c7 12 17 21 30 25c-1 26 -18 77 -29 113
c-3 -44 -11 -94 -22 -114zM843 435c1 -9 0 -18 -3 -26c8 7 19 12 31 14c9 1 18 0 26 -3c9 23 16 65 19 104c-19 -37 -45 -63 -77 -74c2 -5 3 -10 4 -15zM1039 423c18 2 36 -4 48 -16c-4 7 -7 15 -8 25s0 20 3 28c-28 15 -73 37 -109 60c24 -37 53 -77 63 -98c1 0 2 1 3 1z
M1019 44l23 44l-234 116l-24 -45zM762 170l23 45l-428 209l-22 -44zM288 421c21 70 -65 126 -130 126c-23 0 -44 -7 -56 -23c-6 -10 -11 -24 -11 -41c0 -59 48 -110 108 -109c31 -1 70 14 89 47zM621 34l-20 18s-11 -58 -43 -86c-5 27 -16 51 -14 79
c-12 -14 -38 -12 -59 -17c11 24 23 36 23 65c0 28 -38 40 -76 45c-69 -41 -159 -77 -272 -83l-1 40c35 2 69 7 102 15c2 3 3 9 3 16c0 21 -44 50 -49 53c8 1 21 8 35 5l-35 48c11 2 27 12 45 4c0 0 -6 28 -14 39c13 -1 26 5 47 5c41 0 60 -25 60 -57c0 -33 -21 -72 -59 -97
l-13 -11c113 32 204 92 255 141l-213 105l-4 -8c-10 -17 -31 -4 -23 11l4 8l-3 1c-27 -26 -62 -37 -99 -37c-76 0 -141 63 -141 136c0 10 1 20 3 31l-9 4c-4 2 -6 10 -2 18l28 56c4 9 10 12 14 10l10 -5c28 32 68 46 109 46c82 0 145 -66 139 -154l2 -2l4 8
c7 15 30 6 23 -10l-4 -8l228 -112c27 30 50 74 76 116c-2 34 -14 61 -37 61c-5 -99 -99 -97 -99 -97l-6 32l-55 -9s-1 33 -1 36c-27 -1 -38 13 -66 14c0 0 21 29 31 49c-32 20 -52 59 -52 59c20 1 47 19 100 25c-1 14 -12 29 -17 34c13 2 29 16 61 16c47 0 121 -19 112 -128
c25 -1 44 -29 51 -57c38 59 84 108 151 108c72 0 110 -67 180 -67c15 0 31 3 49 10c2 29 22 54 53 58c33 4 63 -19 67 -52c3 -31 -15 -58 -44 -65c22 -7 39 -26 42 -50c4 -34 -19 -62 -52 -67c-19 -2 -36 3 -49 14c5 -7 7.95508 -15.0049 9 -24
c3.83594 -33.0195 -20 -62 -53 -66c-17 -2 -31 2 -43 11c-7 -4 -15 -7 -24 -8c-24 -3 -44 9 -54 28c-9 -16 -26 -28 -46 -30c-34 -5 -62 17 -66 51c-2 10 0 21 3 30c-8 -6 -18.0029 -10.9678 -29 -12c-31.0088 -2.91016 -57 18 -61 49c-3 30 18.0049 57.9502 49 61
c20.0029 1.96777 39 -6 50 -22c35 16 62 61 73 98c-20 9 -39 16 -59 16c-97 0 -141 -161 -214 -237l172 -84l4 8c6 12 29 4 23 -10l-4 -9l253 -124l8 17c7.04785 14.9775 34 2 26 -13l-68 -137c-7 -15 -34 -6 -26 12l8 16l-252 124l-4 -7c-8 -15 -31 -5 -23 11l4 8l-185 90
c-23 -21 -52 -47 -89 -73c19 6 39 9 58 9c55 0 102 -26 102 -85c0 -24 -14 -48 -18 -58z" />
    <glyph glyph-name="uni2736" unicode="&#x2736;" horiz-adv-x="498" 
d="M359 199v197l-52 -71l28 -53l-75 -45l25 106l-36 118l-36 -118l25 -106l-76 45l29 53l-52 71v-197h75l35 -64l35 64h75zM428 143l-179 -71l-179 71v357h358v-357z" />
    <glyph glyph-name="uni2737" unicode="&#x2737;" horiz-adv-x="885" 
d="M680 330c26 8 45 23 45 41c0 10 -8 18 -19 18c-17 0 -26 -13 -26 -59zM205 330c0 46 -9 59 -26 59c-11 0 -20 -8 -20 -18c0 -18 20 -33 46 -41zM417 622c0 -12 11 -33 25 -40c15 7 26 28 26 40c0 18 -12 26 -26 29c-14 -3 -25 -11 -25 -29zM200 244l6 -2v17
c0 44 -15 68 -46 68c-25 0 -39 -29 -42 -50c43 3 59 -4 82 -33zM678 242l7 2c22 29 39 36 82 33c-3 21 -18 50 -42 50c-31 0 -47 -24 -47 -68v-17zM590 22l-9 95l-42 -42h-193l-42 42l-9 -95h295zM74 261c0 -30 15 -73 70 -75h25c36 0 53 -28 53 -56c0 -22 -13 -39 -32 -39
c-11 0 -24 5 -24 19c0 11 8 17 16 17c9 0 14 -16 8 -23c12 -2 20 13 20 26c0 23 -14 40 -45 40s-49 -19 -49 -50c0 -36 30 -66 79 -66c37 0 76 26 76 81c0 13 -14 41 -55 82c-55 54 -77 27 -142 44zM695 105c-6 8 -1 23 8 23c8 0 17 -5 17 -17c0 -13 -14 -20 -25 -20
c-19 0 -32 17 -32 39c0 28 17 56 53 56h25c54 2 70 45 70 75c-65 -17 -88 10 -142 -44c-41 -41 -55 -69 -55 -82c0 -55 38 -81 75 -81c49 0 81 32 81 66s-19 52 -51 52c-31 0 -44 -18 -44 -41c0 -13 7 -28 20 -26zM442 181c7 29 38 65 66 65c20 0 42 -7 42 -7s-3 65 -3 91
c0 43 6 87 6 87c-50 -13 -62 -27 -62 -52c0 -30 -7 -38 -7 -38c4 0 44 10 44 -32c0 -22 -25 -33 -44 -33c-12 0 -29 7 -29 35c0 76 1 114 35 114h2v6c0 16 -31 25 -50 65c-18 -40 -49 -49 -49 -65v-6h1c35 0 36 -38 36 -114c0 -28 -17 -35 -29 -35c-19 0 -44 11 -44 33
c0 42 39 32 44 32c0 0 -7 8 -7 38c0 25 -12 39 -63 52c0 0 7 -44 7 -87c0 -26 -4 -91 -4 -91s22 7 42 7c28 0 59 -36 66 -65zM510 162h-135l-91 97v145l91 97h135l91 -97v-145zM346 99h193l120 136v193l-126 132h-181l-126 -132v-193zM620 0h-355l9 77
c-6 -17 -32 -46 -80 -46c-69 0 -102 48 -102 86c0 32 13 48 29 56c-72 13 -73 70 -75 106l49 -6c5 26 17 74 59 73c-4 5 -11 15 -11 25c0 17 14 34 36 34c11 0 19 -5 25 -17v49l139 145h74c-9 6 -17 26 -17 40c0 29 18 42 42 48c24 -6 43 -19 43 -48c0 -14 -8 -34 -17 -40
h74l139 -145v-49c6 12 14 17 25 17c22 0 35 -17 35 -34c0 -10 -7 -20 -10 -25c42 1 53 -47 58 -73l50 6c-2 -36 -3 -93 -75 -106c16 -8 28 -24 28 -56c0 -38 -32 -86 -101 -86c-48 0 -74 29 -81 46z" />
    <glyph glyph-name="uni2766" unicode="&#x2766;" horiz-adv-x="954" 
d="M762 356c9 4 19 5 29 4l-4 8c-5 9 -7 19 -6 29c-29 5 -77 19 -118 33c36 -29 79 -59 95 -76zM768 475c-26 -15 -56 -24 -85 -29c37 -12 77 -23 103 -28c4 11 12 20 23 26c-17 4 -32 14 -41 31zM698 305c10 2 20 2 28 0c1 13 6 26 16 36c-19 20 -64 52 -104 86
c22 -37 51 -86 60 -122zM626 302c13 -3 25 -12 34 -24c5 9 13 17 23 22c-11 38 -43 92 -66 128c9 -44 14 -98 9 -126zM242 216c96 36 145 119 145 193c0 20 -3 39 -10 56c-81 -25 -142 -96 -142 -191c0 -18 2 -38 7 -58zM549 305c13 -28 -1 -60 -30 -73
c-28 -12 -59 0 -71 29c-13 28 -1 61 27 73c19 8 40 5 55 -6c30 27 51 86 48 126c-19 9 -59 24 -113 24c-18 0 -38 -2 -59 -6c7 -19 10 -39 10 -60c0 -87 -57 -182 -167 -221c31 -87 120 -133 203 -133c64 0 124 27 153 84l26 -15c-33 -70 -105 -103 -181 -103
c-99 0 -204.591 56.125 -237 162c-8.8877 29.0342 -13 57 -13 83c0 110 74 192 163 222c-12 17 -28 32 -49 42c-21 -68 -80 -90 -132 -90c-33 0 -62 9 -80 20c8 17 17 43 25 52c-70 13 -85 39 -98 45c8 3 11 35 32 45c-40 51 -31 75 -41 86c19 -5 40 17 89 17
c16 0 34 -2 56 -8c-11 24 -7 45 -6 62c53 10 179 -36 179 -141c0 -18 -3 -38 -12 -59c30 -15 53 -37 68 -63c23 5 46 7 67 7c64 0 116 -18 142 -26c19 -5 40 -9 64 -9c29 0 61 6 94 25c-3 26 10.0254 50.9453 36 63c30.0293 13.9365 65 0 79 -30c13 -30 3 -62 -24 -77
c19 -4 35 -16 44 -34c14 -31 0 -65 -31 -80c-10 -4 -19 -6 -28 -5l5 -9c13 -30 -1 -65 -32 -78c-15 -7 -31 -7 -45 -2c-2 -19 -14 -35 -33 -43c-25 -11 -54 -3 -69 17c-6 -12 -16 -22 -29 -28c-31 -14 -65 -1 -79 30c-14 30 -1 66 30 79c8 4 16 5 25 5c3 27 -2 76 -10 119
c-8 -45 -31 -83 -59 -105c3 -4 6 -8 8 -13z" />
    <glyph glyph-name="uni2767" unicode="&#x2767;" horiz-adv-x="653" 
d="M455 184c15 2 29 -2 41 -10c-6 7 -10 15 -11 25c-2 7 -2 13 -1 20c-23 6 -63 27 -104 49c30 -31 58 -66 70 -85c1 0 3 0 5 1zM296 156c13 -6 23 -18 27 -33c6 12 18 21 32 25c0 40 -22 98 -39 134c3 -45 -10 -102 -20 -126zM375 149c16 -2 29 -11 37 -24
c-2 19 5 37 19 48c-15 25 -54 73 -94 109c17 -38 36 -94 38 -133zM230 178c5 -28 -12 -52 -39 -58c-27 -5 -51 11 -56 38c-6 27 10 53 37 58c18 4 36 -3 47 -16c35 22 65 68 62 106c-18 9 -67 23 -116 23c-61 0 -95 -22 -122 -48l-33 14c30 28 61 67 149 67
c10 0 20 -1 30 -2c40 9 79 28 100 64c-45 23 -60 58 -60 94c0 47 26 94 48 113c14 -14 38 -28 45 -38c28 59 52 74 58 84c1 -7 31 -25 34 -47c48 26 71 9 80 18c-4 -11 0 -23 0 -43s-5 -47 -28 -86c24 5 42 -6 56 -7c4 -41 -51 -139 -135 -139c-24 0 -50 8 -78 27
c-14 -23 -34 -39 -58 -50c20 -5 38 -12 54 -18c49 -20 143 -81 186 -94c8 12 20 21 36 24c29 6 57 -13 63 -42c6 -30 -14 -57 -43 -63c-17 -3 -32 1 -43 9c7 -7 12 -16 14 -26c5 -30 -15 -56 -43 -62c-24 -4 -46 6 -56 25c1 -25 -16 -46 -40 -50c-26 -6 -52 10 -58 35
c-7 -16 -22 -28 -40 -31c-30 -6 -55.9004 12.0205 -62 42c-5.9043 29.0195 13 58 42 62c6 1 12 1 17 1c8 23 19 68 19 109c-10 -40 -41 -71 -69 -86z" />
    <glyph glyph-name="st" unicode="&#xfb06;" horiz-adv-x="829" 
d="M393 367l-2 49c-15 14 -51 41 -105 41c-62 0 -110 -30 -110 -80c0 -108 260 -72 260 -218c0 -89 -67 -173 -240 -173c-104 0 -159 26 -159 26l11 127l51 3l-6 -82c25 -8 64 -17 111 -17c102 0 147 52 147 102c0 106 -257 72 -257 224c0 96 83 145 184 145
c6 0 12 -1 18 -1c-9 18 -14 37 -14 60c0 94 73 177 198 177h248l-39 -250h151l-9 -63h-152l-44 -286c-2 -12 -3 -23 -3 -33c0 -45 20 -67 58 -67c42 0 78 6 78 6l-9 -57s-34 -14 -102 -14c-70 0 -109 30 -109 107c0 13 2 29 4 45l81 511l18 52h-176
c-91 0 -142 -54 -142 -135c0 -32 17 -57 37 -77c13 -7 24 -14 33 -20l14 35h42l-16 -137h-50z" />
    <glyph glyph-name="halfcaron" horiz-adv-x="385" 
d="M289 545l-48 7c29 45 60 129 64 182l11 35l54 -7c-13 -66 -49 -167 -81 -217z" />
    <glyph glyph-name="commaaccent" horiz-adv-x="235" 
d="M-25 -289l-22 22c59 42 89 106 88 149c-8 1 -15 4 -20 9c-14 14 -11 40 8 54c17 12 41 12 55 0l3 -3c7 -9 10 -21 10 -36c0 -58 -52 -149 -122 -195z" />
    <glyph glyph-name="zero.onum" horiz-adv-x="672" 
d="M536 259c3 16 4 31 4 46c0 92 -53 146 -164 146c-153 0 -224 -99 -224 -237c0 -96 51 -165 161 -165c129 0 203 90 223 210zM618 259c-25 -157 -132 -273 -314 -273c-160 0 -234 95 -234 226c0 180 104 302 315 302c161 0 237 -75 237 -200c0 -17 -1 -36 -4 -55z" />
    <glyph glyph-name="one.onum" horiz-adv-x="423" 
d="M104 398v58c8 0 176 44 176 44h64l-69 -441l58 -3l-8 -56h-228l5 60l93 2l59 372c-57 -14 -145 -36 -150 -36z" />
    <glyph glyph-name="two.onum" horiz-adv-x="548" 
d="M90 348l26 156h47l1 -38c30 21 81 48 140 48c125 0 180 -57 180 -133c0 -149 -215 -263 -329 -313h258l20 77l56 -4l-25 -141h-449l8 55l23 5c52 22 348 159 348 303c0 52 -40 85 -113 85c-64 0 -107 -35 -122 -49l-11 -51h-58z" />
    <glyph glyph-name="three.onum" horiz-adv-x="527" 
d="M75 352l26 152l64 -4h326l-6 -47l-234 -229c6 0 14 1 21 1c108 0 179 -59 179 -154c0 -142 -116 -235 -288 -235c-117 0 -170 30 -170 30l14 125l55 4l-4 -81c23 -7 57 -14 108 -14c130 0 203 72 203 166c0 60 -44 102 -127 102c-39 0 -67 -19 -71 -22l-31 39l245 248
h-236l-18 -81h-56z" />
    <glyph glyph-name="four.onum" horiz-adv-x="557" 
d="M8 0l3 53c74 102 196 289 279 453l76 -6c-80 -163 -192 -329 -271 -439h250l38 242l27 102h68l-53 -344h81l-6 -57l-84 -4l-23 -150h-81l23 150h-327z" />
    <glyph glyph-name="five.onum" horiz-adv-x="518" 
d="M-3 -134l14 125l55 3l-4 -80c21 -7 54 -14 105 -14c123 0 201 81 201 176c0 66 -54 116 -146 116c-59 0 -96 -20 -102 -25l-40 5l83 328h267l11 36l56 -4l-19 -103l-69 4h-195l-51 -192c22 5 47 9 74 9c133 0 213 -64 213 -166c0 -149 -121 -248 -286 -248
c-125 0 -167 30 -167 30z" />
    <glyph glyph-name="six.onum" horiz-adv-x="594" 
d="M329 359c-98 0 -151 -58 -167 -81c-3 -10 -6.91406 -23.0146 -10 -41c-2.91895 -17.0137 -4 -33 -4 -48c0 -86 42 -145 136 -145c110 0 164.941 95.0098 178 177c11.9463 75.0088 -26 138 -133 138zM467 509l3 54c-16 15 -47 38 -94 38c-100 0 -175 -82 -210 -247
c41 29 100 59 180 59c127 0 201 -57 201 -157c0 -11 -1.02441 -22.9961 -3 -36c-18.2256 -119.966 -111 -234 -268 -234c-136 0 -208 87 -208 223c0 56 14 99 18 114c51 231 159 340 285 340c52 0 89 -25 111 -45l14 36h47l-18 -145h-58z" />
    <glyph glyph-name="seven.onum" horiz-adv-x="483" 
d="M60 348l28 156l63 -4h358l-9 -66c-115 -154 -256 -384 -335 -584h-92c80 200 216 415 333 579h-272l-18 -81h-56z" />
    <glyph glyph-name="eight.onum" horiz-adv-x="577" 
d="M197 474c0 -89 81 -111 120 -116c43 6 156 33 156 157c0 62 -40 94 -119 94c-102 0 -157 -49 -157 -135zM433 189c0 90 -88 111 -130 116c-45 -6 -167 -33 -167 -159c0 -71 48 -106 128 -106c103 0 169 52 169 149zM558 519c0 -110 -86 -161 -159 -185
c55 -17 122 -55 122 -145c0 -140 -106 -203 -264 -203c-129 0 -210 47 -210 153c0 115 94 170 172 195c-49 19 -105 58 -105 141c0 120 99 188 247 188c122 0 197 -52 197 -144z" />
    <glyph glyph-name="nine.onum" horiz-adv-x="595" 
d="M280 129c94 0 147 52 164 73c7 20 22 75 22 123c0 82 -39 131 -131 131c-124 0 -187 -102 -187 -192c0 -65 38 -135 132 -135zM48 -143l16 134l56 4l-5 -86c24 -6 57 -10 100 -10c108 0 197 86 230 246c-28 -28 -85 -70 -182 -70c-128 0 -197 79 -197 185
c0 132 103 254 277 254c134 0 203 -69 203 -201c0 -55 -17 -121 -20 -135c-46 -228 -166 -341 -315 -341c-104 0 -163 20 -163 20z" />
    <glyph glyph-name="dollar.onum" horiz-adv-x="477" 
d="M161 -117l11 104c-88 3 -135 25 -135 25l11 127l51 3l-6 -82c25 -8 64 -17 111 -17c102 0 147 52 147 102c0 106 -257 72 -257 224c0 87 68 135 156 143l20 121h60l-14 -123c37 -8 67 -27 87 -41l14 35h42l-16 -137h-50l-2 49c-15 14 -51 41 -105 41
c-62 0 -110 -30 -110 -80c0 -108 260 -72 260 -218c0 -82 -56 -159 -198 -171l-17 -105h-60z" />
    <glyph glyph-name="cent.onum" horiz-adv-x="483" 
d="M197 -119l12 112c-98 23 -164 101 -164 216c0 182 82 293 232 304l18 118h61l-14 -121c39 -9 67 -28 84 -43l14 37h52l-22 -169h-62l6 78c-11 16 -38 42 -99 42c-124 0 -186 -73 -186 -242c0 -109 71 -168 157 -168c91 0 129 60 129 60l41 -28s-45 -90 -182 -91l-17 -105
h-60z" />
    <glyph glyph-name="sterling.onum" horiz-adv-x="543" 
d="M460 368l3 44c-10 12 -35 36 -81 36c-83 0 -126 -40 -130 -128l-3 -46h218l-8 -55h-214c-6 -68 -18 -119 -48 -159h240l21 79l56 -4l-25 -135h-466l8 60h85c32 33 43 82 49 159l-108 1l4 54h108c0 13 1 27 2 42c7 132 77 198 192 198c57 0 94 -26 113 -44l12 34h51
l-17 -136h-62z" />
    <glyph glyph-name="yen.onum" horiz-adv-x="513" 
d="M56 183l5 61h174l-132 248l-91 3l7 55h215l-7 -55l-34 -2l107 -202l168 201l-32 2l8 56h204l-9 -58l-90 -3l-205 -245h137l-8 -61h-152l-19 -122l68 -2l-7 -59h-216l3 59l71 2l19 122h-184z" />
    <glyph glyph-name="Euro.onum" horiz-adv-x="562" 
d="M471 363l2 47c-14 15 -50 45 -111 45c-107 0 -166 -61 -181 -182h335l-8 -55h-331v-12c0 -109 60 -161 150 -161c95 0 147 53 147 53l28 -41s-54 -71 -180 -71c-139 0 -225 81 -225 218v14l-58 1l4 54h58c19 151 104 241 249 241c64 0 110 -31 133 -52l16 42h51l-17 -141
h-62z" />
    <glyph glyph-name="uni20B4.onum" horiz-adv-x="497" 
d="M130 385l21 119h42l1 -28c28 17 70 38 122 38c84 0 132 -45 132 -104c0 -63 -46 -105 -92 -132h93l-8 -55h-196c-33 -11 -99 -41 -99 -106c0 -47 39 -72 116 -72c32 0 59 4 78 8l17 74l50 -4l-22 -117s-40 -20 -132 -20c-125 0 -184 43 -184 111c0 60 44 101 89 126
l-99 1l4 54h190c32 9 119 41 119 111c0 41 -34 66 -85 66c-53 0 -84 -22 -98 -35l-10 -35h-49z" />
    <glyph glyph-name="afii61352.onum" horiz-adv-x="996" 
d="M773 0l5 61h266l-9 -61h-262zM835 340c0 -66 34 -105 106 -105c98 0 151 63 151 175c0 65 -35 103 -107 103c-99 0 -150 -61 -150 -173zM761 342c0 129 77 218 231 218c116 0 173 -59 173 -152c0 -131 -82 -218 -230 -218c-118 0 -174 58 -174 152zM477 -5l-261 438h-2
l2 -17l-58 -360l69 -4l-7 -52h-210l4 59l70 2l67 431l-69 3l9 55h153l259 -445l1 17l58 369l-68 3l7 56h213l-8 -55l-69 -2l-76 -498h-84z" />
    <glyph glyph-name="onefifth" horiz-adv-x="914" 
d="M463 -252l12 104l51 3l-3 -63c17 -6 41 -11 80 -11c95 0 155 58 155 131c0 51 -40 92 -109 92c-48 0 -81 -16 -84 -20l-37 5l66 266h216l9 28l50 -3l-17 -90l-62 3h-149l-37 -142c16 4 34 6 54 6c108 0 172 -55 172 -139c0 -124 -101 -195 -233 -195
c-101 0 -134 25 -134 25zM290 24l435 561l46 -27l-435 -562zM178 624l-14 53l156 73h62l-71 -463l93 -2l-11 -55h-268l4 55l109 5l60 389z" />
    <glyph glyph-name="twofifths" horiz-adv-x="945" 
d="M495 -252l12 104l51 3l-3 -63c17 -6 41 -11 80 -11c95 0 155 58 155 131c0 51 -40 92 -109 92c-48 0 -81 -16 -84 -20l-37 5l66 266h216l9 28l50 -3l-17 -90l-62 3h-149l-37 -142c16 4 34 6 54 6c108 0 172 -55 172 -139c0 -124 -101 -195 -233 -195
c-101 0 -134 25 -134 25zM289 24l435 561l46 -27l-435 -562zM129 624l22 129h43l3 -35c27 19 70 43 125 43c96 0 139 -55 139 -128c0 -131 -191 -271 -301 -340h208l16 60l51 -4l-21 -119h-358l9 61c4 2 314 198 314 335c0 47 -25 75 -87 75c-50 0 -86 -27 -101 -40l-9 -37
h-53z" />
    <glyph glyph-name="threefifths" horiz-adv-x="945" 
d="M495 -252l12 104l51 3l-3 -63c17 -6 41 -11 80 -11c95 0 155 58 155 131c0 51 -40 92 -109 92c-48 0 -81 -16 -84 -20l-37 5l66 266h216l9 28l50 -3l-17 -90l-62 3h-149l-37 -142c16 4 34 6 54 6c108 0 172 -55 172 -139c0 -124 -101 -195 -233 -195
c-101 0 -134 25 -134 25zM285 24l435 561l46 -27l-435 -562zM70 243l12 104l50 3l-3 -64c18 -6 41 -10 77 -10c100 0 159 51 159 122c0 47 -31 81 -92 81c-32 0 -53 -14 -58 -17l-1 -1l-30 36l193 192h-177l-15 -64h-51l22 128l59 -3h256l-6 -43l-179 -175h11
c84 0 139 -52 139 -129c0 -117 -99 -185 -235 -185c-92 0 -131 25 -131 25z" />
    <glyph glyph-name="fourfifths" horiz-adv-x="945" 
d="M495 -252l12 104l51 3l-3 -63c17 -6 41 -11 80 -11c95 0 155 58 155 131c0 51 -40 92 -109 92c-48 0 -81 -16 -84 -20l-37 5l66 266h216l9 28l50 -3l-17 -90l-62 3h-149l-37 -142c16 4 34 6 54 6c108 0 172 -55 172 -139c0 -124 -101 -195 -233 -195
c-101 0 -134 25 -134 25zM289 24l435 561l46 -27l-435 -562zM29 373l2 45c56 80 134 212 189 340l68 -8c-55 -124 -122 -237 -177 -321h175l26 161l23 84h62l-38 -245h62l-7 -52l-64 -4l-14 -89l45 -3l-8 -51h-167l4 51l52 2l15 90h-248z" />
    <glyph glyph-name="ct" horiz-adv-x="850" 
d="M408 335l6 78c-1 2 -3 4 -5 6c-9 5 -23 14 -38 26c-14 6 -33 10 -56 10c-124 0 -186 -73 -186 -242c0 -109 71 -168 157 -168c91 0 129 60 129 60l41 -28s-45 -91 -184 -91c-132 0 -227 85 -227 223c0 191 90 305 255 305c5 0 11 0 16 -1c-10 20 -15 41 -15 67
c0 94 84 170 207 170h241l-39 -250h151l-10 -63h-151l-44 -279c-1.89551 -12.0166 -3 -23 -3 -33c0 -45 20 -68 59 -68c41 0 76 7 76 7l-7 -57s-35 -14 -104 -14c-68 0 -107 28 -107 104c0 14 1 30 4 47l81 506l18 51h-170c-83 0 -152 -40 -152 -127c0 -31 13 -57 30 -78
c20 -9 34 -20 45 -29l14 37h52l-22 -169h-62z" />
    <glyph glyph-name="y.alt" horiz-adv-x="591" 
d="M406 440l8 60h139l-68 -436c0 -260 -133 -328 -276 -328c-123 0 -169 36 -169 36l19 131l54 3l-7 -94c25 -10 59 -19 107 -19c112 0 189 63 191 259c0 0 -41 -66 -167 -66c-99 0 -167 37 -167 124c0 10 1 20 3 31l45 296l-56 3l5 60h142l-54 -344
c-11 -72 35 -102 114 -102c99 0 143 56 143 56l50 327z" />
    <glyph glyph-name="yacute.alt" horiz-adv-x="588" 
d="M375 572l-56 4l116 143l77 -8zM406 440l8 60h139l-68 -436c0 -260 -133 -328 -276 -328c-123 0 -169 36 -169 36l19 131l54 3l-7 -94c25 -10 59 -19 107 -19c112 0 189 63 191 259c0 0 -41 -66 -167 -66c-99 0 -167 37 -167 124c0 10 1 20 3 31l45 296l-56 3l5 60h142
l-54 -344c-11 -72 35 -102 114 -102c99 0 143 56 143 56l50 327z" />
    <glyph glyph-name="ydieresis.alt" horiz-adv-x="588" 
d="M248 614c-15 16 -10 45 8 61c9 6 20 10 31 10s22 -4 29 -10c15 -16 11 -45 -8 -61c-9 -7 -21 -10 -32 -10s-21 3 -28 10zM424 614c-14 16 -11 45 9 61c9 6 20 10 31 10s21 -4 29 -10c13 -16 10 -45 -9 -61c-9 -7 -21 -10 -32 -10s-21 3 -28 10zM406 440l8 60h139
l-68 -436c0 -260 -133 -328 -276 -328c-123 0 -169 36 -169 36l19 131l54 3l-7 -94c25 -10 59 -19 107 -19c112 0 189 63 191 259c0 0 -41 -66 -167 -66c-99 0 -167 37 -167 124c0 10 1 20 3 31l45 296l-56 3l5 60h142l-54 -344c-11 -72 35 -102 114 -102
c99 0 143 56 143 56l50 327z" />
    <glyph glyph-name="afii10066.alt" horiz-adv-x="566" 
d="M264 45c131 0 201 100 201 260c0 93 -44 150 -137 150c-131 0 -201 -94 -201 -256c0 -94 44 -154 137 -154zM255 -14c-140 0 -210 85 -210 216c0 138 56 243 162 288c-39 21 -67 56 -67 109c0 110 91 164 206 164c48 0 105 -17 140 -17c53 0 68 17 68 17l43 -9
s-22 -80 -115 -80c-55 0 -92 18 -143 18c-58 0 -123 -25 -123 -96c0 -55 45 -77 97 -83c8 1 15 1 23 1c141 0 212 -79 212 -209c0 -186 -109 -319 -293 -319z" />
    <glyph glyph-name="afii10085.alt" horiz-adv-x="588" 
d="M406 440l8 60h139l-68 -436c0 -260 -133 -328 -276 -328c-123 0 -169 36 -169 36l19 131l54 3l-7 -94c25 -10 59 -19 107 -19c112 0 189 63 191 259c0 0 -41 -66 -167 -66c-99 0 -167 37 -167 124c0 10 1 20 3 31l45 296l-56 3l5 60h142l-54 -344
c-11 -72 35 -102 114 -102c99 0 143 56 143 56l50 327z" />
    <glyph glyph-name="afii10110.alt" horiz-adv-x="588" 
d="M207 686l71 10v-1s6 -59 92 -59c85 0 111 59 111 59v1l67 -10s-35 -102 -186 -102c-150 0 -155 102 -155 102zM406 440l8 60h139l-68 -436c0 -260 -133 -328 -276 -328c-123 0 -169 36 -169 36l19 131l54 3l-7 -94c25 -10 59 -19 107 -19c112 0 189 63 191 259
c0 0 -41 -66 -167 -66c-99 0 -167 37 -167 124c0 10 1 20 3 31l45 296l-56 3l5 60h142l-54 -344c-11 -72 35 -102 114 -102c99 0 143 56 143 56l50 327z" />
    <glyph glyph-name="Epsilon.alt" horiz-adv-x="662" 
d="M568 467l7 82c-18 16 -64 46 -145 46c-135 0 -245 -83 -268 -253h389l-9 -62h-385v-10c0 -138 93 -216 228 -216c138 0 210 94 210 94l30 -48s-77 -114 -255 -114c-173 0 -301 114 -301 295c0 226 151 382 358 382c80 0 133 -32 159 -55l18 46h50l-23 -187h-63z" />
    <glyph glyph-name="Epsilontonos.alt" horiz-adv-x="693" 
d="M598 467l7 82c-18 16 -64 46 -145 46c-135 0 -245 -83 -268 -253h389l-9 -62h-385v-10c0 -138 93 -216 228 -216c138 0 210 94 210 94l30 -48s-77 -114 -255 -114c-173 0 -301 114 -301 295c0 226 151 382 358 382c80 0 133 -32 159 -55l18 46h50l-23 -187h-63zM112 561
l-38 12l92 188l52 -16z" />
    <glyph glyph-name="epsilon.alt" horiz-adv-x="495" 
d="M415 368l3 46c-12 13 -43 40 -105 40c-108 0 -168 -52 -183 -176l258 1l-9 -62h-253v-8c0 -109 66 -162 156 -162c99 0 145 52 145 52l27 -41s-51 -72 -193 -72c-129 0 -216 84 -216 221c0 193 86 307 255 307c61 0 105 -25 129 -45l14 35h51l-17 -136h-62z" />
    <glyph glyph-name="epsilontonos.alt" horiz-adv-x="495" 
d="M361 561l-38 12l92 188l52 -16zM415 368l3 46c-12 13 -43 40 -105 40c-108 0 -168 -52 -183 -176l258 1l-9 -62h-253v-8c0 -109 66 -162 156 -162c99 0 145 52 145 52l27 -41s-51 -72 -193 -72c-129 0 -216 84 -216 221c0 193 86 307 255 307c61 0 105 -25 129 -45l14 35
h51l-17 -136h-62z" />
    <glyph glyph-name="AndrijType" horiz-adv-x="1857" 
d="M1254 359c42 0 33 12 60 12c7 0 12 -1 12 -5c0 -7 -15 -12 -22 -14c-15 -25 -27 -76 -33 -102c32 46 81 83 115 83v-4c0 -31 -48 -265 -241 -283c4 43 53 84 89 106l2 -4c-25 -20 -41 -46 -48 -81c100 32 137 149 147 221c-25 -15 -49 -37 -72 -81c-3 -8 -46 -8 -46 -8
c6 50 13 103 41 146c-17 0 -53 2 -69 5c-22 -61 -40 -127 -48 -171c-2 -6 -34 -10 -45 -10c-2 0 -4 1 -4 1c0 23 32 121 55 185c-23 2 -50 10 -73 10s-43 -7 -55 -33h-5c-14 0 -27 7 -28 16c12 28 37 36 67 36c33 0 71 -10 99 -15c22 2 25 12 51 16l-9 -20
c16 -3 40 -6 60 -6zM1586 324c0 -25 -48 -121 -92 -121c-13 0 -23 9 -33 9c40 26 62 67 79 110c-34 -13 -86 -57 -105 -114c-6 -19 -19 -89 -19 -115l-3 -5c-6 0 -19 -2 -29 -2c-9 0 -16 1 -16 5c15 64 31 172 63 258c14 5 27 11 41 11c3 0 7 -1 10 -2
c-26 -43 -35 -84 -38 -94c20 26 71 79 118 79c14 0 24 -5 24 -19zM1685 213c0 -9 -44 -43 -74 -43c-27 0 -30 20 -30 40c0 66 52 137 119 137c14 0 21 -8 21 -19c0 -16 -14 -40 -32 -46c6 -1 12 -1 18 -1c35 0 67 11 81 47c4 -2 10 -2 14 -2h13c6 0 11 0 15 -4
c-18 -42 -87 -54 -145 -54c-22 0 -43 1 -58 4c-5 -8 -8 -26 -8 -43c0 -20 3 -38 10 -38c18 0 46 26 52 26c2 0 4 -2 4 -4zM1671 330c-7 0 -28 -21 -36 -42l15 -2c14 10 26 28 26 38c0 4 -1 6 -5 6zM993 260c4 7 37 10 42 10c2 0 7 0 7 -1c0 -5 -29 -30 -31 -32
c-3 -3 -27 -8 -42 -8c-3 0 -6 0 -6 1c0 2 22 16 30 30zM624 213c17 10 44 84 44 121c0 53 -46 103 -134 133c10 3 26 19 42 20c13 0 128 -41 128 -144c0 -57 -54 -149 -107 -149c-12 0 -21 7 -21 26c0 42 24 86 41 111c3 4 7 6 13 6c8 0 18 -5 27 -5
c-20 -26 -35 -65 -35 -107c0 -4 1 -8 2 -12zM1016 451c4 0 7 0 7 -1c0 -4 -16 -1 -39 -20l-3 -3c-9 -9 -19 -18 -51 -18c-4 0 -9 0 -9 1c0 0 39 41 95 41zM126 195c0 119 24 160 120 160c26 0 53 -3 72 -6c12 11 34 33 48 41c5 3 40 10 42 10l-4 -11
c-28 -72 -56 -146 -58 -224c0 -6 -28 -12 -42 -12c-3 0 -6 1 -7 1c2 65 22 125 45 189c-46 -50 -128 -117 -171 -145c-3 -2 -32 -8 -42 -8c-1 0 -2 0 -3 1v4zM845 385c12 0 27 -19 29 -28c-33 0 -82 -11 -94 -20c-28 -20 -28 -97 -37 -129c-3 -10 -48 -6 -49 -8l3 12
c0 2 1 3 1 5c12 42 27 97 61 122c32 21 60 38 86 46zM894 353c1 8 32 9 48 9c-10 -82 -33 -164 -86 -229c-38 -46 -109 -78 -153 -78c4 43 53 83 89 105l3 -3c-25 -20 -43 -46 -50 -81c122 58 137.508 185.061 149 277zM567 356c9 0 11 -2 11 -4c0 -14 -38 -65 -38 -147
c-1 -5 -20 -8 -34 -8c-7 0 -12 1 -13 2c0 58 12 77 28 115c-22 0 -68 -62 -88 -106c-3 -8 -46 -9 -46 -9c12 58 27 122 46 154c4 6 20 6 32 6h8c3 0 5 1 6 1c-17 -27 -30 -80 -37 -108c34 48 74 104 125 104zM302 332c-15 4 -60 13 -75 13c-8 0 -15.9756 -2.0166 -20 -8
c-18.8848 -28.0771 -25 -67 -27 -111c45 32 85 68 122 106zM854 323c2 0 3 -1 3 -1c-32 -111 -20 -110 -44 -113c-2 0 -5 0 -8 -1c-1 0 -16 -3 -22 -3c-2 0 -3 0 -3 1c33 112 19 110 44 114c2 0 5 0 8 1c1 0 15 2 22 2z" />
    <glyph glyph-name="ampersand.alt" horiz-adv-x="721" 
d="M399 78c-61 66 -110 157 -138 245c-46 -10 -128 -43 -128 -146c0 -71 42 -129 145 -129c46 0 86 11 121 30zM525 330l-6 58l1 7h173l-9 -64l-83 -1c1 -93 -31 -184 -92 -249c28 -21 57 -33 85 -33c26 0 54 9 63 13l2 -58c-9 -4 -48 -17 -88 -17c-43 0 -84 18 -122 47
c-48 -30 -107 -47 -176 -47c-154 0 -222 87 -222 188c0 135 119 190 194 208c-6 30 -9 58 -9 84c0 120 75 197 200 197c61 0 107 -29 130 -49l15 40h47l-18 -145h-58l2 47c-11 13 -46 45 -105 45c-97 0 -136 -57 -136 -134c0 -100 65 -248 146 -339c45 52 69 125 66 202z
" />
    <glyph glyph-name="afii10086.hist" horiz-adv-x="401" 
d="M237 492l-2 -14h167l-8 -63h-169l-12 -79h165l-8 -63h-167l-81 -523h-79l81 523h-64l4 60l70 2l12 80h-61l4 60l67 2l4 23c0 202 80 263 181 263c36 0 69 -19 88 -32l10 23h47l-16 -140h-58l4 59c-11 11 -33 30 -64 30c-66 0 -115 -44 -115 -211z" />
    <glyph glyph-name="afii10097.hist" horiz-adv-x="600" 
d="M322 280l-6 -44h-79c-76 0 -122 -34 -122 -91c0 -50 36 -99 133 -99c103 0 152 61 162 75l44 286c-5 6 -42 48 -134 48c-86 0 -148 -38 -148 -95c0 -63 61 -78 70 -80h80zM35 131c0 83 60 122 118 138c-31 19 -56 49 -56 100c0 90 95 145 214 145c112 0 151 -47 154 -51
l19 37h64l-58 -374c-2 -13 -3 -24 -3 -33c0 -31 12 -34 23 -34c16 0 48 2 48 2l-4 -56s-51 -11 -99 -11c-38 0 -56 15 -50 67c-5 -6 -55 -75 -185 -75c-121 0 -185 64 -185 145z" />
    <glyph glyph-name="a.sc" horiz-adv-x="613" 
d="M348 484l-145 -262h207zM-44 0l5 59l78 2l270 489h107l116 -489l77 -2l-9 -59h-212l6 44l59 2l-32 128h-244l-71 -127l62 -2l-6 -45h-206z" />
    <glyph glyph-name="b.sc" horiz-adv-x="552" 
d="M194 306h131c37 0 110 31 110 114c0 49 -42 70 -113 70h-99zM322 259h-135l-31 -199h100c129 0 170 48 170 126c0 51 -38 73 -104 73zM82 495l5 55h248c122 0 177 -46 177 -115c0 -71 -48 -115 -96 -140c56 -17 87 -55 87 -109c0 -101 -67 -186 -251 -186h-242l4 59l70 2
l68 431z" />
    <glyph glyph-name="c.sc" horiz-adv-x="578" 
d="M484 356l8 93c-15 15 -55 48 -121 48c-126 0 -234 -88 -234 -254c0 -118 79 -188 197 -188c117 0 185 83 185 83l29 -46s-69 -106 -228 -106c-164 0 -266 100 -266 253c0 202 133 325 307 325c68 0 116 -34 141 -57l20 50h48l-26 -201h-60z" />
    </font>
</defs>
</svg>
